<svg width="232" height="51" viewBox="0 0 232 51" fill="none" xmlns="http://www.w3.org/2000/svg">
<path d="M92.6358 28.9676L88.617 18.119C88.4531 17.6753 87.8263 17.6753 87.662 18.119L83.6439 28.9683C83.6153 29.0454 83.6059 29.1283 83.6162 29.2098C83.6266 29.2914 83.6565 29.3693 83.7035 29.4368C83.7504 29.5043 83.8129 29.5594 83.8857 29.5975C83.9585 29.6355 84.0394 29.6554 84.1216 29.6554H92.1581C92.2403 29.6554 92.3212 29.6355 92.394 29.5974C92.4668 29.5593 92.5293 29.5041 92.5762 29.4365C92.6231 29.369 92.653 29.2911 92.6633 29.2095C92.6736 29.1279 92.6641 29.045 92.6355 28.9679L92.6358 28.9676ZM94.4923 35.0654H81.7878C81.6838 35.0654 81.5824 35.0973 81.497 35.1567C81.4117 35.2162 81.3466 35.3003 81.3104 35.3979L78.8092 42.1482C78.773 42.2458 78.7079 42.33 78.6226 42.3894C78.5373 42.4489 78.4358 42.4807 78.3319 42.4807H72.8253C72.7421 42.4807 72.6601 42.4603 72.5866 42.4212C72.5131 42.3821 72.4502 42.3255 72.4036 42.2565C72.357 42.1874 72.3279 42.108 72.3191 42.0251C72.3102 41.9422 72.3217 41.8584 72.3527 41.781L85.0304 10.1539C85.0684 10.0594 85.1337 9.97848 85.218 9.92152C85.3023 9.86456 85.4017 9.83417 85.5034 9.83427H90.776C90.9838 9.83427 91.1709 9.96075 91.2486 10.1539L103.926 41.7807C103.957 41.8581 103.969 41.942 103.96 42.025C103.951 42.1079 103.922 42.1875 103.876 42.2566C103.829 42.3258 103.766 42.3824 103.692 42.4215C103.619 42.4607 103.537 42.4811 103.453 42.4811H97.9479C97.8439 42.481 97.7424 42.4491 97.657 42.3896C97.5717 42.3301 97.5066 42.2459 97.4705 42.1482L94.969 35.3979C94.9328 35.3003 94.8677 35.2162 94.7823 35.1567C94.697 35.0973 94.5956 35.0654 94.4916 35.0654H94.4923ZM106.506 20.9338H111.216C111.351 20.9338 111.48 20.9875 111.576 21.0832C111.671 21.1788 111.725 21.3085 111.725 21.4438V41.9707C111.725 42.106 111.671 42.2357 111.576 42.3314C111.48 42.427 111.351 42.4807 111.216 42.4807H106.506C106.371 42.4807 106.241 42.427 106.146 42.3314C106.05 42.2357 105.997 42.106 105.997 41.9707V21.4435C105.997 21.3082 106.05 21.1785 106.146 21.0828C106.241 20.9872 106.371 20.9335 106.506 20.9335V20.9338ZM128.902 25.927C128.902 26.0622 128.848 26.192 128.752 26.2876C128.657 26.3833 128.527 26.437 128.392 26.437H128.25C125.921 26.437 124.213 26.9966 123.126 28.1159C122.039 29.2352 121.497 31.0854 121.497 33.666V41.9707C121.497 42.106 121.443 42.2357 121.348 42.3314C121.252 42.427 121.123 42.4807 120.987 42.4807H116.324C116.189 42.4807 116.059 42.427 115.964 42.3314C115.868 42.2357 115.815 42.106 115.815 41.9707V21.4435C115.815 21.3082 115.868 21.1785 115.964 21.0828C116.059 20.9872 116.189 20.9335 116.324 20.9335H120.941C121.076 20.9335 121.205 20.9872 121.301 21.0828C121.396 21.1785 121.45 21.3082 121.45 21.4435V25.5037H121.543C122.102 23.8248 122.987 22.5352 124.198 21.6328C125.409 20.7315 126.899 20.2803 128.669 20.2803H128.902V25.9266V25.927ZM141.779 25.7373C141.644 25.7373 141.515 25.791 141.419 25.8866C141.324 25.9823 141.27 26.112 141.27 26.2473V34.7853C141.27 35.656 141.44 36.2778 141.782 36.6508C142.123 37.0238 142.713 37.2105 143.551 37.2105H144.02C144.155 37.2105 144.285 37.2642 144.38 37.3598C144.476 37.4555 144.53 37.5852 144.53 37.7204V42.017C144.53 42.1522 144.476 42.282 144.38 42.3776C144.285 42.4732 144.155 42.527 144.02 42.527H142.014C139.934 42.527 138.336 41.9908 137.218 40.9181C136.1 39.8454 135.541 38.2525 135.541 36.1378V26.2473C135.541 26.112 135.487 25.9823 135.392 25.8866C135.296 25.791 135.167 25.7373 135.032 25.7373H132.092C131.957 25.7373 131.827 25.6835 131.732 25.5879C131.636 25.4923 131.583 25.3625 131.583 25.2273V21.4435C131.583 21.3082 131.636 21.1785 131.732 21.0828C131.827 20.9872 131.957 20.9335 132.092 20.9335H135.032C135.167 20.9335 135.297 20.8797 135.392 20.7841C135.488 20.6884 135.541 20.5587 135.541 20.4235V12.8154C135.541 12.6801 135.595 12.5504 135.691 12.4547C135.786 12.3591 135.916 12.3054 136.051 12.3054H140.76C140.895 12.3054 141.025 12.3591 141.12 12.4547C141.216 12.5504 141.27 12.6801 141.27 12.8154V20.4235C141.27 20.5587 141.323 20.6884 141.419 20.7841C141.514 20.8797 141.644 20.9335 141.779 20.9335H145.185C145.32 20.9335 145.449 20.9872 145.545 21.0828C145.64 21.1785 145.694 21.3082 145.694 21.4435V25.2276C145.694 25.3629 145.64 25.4926 145.545 25.5882C145.449 25.6839 145.32 25.7376 145.185 25.7376H141.779V25.7373ZM163.345 36.0912C164.417 34.9719 164.952 33.5106 164.952 31.7069C164.952 29.9043 164.417 28.4423 163.345 27.323C162.274 26.2037 160.869 25.6441 159.13 25.6441C157.391 25.6441 155.987 26.2037 154.916 27.323C153.845 28.4423 153.309 29.9043 153.309 31.7069C153.309 33.5106 153.845 34.9719 154.916 36.0912C155.987 37.2105 157.391 37.7701 159.13 37.7701C160.869 37.7701 162.274 37.2105 163.345 36.0912ZM152.471 41.8276C150.887 40.9263 149.637 39.6122 148.722 37.8867C147.806 36.1612 147.348 34.1015 147.348 31.7069C147.348 29.3134 147.806 27.253 148.722 25.5275C149.637 23.802 150.887 22.4889 152.471 21.5866C154.054 20.6849 155.793 20.2341 157.687 20.2341C159.363 20.2341 160.799 20.5605 161.995 21.2133C163.19 21.8661 164.144 22.7837 164.859 23.9652H164.952V21.4435C164.952 21.3082 165.006 21.1785 165.101 21.0828C165.197 20.9872 165.326 20.9335 165.461 20.9335H170.124C170.259 20.9335 170.389 20.9872 170.485 21.0828C170.58 21.1785 170.634 21.3082 170.634 21.4435V41.9704C170.634 42.1057 170.58 42.2354 170.485 42.331C170.389 42.4267 170.259 42.4804 170.124 42.4804H165.461C165.326 42.4804 165.197 42.4267 165.101 42.331C165.006 42.2354 164.952 42.1057 164.952 41.9704V39.449H164.859C164.144 40.6312 163.19 41.5478 161.995 42.2006C160.799 42.8534 159.364 43.1798 157.687 43.1798C155.793 43.1798 154.054 42.7289 152.471 41.8276V41.8276ZM190.028 36.0912C191.099 34.9719 191.634 33.5106 191.634 31.7069C191.634 29.9043 191.099 28.4423 190.028 27.323C188.957 26.2037 187.552 25.6441 185.813 25.6441C184.074 25.6441 182.669 26.2037 181.598 27.323C180.527 28.4423 179.991 29.9043 179.991 31.7069C179.991 33.5106 180.527 34.9719 181.598 36.0912C182.669 37.2105 184.074 37.7701 185.813 37.7701C187.552 37.7701 188.957 37.2105 190.028 36.0912ZM182.949 42.2006C181.753 41.5478 180.798 40.6312 180.085 39.449H179.991V41.9704C179.991 42.1057 179.938 42.2354 179.842 42.331C179.747 42.4267 179.617 42.4804 179.482 42.4804H174.772C174.637 42.4804 174.508 42.4267 174.412 42.331C174.317 42.2354 174.263 42.1057 174.263 41.9704V10.3432C174.263 10.208 174.317 10.0783 174.412 9.98263C174.508 9.88698 174.637 9.83325 174.772 9.83325H179.482C179.617 9.83325 179.747 9.88698 179.842 9.98263C179.938 10.0783 179.991 10.208 179.991 10.3432V23.9649H180.085C180.798 22.7834 181.753 21.8661 182.949 21.2133C184.144 20.5601 185.58 20.2337 187.257 20.2337C189.15 20.2337 190.889 20.6846 192.473 21.5863C194.056 22.4886 195.306 23.8017 196.222 25.5268C197.137 27.2533 197.596 29.3137 197.596 31.7073C197.596 34.1019 197.137 36.1612 196.222 37.887C195.306 39.6125 194.057 40.9266 192.473 41.8276C190.89 42.7293 189.151 43.1805 187.257 43.1805C185.58 43.1805 184.144 42.8541 182.949 42.2009L182.949 42.2006ZM205.531 42.4807H200.821C200.686 42.4807 200.557 42.427 200.461 42.3314C200.366 42.2357 200.312 42.106 200.312 41.9707V10.3443C200.312 10.209 200.366 10.0793 200.461 9.98365C200.557 9.888 200.686 9.83427 200.821 9.83427H205.531C205.666 9.83427 205.796 9.888 205.891 9.98365C205.987 10.0793 206.04 10.209 206.04 10.3443V41.9707C206.04 42.106 205.987 42.2357 205.891 42.3314C205.796 42.427 205.666 42.4807 205.531 42.4807V42.4807ZM216.641 25.9243C215.86 26.5342 215.332 27.4148 215.06 28.5667C214.984 28.8843 215.232 29.1889 215.558 29.1889H224.521C224.832 29.1889 225.076 28.9101 225.026 28.6028C224.847 27.5131 224.38 26.6444 223.626 25.9943C222.742 25.2327 221.585 24.8519 220.157 24.8519C218.728 24.8519 217.556 25.2093 216.641 25.9243V25.9243ZM228.121 23.2424C229.952 25.2484 230.868 28.0856 230.868 31.7538V32.3631C230.868 32.4984 230.815 32.6281 230.719 32.7237C230.624 32.8194 230.494 32.8731 230.359 32.8731H215.385C215.311 32.8733 215.237 32.8897 215.169 32.9213C215.102 32.9529 215.042 32.9989 214.994 33.0561C214.946 33.1133 214.911 33.1802 214.891 33.2523C214.872 33.3244 214.868 33.3999 214.881 33.4735C215.12 34.8363 215.722 35.9188 216.687 36.7209C217.789 37.6388 219.179 38.0968 220.855 38.0968C223.02 38.0968 225.023 37.2509 226.865 35.5587C227.09 35.352 227.447 35.3959 227.622 35.6471L229.911 38.9383C229.983 39.0407 230.015 39.1659 230.001 39.2901C229.986 39.4144 229.927 39.529 229.833 39.6122C228.71 40.5974 227.46 41.4287 226.118 42.0843C224.627 42.8146 222.873 43.1805 220.855 43.1805C218.527 43.1805 216.493 42.7058 214.754 41.7579C213.015 40.81 211.665 39.4731 210.703 37.747C209.74 36.0215 209.259 34.024 209.259 31.7538C209.259 29.4847 209.725 27.4794 210.656 25.7376C211.587 23.9968 212.891 22.6443 214.568 21.6801C216.245 20.7169 218.201 20.2344 220.436 20.2344C223.726 20.2344 226.288 21.2374 228.121 23.2424V23.2424ZM112.34 13.3451C112.34 15.2688 110.783 16.8283 108.861 16.8283C106.94 16.8283 105.382 15.2688 105.382 13.3447C105.382 11.4207 106.94 9.86113 108.861 9.86113C110.783 9.86113 112.34 11.4207 112.34 13.3447"/>
<path d="M26.8216 0.635296L4.42735 9.91482C3.18202 10.4309 3.19492 12.2027 4.44806 12.7001L26.9356 21.6304C28.9114 22.4151 31.1118 22.4151 33.0876 21.6304L55.5755 12.6997C56.8283 12.2027 56.8419 10.4313 55.5959 9.91516L33.2024 0.634956C31.1593 -0.211652 28.8643 -0.211652 26.8212 0.634956"/>
<path d="M32.0068 26.5066V48.8162C32.0068 49.877 33.0753 50.6039 34.0602 50.2129L59.1182 40.4727C59.3977 40.3617 59.6375 40.1693 59.8064 39.9202C59.9753 39.6712 60.0655 39.377 60.0655 39.076V16.7668C60.0655 15.7056 58.997 14.979 58.0121 15.37L32.9541 25.1103C32.6747 25.2213 32.435 25.4138 32.2661 25.6628C32.0972 25.9118 32.0069 26.2059 32.0068 26.507"/>
<path d="M26.1553 27.6578L18.7187 31.2536L17.9636 31.6191L2.26523 39.1518C1.27045 39.6325 0 38.9063 0 37.7993V16.8602C0 16.4597 0.205065 16.1139 0.48007 15.8538C0.59289 15.7413 0.720884 15.6452 0.860324 15.5682C1.23515 15.3428 1.77022 15.2826 2.22516 15.4628L26.0304 24.9086C27.2404 25.3894 27.3355 27.0873 26.1553 27.6582"/>
<path d="M26.1552 27.6578L18.7186 31.2536L0.47998 15.8535C0.592822 15.7411 0.720815 15.6451 0.860234 15.5682C1.23506 15.3428 1.77013 15.2826 2.22507 15.4628L26.0303 24.9086C27.2403 25.3894 27.3354 27.0873 26.1552 27.6582" fill-opacity="0.25"/>
</svg>
