<svg width="232" height="50" viewBox="0 0 232 50" fill="none" xmlns="http://www.w3.org/2000/svg">
<path d="M14.0916 16.2492C15.3138 15.0237 16.7659 14.0513 18.3646 13.3877C19.9636 12.7241 21.6778 12.3824 23.409 12.3824C25.1403 12.3824 26.8545 12.7241 28.4535 13.3877C30.0525 14.0514 31.5048 15.024 32.7272 16.25C33.6916 17.2144 34.9997 17.7562 36.3636 17.7562C37.7275 17.7562 39.0355 17.2144 39.9999 16.25C40.9644 15.2855 41.5062 13.9775 41.5062 12.6136C41.5062 11.2497 40.9644 9.94166 39.9999 8.97724C35.5721 4.62527 29.6175 2.17815 23.409 2.15906C17.2769 2.22012 11.3996 4.60856 6.96457 8.83646C6.91495 8.88231 6.86614 8.92922 6.81818 8.97718C6.79136 9.004 6.7648 9.03115 6.73864 9.0585C2.4364 13.4778 0.0189785 19.3976 0 25.5681C0.0610428 31.6981 2.44786 37.5734 6.67303 42.008C6.72027 42.0592 6.76864 42.1096 6.81812 42.1591C6.82143 42.1623 6.82475 42.1656 6.82806 42.1688C6.8483 42.189 6.86869 42.2089 6.88923 42.2287C11.3096 46.5371 17.2338 48.9583 23.409 48.9773C29.6089 48.9155 35.5482 46.4747 39.9999 42.1591C40.9644 41.1947 41.5062 39.8866 41.5062 38.5227C41.5062 37.1588 40.9644 35.8508 39.9999 34.8864C39.0355 33.9219 37.7275 33.3801 36.3636 33.3801C34.9997 33.3801 33.6916 33.9219 32.7272 34.8864C31.5048 36.1123 30.0525 37.0849 28.4535 37.7486C26.8545 38.4123 25.1403 38.7539 23.409 38.7539C21.6778 38.7539 19.9636 38.4123 18.3646 37.7486C16.7761 37.0893 15.3323 36.125 14.1149 34.9104C14.1069 34.9023 14.0989 34.8943 14.0909 34.8863C12.865 33.6638 11.8923 32.2115 11.2287 30.6125C10.565 29.0136 10.2234 27.2993 10.2234 25.5681C10.2234 23.8368 10.565 22.1226 11.2287 20.5236C11.8907 18.9287 12.8601 17.4797 14.0816 16.2592L14.0908 16.25L14.0916 16.2492Z"/>
<path d="M14.2289 42.1994C16.2695 40.1574 16.2684 36.8476 14.2263 34.807C12.1842 32.7663 8.87448 32.7675 6.83382 34.8095C4.79315 36.8516 4.79431 40.1614 6.8364 42.202C8.87849 44.2427 12.1882 44.2415 14.2289 42.1994Z"/>
<path d="M63.1818 30.3408C64.7727 29.2045 64.7727 29.8863 66.1363 31.0227C66.8182 31.7045 68.4091 32.8408 67.2727 33.7499C66.2684 34.6829 65.0873 35.405 63.799 35.8735C62.5108 36.3419 61.1417 36.5472 59.7727 36.4772C56.8804 36.5942 54.0597 35.5593 51.9294 33.5994C49.7991 31.6395 48.5331 28.9147 48.4091 26.0227V24.659C48.5593 21.64 49.8606 18.7934 52.0454 16.7045C53.1056 15.7998 54.3339 15.1133 55.6599 14.6843C56.9859 14.2553 58.3835 14.0923 59.7727 14.2045C61.1642 14.209 62.5458 14.4392 63.8636 14.8863C64.7224 15.2926 65.5571 15.7479 66.3636 16.2499C67.9545 17.3863 67.2727 18.0681 65.9091 19.2045C65.6283 19.4635 65.3973 19.7716 65.2272 20.1136C64.5454 20.7954 64.3181 21.2499 63.4091 20.5681C62.6762 20.0037 61.8271 19.6089 60.9231 19.4124C60.0192 19.2159 59.0829 19.2225 58.1818 19.4318C52.2727 21.0227 52.7272 31.4772 59.7727 31.4772C60.9972 31.4485 62.1849 31.0526 63.1818 30.3408V30.3408ZM226.364 36.2499C225.892 36.218 225.448 36.0162 225.113 35.6819C224.779 35.3476 224.577 34.9035 224.545 34.4318V11.2499C224.577 10.7782 224.779 10.3341 225.113 9.99977C225.448 9.66546 225.892 9.46366 226.364 9.43175H228.182C228.654 9.46366 229.098 9.66546 229.432 9.99977C229.766 10.3341 229.968 10.7782 230 11.2499V34.4318C229.968 34.9035 229.766 35.3476 229.432 35.6819C229.098 36.0162 228.654 36.218 228.182 36.2499H226.364ZM216.364 33.5227C215.474 34.4969 214.383 35.2658 213.166 35.776C211.95 36.2862 210.637 36.5255 209.318 36.4772C203.409 36.4772 200.454 31.4772 200.454 26.0227V16.7045C200.486 16.2328 200.688 15.7886 201.023 15.4543C201.357 15.12 201.801 14.9182 202.273 14.8863H204.091C204.563 14.9182 205.007 15.12 205.341 15.4543C205.675 15.7886 205.877 16.2328 205.909 16.7045V26.0227C205.803 26.6515 205.826 27.2953 205.976 27.915C206.127 28.5347 206.402 29.1173 206.785 29.6274C207.167 30.1376 207.649 30.5646 208.202 30.8826C208.755 31.2006 209.367 31.4029 210 31.4772H210.909C211.61 31.4624 212.302 31.3096 212.944 31.0275C213.587 30.7453 214.167 30.3394 214.653 29.8329C215.138 29.3263 215.519 28.7291 215.774 28.0754C216.028 27.4216 216.151 26.7241 216.136 26.0227V16.7045C216.168 16.2328 216.37 15.7886 216.704 15.4543C217.039 15.12 217.483 14.9182 217.955 14.8863H219.773C220.244 14.9182 220.689 15.12 221.023 15.4543C221.357 15.7886 221.559 16.2328 221.591 16.7045V34.4318C221.559 34.9035 221.357 35.3476 221.023 35.6819C220.689 36.0162 220.244 36.218 219.773 36.2499H218.182C217.273 36.2499 216.591 35.3408 216.364 34.4318V33.5227V33.5227ZM193.182 14.8863H196.818C197.29 14.9182 197.734 15.12 198.068 15.4543C198.403 15.7886 198.604 16.2328 198.636 16.7045V17.8408C198.639 18.0805 198.594 18.3183 198.504 18.5402C198.414 18.7622 198.28 18.9638 198.111 19.1333C197.941 19.3027 197.739 19.4365 197.518 19.5268C197.296 19.6171 197.058 19.6621 196.818 19.659H193.182V34.2045C193.15 34.6762 192.948 35.1203 192.614 35.4546C192.279 35.789 191.835 35.9908 191.364 36.0227H189.545C189.074 35.9908 188.63 35.789 188.295 35.4546C187.961 35.1203 187.759 34.6762 187.727 34.2045V13.9772C187.569 11.9326 188.217 9.90727 189.534 8.33534C190.851 6.76341 192.732 5.77002 194.773 5.56812H197.955C198.426 5.60002 198.87 5.80182 199.205 6.13613C199.539 6.47044 199.741 6.91459 199.773 7.3863V8.52266C199.776 8.76227 199.731 9.00007 199.641 9.22204C199.55 9.44402 199.416 9.64567 199.247 9.81511C199.078 9.98456 198.876 10.1184 198.654 10.2087C198.432 10.299 198.194 10.3439 197.955 10.3408H196.364C194.318 10.3408 193.409 11.9318 193.409 13.9772L193.182 14.8863V14.8863ZM180 14.8863H184.091C184.563 14.9182 185.007 15.12 185.341 15.4543C185.675 15.7886 185.877 16.2328 185.909 16.7045V17.8408C185.877 18.3125 185.675 18.7567 185.341 19.091C185.007 19.4253 184.563 19.6271 184.091 19.659H180V28.5227C180 30.3408 180.909 31.2499 182.5 31.2499H183.409C183.881 31.2818 184.325 31.4836 184.659 31.818C184.994 32.1523 185.195 32.5964 185.227 33.0681V34.2045C185.195 34.6762 184.994 35.1203 184.659 35.4546C184.325 35.789 183.881 35.9908 183.409 36.0227H180.909C176.591 35.7954 174.545 32.8408 174.545 28.5227V11.2499C174.577 10.7782 174.779 10.3341 175.113 9.99977C175.448 9.66546 175.892 9.46366 176.364 9.43175H178.182C178.653 9.46366 179.098 9.66546 179.432 9.99977C179.766 10.3341 179.968 10.7782 180 11.2499V14.8863ZM120.909 14.8863H125C125.472 14.9182 125.916 15.12 126.25 15.4543C126.584 15.7886 126.786 16.2328 126.818 16.7045V17.8408C126.786 18.3125 126.584 18.7567 126.25 19.091C125.916 19.4253 125.472 19.6271 125 19.659H120.909V28.5227C120.909 30.3408 121.818 31.2499 123.409 31.2499H124.318C124.558 31.2469 124.796 31.2918 125.018 31.3821C125.24 31.4724 125.441 31.6062 125.611 31.7757C125.78 31.9451 125.914 32.1468 126.004 32.3687C126.094 32.5907 126.139 32.8285 126.136 33.0681V33.0681V34.2045C126.104 34.6762 125.903 35.1203 125.568 35.4546C125.234 35.789 124.79 35.9908 124.318 36.0227H123.182C118.409 36.0227 115.455 33.9772 115.455 28.5227V11.2499C115.486 10.7782 115.688 10.3341 116.023 9.99977C116.357 9.66546 116.801 9.46366 117.273 9.43175H119.091C119.563 9.46366 120.007 9.66546 120.341 9.99977C120.675 10.3341 120.877 10.7782 120.909 11.2499V14.8863ZM97.0454 17.3863C98.8461 15.5503 101.293 14.4901 103.864 14.4318C109.773 14.4318 112.955 19.2045 112.955 24.8863V34.2045C112.923 34.6762 112.721 35.1203 112.386 35.4546C112.052 35.789 111.608 35.9908 111.136 36.0227H109.318C108.846 35.9908 108.402 35.789 108.068 35.4546C107.734 35.1203 107.532 34.6762 107.5 34.2045V24.8863C107.606 24.2575 107.583 23.6137 107.433 22.994C107.282 22.3743 107.007 21.7917 106.625 21.2815C106.242 20.7714 105.76 20.3443 105.207 20.0263C104.654 19.7083 104.042 19.5061 103.409 19.4318H102.5C101.799 19.4465 101.107 19.5993 100.465 19.8815C99.8222 20.1636 99.2417 20.5695 98.7563 21.0761C98.2709 21.5826 97.89 22.1798 97.6354 22.8336C97.3809 23.4874 97.2576 24.1849 97.2727 24.8863V34.2045C97.2408 34.6762 97.039 35.1203 96.7047 35.4546C96.3704 35.789 95.9262 35.9908 95.4545 36.0227H93.6363C93.1646 35.9908 92.7205 35.789 92.3862 35.4546C92.0519 35.1203 91.8501 34.6762 91.8182 34.2045V16.4772C91.8501 16.0055 92.0519 15.5613 92.3862 15.227C92.7205 14.8927 93.1646 14.6909 93.6363 14.659H95.2272C96.1363 14.659 96.8182 15.5681 97.0454 16.4772V17.3863ZM156.136 17.3863C157.937 15.5503 160.384 14.4901 162.955 14.4318C168.864 14.4318 172.045 19.2045 172.045 24.8863V34.2045C172.014 34.6762 171.812 35.1203 171.477 35.4546C171.143 35.789 170.699 35.9908 170.227 36.0227H168.409C167.937 35.9908 167.493 35.789 167.159 35.4546C166.825 35.1203 166.623 34.6762 166.591 34.2045V24.8863C166.697 24.2575 166.674 23.6137 166.523 22.994C166.373 22.3743 166.098 21.7917 165.715 21.2815C165.333 20.7714 164.85 20.3443 164.298 20.0263C163.745 19.7083 163.133 19.5061 162.5 19.4318H161.591C160.889 19.4465 160.198 19.5993 159.555 19.8815C158.913 20.1636 158.333 20.5695 157.847 21.0761C157.362 21.5826 156.981 22.1798 156.726 22.8336C156.472 23.4874 156.349 24.1849 156.364 24.8863V34.2045C156.332 34.6762 156.13 35.1203 155.796 35.4546C155.461 35.789 155.017 35.9908 154.545 36.0227H152.727C152.256 35.9908 151.811 35.789 151.477 35.4546C151.143 35.1203 150.941 34.6762 150.909 34.2045V16.4772C150.941 16.0055 151.143 15.5613 151.477 15.227C151.811 14.8927 152.256 14.6909 152.727 14.659H154.318C155.227 14.659 155.909 15.5681 156.136 16.4772V17.3863V17.3863ZM78.8636 14.4318C77.4309 14.4016 76.0063 14.654 74.6712 15.1745C73.3361 15.6951 72.1166 16.4736 71.0825 17.4655C70.0483 18.4575 69.2197 19.6435 68.644 20.9558C68.0683 22.268 67.7568 23.6809 67.7272 25.1136V25.5681C67.5967 28.3659 68.5725 31.1027 70.4439 33.1867C72.3152 35.2707 74.9316 36.5343 77.7272 36.7045H78.8636C81.6614 36.8351 84.3982 35.8592 86.4822 33.9879C88.5661 32.1165 89.8298 29.5002 90 26.7045V25.5681C90.1305 22.7703 89.1547 20.0335 87.2834 17.9495C85.412 15.8656 82.7957 14.6019 80 14.4318H78.8636ZM132.727 27.3863C133.088 28.7075 133.898 29.8617 135.018 30.6499C136.138 31.4381 137.498 31.811 138.864 31.7045C140.28 31.731 141.683 31.4194 142.955 30.7954C143.182 30.7954 143.409 30.5681 143.636 30.5681C144.318 30.1136 145 29.8863 145.455 30.5681L146.364 31.4772L147.273 32.3863C148.182 33.5227 147.5 33.7499 146.591 34.4318C144.264 35.8651 141.596 36.6498 138.864 36.7045C131.818 36.7045 127.045 32.3863 127.045 25.3408C126.96 23.9505 127.151 22.557 127.609 21.2414C128.067 19.9259 128.782 18.7146 129.713 17.6782C130.644 16.6417 131.771 15.8008 133.03 15.2045C134.289 14.6081 135.654 14.2682 137.045 14.2045H138.409C145.227 14.2045 149.091 18.2954 149.318 25.1136C149.318 26.9318 149.545 27.6136 147.5 27.6136H132.727V27.3863ZM79.0909 19.4318C79.868 19.458 80.6322 19.6381 81.3394 19.9614C82.0466 20.2847 82.6827 20.7449 83.211 21.3155C83.7393 21.8861 84.1493 22.5556 84.4173 23.2855C84.6854 24.0155 84.8062 24.7913 84.7727 25.5681V25.5681C84.8313 27.0403 84.318 28.4781 83.3403 29.5804C82.3626 30.6827 80.9963 31.3639 79.5276 31.4814C78.0589 31.5989 76.6017 31.1435 75.4611 30.2107C74.3206 29.2779 73.5853 27.94 73.4091 26.4772V25.5681C73.2689 24.0935 73.7149 22.6229 74.6506 21.4746C75.5863 20.3262 76.9365 19.5924 78.4091 19.4318H79.0909ZM132.727 22.8408H143.636C143.414 21.6556 142.752 20.5984 141.782 19.8816C140.812 19.1649 139.607 18.8417 138.409 18.9772C137.167 18.8969 135.934 19.2334 134.905 19.9332C133.875 20.633 133.109 21.6563 132.727 22.8408V22.8408Z"/>
</svg>
