<svg width="178" height="52" viewBox="0 0 178 52" fill="none" xmlns="http://www.w3.org/2000/svg">
<path fill-rule="evenodd" clip-rule="evenodd" d="M6.14463 51.8476H37.8829V51.8375C40.5946 51.8375 42.7985 49.6336 42.7985 46.9218V5.23044C42.7985 2.51873 40.5946 0.314819 37.8829 0.314819H6.14463C3.43291 0.314819 1.229 2.51873 1.229 5.23044V46.932C1.229 49.6437 3.43291 51.8476 6.14463 51.8476ZM27.2796 24.2937V44.7586H32.8655V24.3648C32.8655 13.1218 16.646 19.5203 16.646 19.5203V7.33276L10.8569 7.37339C10.8569 7.37339 10.8569 26.396 10.8874 26.2945C28.5999 19.3984 27.2796 24.2937 27.2796 24.2937ZM24.4358 14.696H30.5804C33.9116 10.3796 34.9983 7.36323 34.9983 7.36323H28.6507C28.6507 7.36323 26.6499 11.9945 24.4358 14.696ZM10.9483 33.0687V44.7179V44.7281L16.778 38.8984L10.9483 33.0687Z"/>
<path d="M65.7109 43.2656V26.5078C65.7109 25.3297 64.8476 24.8117 63.8218 24.8117C61.434 24.8577 59.0793 25.3791 56.8953 26.3453V43.2656H52.1726V12.1469H56.8953V22.4047C59.1296 21.5922 61.8109 20.8812 64.4921 20.8812C68.7781 20.8812 70.3828 23.5219 70.3828 27.1375V43.2859L65.7109 43.2656ZM79.2187 33.1093C79.3711 38.7359 80.4781 39.8429 83.9414 39.8429C86.6531 39.8429 89.7304 38.9289 92.0867 38.0351L92.8687 41.5898C90.35 42.7273 87.2828 43.8242 83.7281 43.8242C75.857 43.8242 74.6382 39.4976 74.6382 32.6117C74.6382 28.8336 74.9125 25.4008 75.8164 22.2523C78.1726 21.3383 81.3312 20.8711 85.3023 20.8711C91.7617 20.8711 93.732 24.4562 93.732 30.7226V33.1195H79.2187V33.1093ZM85.2109 24.8015C83.789 24.8015 81.5546 24.8422 79.7062 25.2078C79.5031 26.1523 79.2695 27.4422 79.1984 29.8492H89.05C89.05 26.5789 88.4609 24.8117 85.2312 24.8117L85.2109 24.8015ZM102.477 26.325V43.2656H97.7539V24.2328C101.148 22.4694 104.874 21.4383 108.692 21.2062V25.1367C106.661 25.289 104.325 25.5429 102.477 26.3554V26.325ZM121.164 43.7937C114.116 43.7937 110.927 40.3406 110.927 32.4187C110.927 24.0398 115.141 20.8406 121.164 20.8406C128.212 20.8406 131.391 24.2937 131.391 32.2156C131.391 40.5945 127.177 43.7937 121.164 43.7937V43.7937ZM121.164 24.8015C117.538 24.8015 115.537 26.8836 115.537 32.439C115.537 38.5023 117.234 39.8531 121.164 39.8531C124.78 39.8531 126.791 37.8015 126.791 32.2562C126.791 26.1929 125.094 24.8218 121.164 24.8218V24.8015ZM154.172 43.2554H148.627C147.327 39.8023 145.519 36.1461 142.736 33.1804H140.258V43.2554H135.535V12.1469H140.258V30.0219H142.462C144.81 27.5167 146.688 24.6098 148.007 21.4398H153.319C151.511 25.0961 149.185 28.3258 146.585 30.9664C149.557 34.7853 152.104 38.9161 154.182 43.2859L154.172 43.2554ZM163.028 43.8039C158.742 43.8039 157.137 41.1633 157.137 37.5476V21.4297H161.809V38.157C161.809 39.3351 162.673 39.8531 163.698 39.8531C166.162 39.8086 168.593 39.2879 170.859 38.3195V21.4297H175.581V40.4015C169.995 43.4687 165.699 43.8242 163.028 43.8242V43.8039Z"/>
</svg>
