<svg width="250" height="125" viewBox="0 0 250 125" fill="none" xmlns="http://www.w3.org/2000/svg">
<path fill-rule="evenodd" clip-rule="evenodd" d="M18.2943 91.4713H58.9844V91.4583C62.4609 91.4583 65.2865 88.6327 65.2865 85.1562V31.7056C65.2865 28.2291 62.4609 25.4036 58.9844 25.4036H18.2943C14.8177 25.4036 11.9922 28.2291 11.9922 31.7056V85.1692C11.9922 88.6458 14.8177 91.4713 18.2943 91.4713ZM45.3906 56.1458V82.3828H52.5521V56.2369C52.5521 41.8229 31.7578 50.026 31.7578 50.026V34.401L24.3359 34.4531C24.3359 34.4531 24.3359 58.8411 24.375 58.7109C47.0833 49.8697 45.3906 56.1458 45.3906 56.1458ZM41.7448 43.8411H49.6224C53.8932 38.3073 55.2865 34.4401 55.2865 34.4401H47.1484C47.1484 34.4401 44.5833 40.3776 41.7448 43.8411ZM24.4531 67.3958V82.3307V82.3437L31.9271 74.8698L24.4531 67.3958Z"/>
<path d="M94.6615 80.4687V58.9843C94.6615 57.4739 93.5547 56.8099 92.2396 56.8099C89.1783 56.8688 86.1595 57.5372 83.3594 58.776V80.4687H77.3047V40.5729H83.3594V53.7239C86.224 52.6823 89.6615 51.7708 93.099 51.7708C98.5938 51.7708 100.651 55.1562 100.651 59.7916V80.4948L94.6615 80.4687ZM111.979 67.4479C112.174 74.6614 113.594 76.0807 118.034 76.0807C121.51 76.0807 125.456 74.9088 128.477 73.763L129.479 78.3203C126.25 79.7786 122.318 81.1849 117.76 81.1849C107.669 81.1849 106.107 75.638 106.107 66.8099C106.107 61.9661 106.458 57.5651 107.617 53.5286C110.638 52.3567 114.688 51.7578 119.779 51.7578C128.06 51.7578 130.586 56.3541 130.586 64.388V67.4609H111.979V67.4479ZM119.661 56.7968C117.839 56.7968 114.974 56.8489 112.604 57.3177C112.344 58.5286 112.044 60.1823 111.953 63.2682H124.583C124.583 59.0755 123.828 56.8099 119.688 56.8099L119.661 56.7968ZM141.797 58.75V80.4687H135.742V56.0677C140.094 53.8069 144.871 52.485 149.766 52.1875V57.2265C147.161 57.4218 144.167 57.7474 141.797 58.789V58.75ZM165.755 81.1458C156.719 81.1458 152.63 76.7187 152.63 66.5625C152.63 55.8203 158.034 51.7187 165.755 51.7187C174.792 51.7187 178.867 56.1458 178.867 66.302C178.867 77.0442 173.464 81.1458 165.755 81.1458ZM165.755 56.7968C161.107 56.7968 158.542 59.4661 158.542 66.5885C158.542 74.3619 160.716 76.0937 165.755 76.0937C170.391 76.0937 172.969 73.4635 172.969 66.3541C172.969 58.5807 170.794 56.8229 165.755 56.8229V56.7968ZM208.073 80.4557H200.964C199.297 76.0286 196.979 71.3411 193.411 67.539H190.234V80.4557H184.18V40.5729H190.234V63.4895H193.06C196.07 60.2778 198.478 56.551 200.169 52.4869H206.979C204.661 57.1744 201.68 61.3151 198.346 64.7005C202.156 69.5965 205.422 74.8924 208.086 80.4948L208.073 80.4557ZM219.427 81.1588C213.932 81.1588 211.875 77.7734 211.875 73.138V52.4739H217.865V73.9192C217.865 75.4296 218.971 76.0937 220.286 76.0937C223.445 76.0367 226.562 75.369 229.466 74.1276V52.4739H235.521V76.7968C228.359 80.7291 222.852 81.1849 219.427 81.1849V81.1588Z"/>
</svg>
