<svg width="182" height="50" viewBox="0 0 182 50" fill="none" xmlns="http://www.w3.org/2000/svg">
<g clip-path="url(#clip0)">
<path fill-rule="evenodd" clip-rule="evenodd" d="M65.985 16.2225L66.1371 18.97C67.8717 16.845 70.1491 15.7825 72.968 15.7825C77.8529 15.7825 80.3392 18.6175 80.4258 24.2875V39.9975H75.1588V24.595C75.1588 23.0863 74.8374 21.97 74.1945 21.2438C73.5516 20.5188 72.4994 20.1563 71.0393 20.1563C68.914 20.1563 67.3302 21.1313 66.2916 23.0788V39.9975H61.0222V16.2225H65.9875H65.985ZM96.1252 40.4375C92.787 40.4375 90.0793 39.3725 88.0059 37.2413C85.9313 35.11 84.894 32.2713 84.894 28.7263V28.0675C84.894 25.695 85.3453 23.5738 86.2491 21.7063C87.1516 19.8388 88.4214 18.385 90.0546 17.3438C91.6878 16.305 93.509 15.785 95.5194 15.785C98.7129 15.785 101.182 16.8175 102.923 18.8825C104.666 20.9488 105.536 23.87 105.536 27.65V29.8038H90.2054C90.3662 31.7663 91.0115 33.3188 92.1465 34.4613C93.2815 35.6038 94.7095 36.175 96.4293 36.175C98.8427 36.175 100.809 35.1875 102.327 33.2088L105.167 35.9563C104.227 37.3763 102.973 38.4788 101.406 39.2625C99.8367 40.0463 98.0774 40.4375 96.1264 40.4375H96.1252ZM95.4971 20.07C94.0505 20.07 92.8846 20.5825 91.9957 21.6075C91.1055 22.6325 90.5393 24.0613 90.2932 25.8925H100.333V25.4963C100.216 23.7088 99.7465 22.3588 98.9231 21.4425C98.0984 20.5275 96.9572 20.07 95.4971 20.07V20.07ZM116.225 10.445V16.2238H120.367V20.1788H116.225V33.45C116.225 34.3575 116.403 35.0125 116.756 35.4163C117.11 35.8188 117.743 36.02 118.654 36.02C119.275 36.0183 119.893 35.9444 120.496 35.8V39.9313C119.297 40.2688 118.141 40.4363 117.027 40.4363C112.981 40.4363 110.957 38.1738 110.957 33.6475V20.1775H107.094V16.2225H110.954V10.4438H116.222L116.225 10.445ZM129.994 39.9988H124.725V6.24875H129.994V39.9988ZM141.334 39.9988H136.065V16.2238H141.334V39.9988ZM135.74 10.0488C135.74 9.23 135.996 8.54875 136.509 8.00625C137.023 7.465 137.756 7.19375 138.709 7.19375C139.664 7.19375 140.401 7.465 140.922 8.00625C141.442 8.54875 141.701 9.23 141.701 10.05C141.701 10.855 141.442 11.525 140.922 12.06C140.401 12.595 139.664 12.8625 138.709 12.8625C137.756 12.8625 137.023 12.595 136.509 12.06C135.996 11.5263 135.74 10.855 135.74 10.05V10.0488ZM148.923 39.9988V20.1775H145.345V16.2225H148.923V14.0475C148.923 11.41 149.645 9.375 151.09 7.93875C152.537 6.50375 154.56 5.78625 157.161 5.78625C158.087 5.78625 159.07 5.9175 160.111 6.18125L159.981 10.3563C159.316 10.2315 158.641 10.1729 157.965 10.1813C155.449 10.1813 154.191 11.4913 154.191 14.1138V16.2225H158.961V20.1775H154.191V39.9975H148.923V39.9988ZM171.017 32.3525L175.787 16.2238H181.402L172.08 43.6025C170.648 47.6013 168.22 49.6012 164.794 49.6012C164.028 49.6012 163.182 49.4687 162.257 49.205V45.0737L163.255 45.14C164.584 45.14 165.586 44.895 166.258 44.4038C166.929 43.9138 167.461 43.09 167.852 41.9325L168.61 39.8888L160.371 16.2238H166.052L171.017 32.3525Z"/>
<path d="M34.4785 17.6688L34.4612 17.6613C34.4513 17.6576 34.4414 17.6538 34.4328 17.6451C34.4186 17.6297 34.4081 17.6112 34.4021 17.591C34.3961 17.5709 34.3947 17.5496 34.3981 17.5288L35.3539 11.6213L39.8357 16.1538L35.1746 18.1588C35.1616 18.1641 35.1477 18.1667 35.1338 18.1663H35.1152C35.1091 18.1626 35.1029 18.1576 35.0905 18.1451C34.9171 17.9498 34.7096 17.7884 34.4785 17.6688V17.6688ZM40.9793 17.3088L45.7715 22.1538C46.7668 23.1613 47.265 23.6638 47.4468 24.2463C47.474 24.3326 47.4962 24.4188 47.5135 24.5076L36.0611 19.6038C36.0549 19.6013 36.0487 19.5988 36.0425 19.5963C35.9968 19.5776 35.9436 19.5563 35.9436 19.5088C35.9436 19.4613 35.998 19.4388 36.0438 19.4201L36.0586 19.4138L40.9793 17.3088ZM47.3182 26.0626C47.0709 26.5326 46.5887 27.0201 45.7727 27.8463L40.3698 33.3076L33.3819 31.8363L33.3448 31.8288C33.2829 31.8188 33.2174 31.8076 33.2174 31.7513C33.1909 31.4599 33.1053 31.1771 32.966 30.9205C32.8266 30.664 32.6366 30.4392 32.4076 30.2601C32.3792 30.2313 32.3866 30.1863 32.3952 30.1451C32.3952 30.1388 32.3952 30.1326 32.3977 30.1276L33.712 21.9701L33.7169 21.9426C33.7243 21.8801 33.7355 21.8076 33.7911 21.8076C34.0727 21.7722 34.3446 21.6804 34.5908 21.5377C34.8371 21.395 35.0527 21.2042 35.2253 20.9763C35.2364 20.9638 35.2438 20.9501 35.2587 20.9426C35.2982 20.9238 35.3452 20.9426 35.386 20.9601L47.3169 26.0626H47.3182ZM39.1273 34.5638L30.2427 43.5463L31.7634 34.0963L31.7659 34.0838C31.7672 34.0713 31.7696 34.0588 31.7733 34.0476C31.7857 34.0176 31.8178 34.0051 31.8488 33.9926L31.8636 33.9863C32.1966 33.8427 32.4911 33.6212 32.7229 33.3401C32.7525 33.3051 32.7884 33.2713 32.8341 33.2651C32.846 33.2631 32.8581 33.2631 32.87 33.2651L39.126 34.5651L39.1273 34.5638ZM28.3622 45.4476L27.3607 46.4601L16.2891 30.2826C16.2851 30.2767 16.2809 30.2708 16.2767 30.2651C16.2594 30.2413 16.2409 30.2176 16.2446 30.1901C16.2446 30.1701 16.2582 30.1526 16.2718 30.1376L16.2841 30.1213C16.3175 30.0713 16.3459 30.0213 16.3769 29.9676L16.4016 29.9238L16.4053 29.9201C16.4226 29.8901 16.4387 29.8613 16.4683 29.8451C16.4943 29.8326 16.5302 29.8376 16.5586 29.8438L28.8246 32.4013C28.8589 32.4067 28.8913 32.4209 28.9186 32.4426C28.9346 32.4588 28.9384 32.4763 28.9421 32.4963C29.0276 32.8236 29.1869 33.1265 29.4073 33.3813C29.6278 33.6361 29.9036 33.8359 30.213 33.9651C30.2477 33.9826 30.2328 34.0213 30.2168 34.0626C30.2087 34.0807 30.2025 34.0995 30.1982 34.1188C30.0437 35.0688 28.7183 43.2413 28.3622 45.4476ZM26.2703 47.5613C25.5322 48.3001 25.097 48.6913 24.6049 48.8488C24.1197 49.0039 23.599 49.0039 23.1138 48.8488C22.5377 48.6638 22.0394 48.1613 21.0441 47.1538L9.92549 35.9126L12.8297 31.3588C12.8433 31.3363 12.8569 31.3163 12.8792 31.3001C12.9101 31.2776 12.9546 31.2876 12.9917 31.3001C13.6583 31.5034 14.374 31.4668 15.0169 31.1963C15.0502 31.1838 15.0836 31.1751 15.1096 31.1988C15.1226 31.2108 15.1342 31.2242 15.1442 31.2388L26.2703 47.5626V47.5613ZM8.85356 34.8288L6.30293 32.2501L11.3399 30.0776C11.3528 30.0719 11.3666 30.0689 11.3807 30.0688C11.4227 30.0688 11.4475 30.1113 11.4697 30.1501C11.5203 30.2288 11.5739 30.3056 11.6304 30.3801L11.6465 30.4001C11.6613 30.4213 11.6515 30.4426 11.6366 30.4626L8.8548 34.8288H8.85356ZM5.17413 31.1088L1.94721 27.8463C1.39826 27.2913 1.00015 26.8888 0.723207 26.5426L10.535 28.6001C10.5473 28.6024 10.5597 28.6045 10.5721 28.6063C10.6327 28.6163 10.6995 28.6276 10.6995 28.6851C10.6995 28.7476 10.6265 28.7763 10.5647 28.8001L10.5363 28.8126L5.17413 31.1088ZM0.159424 24.8651C0.170606 24.6549 0.207993 24.447 0.270697 24.2463C0.453679 23.6638 0.950699 23.1613 1.94721 22.1538L6.07668 17.9788C7.97801 20.7687 9.88449 23.5549 11.7961 26.3376C11.8295 26.3826 11.8666 26.4326 11.8283 26.4701C11.6477 26.6713 11.4672 26.8913 11.3399 27.1301C11.3261 27.1608 11.3048 27.1874 11.2781 27.2076C11.262 27.2176 11.2447 27.2138 11.2261 27.2101H11.2237L0.159424 24.8638V24.8651ZM7.18199 16.8613L12.732 11.2476C13.255 11.4788 15.1553 12.2901 16.8529 13.0151C18.1387 13.5651 19.3108 14.0651 19.6792 14.2276C19.7163 14.2426 19.7497 14.2576 19.7657 14.2951C19.7756 14.3176 19.7707 14.3463 19.7657 14.3701C19.6778 14.7753 19.6909 15.1963 19.8038 15.5951C19.9167 15.9939 20.1258 16.3582 20.4124 16.6551C20.4495 16.6926 20.4124 16.7463 20.3802 16.7926L20.3629 16.8188L14.7251 25.6476C14.7102 25.6726 14.6966 25.6938 14.6719 25.7101C14.6422 25.7288 14.6002 25.7201 14.5656 25.7113C14.3463 25.6533 14.1209 25.6222 13.8942 25.6188C13.6915 25.6188 13.4714 25.6563 13.2488 25.6976H13.2476C13.2229 25.7013 13.2006 25.7063 13.1808 25.6913C13.159 25.6733 13.1402 25.6518 13.1252 25.6276L7.18076 16.8613H7.18199ZM13.8559 10.1138L21.0441 2.84634C22.0394 1.84009 22.5377 1.33634 23.1138 1.15259C23.599 0.997477 24.1197 0.997477 24.6049 1.15259C25.181 1.33634 25.6793 1.84009 26.6746 2.84634L28.2324 4.42134L23.12 12.4263C23.1074 12.4496 23.0901 12.4701 23.0693 12.4863C23.0384 12.5076 22.9951 12.4988 22.958 12.4863C22.555 12.3627 22.1282 12.3402 21.7145 12.4207C21.3009 12.5013 20.913 12.6826 20.5842 12.9488C20.5508 12.9838 20.5014 12.9638 20.4593 12.9451C19.7917 12.6513 14.599 10.4326 13.8559 10.1138V10.1138ZM29.3179 5.51884L34.0384 10.2913L32.9009 17.4138V17.4326C32.8999 17.4488 32.8966 17.4648 32.891 17.4801C32.8787 17.5051 32.8539 17.5101 32.8292 17.5176C32.586 17.5921 32.357 17.7074 32.1517 17.8588C32.1428 17.8652 32.1346 17.8723 32.1269 17.8801C32.1133 17.8951 32.0997 17.9088 32.0775 17.9113C32.0594 17.9119 32.0413 17.9089 32.0243 17.9026L24.8311 14.8126L24.8175 14.8063C24.7718 14.7876 24.7174 14.7651 24.7174 14.7176C24.6751 14.3123 24.5442 13.9216 24.3341 13.5738C24.2995 13.5163 24.2612 13.4563 24.2908 13.3976L29.3179 5.51884ZM24.4565 16.2763L31.1997 19.1638C31.2368 19.1813 31.2776 19.1976 31.2936 19.2363C31.3001 19.2596 31.3001 19.2843 31.2936 19.3076C31.2738 19.4076 31.2565 19.5213 31.2565 19.6363V19.8276C31.2565 19.8751 31.2083 19.8951 31.1638 19.9138L31.1502 19.9188C30.082 20.3801 16.1531 26.3851 16.1321 26.3851C16.111 26.3851 16.0888 26.3851 16.0678 26.3638C16.0307 26.3263 16.0678 26.2738 16.1011 26.2263C16.107 26.2181 16.1128 26.2098 16.1185 26.2013L21.6599 17.5263L21.6697 17.5113C21.7019 17.4588 21.739 17.4001 21.7983 17.4001L21.854 17.4088C21.9801 17.4263 22.0913 17.4426 22.2039 17.4426C23.0446 17.4426 23.8235 17.0288 24.2933 16.3213C24.3045 16.3024 24.3187 16.2856 24.3354 16.2713C24.3687 16.2463 24.4182 16.2588 24.4565 16.2763V16.2763ZM16.7342 27.7576L31.9168 21.2113C31.9168 21.2113 31.939 21.2113 31.96 21.2326C32.0429 21.3163 32.1133 21.3726 32.1813 21.4251L32.2147 21.4463C32.2456 21.4638 32.2765 21.4838 32.279 21.5163C32.279 21.5288 32.279 21.5363 32.2765 21.5476L30.9759 29.6251L30.9709 29.6576C30.9623 29.7201 30.9536 29.7913 30.8955 29.7913C30.5488 29.815 30.2129 29.9238 29.9171 30.1083C29.6213 30.2928 29.3745 30.5474 29.198 30.8501L29.1918 30.8601C29.1745 30.8888 29.1584 30.9163 29.13 30.9313C29.104 30.9438 29.0706 30.9388 29.0434 30.9326L16.9357 28.4076C16.9233 28.4051 16.7478 27.7588 16.7342 27.7576V27.7576Z"/>
</g>
<defs>
<clipPath id="clip0">
<rect width="181.746" height="50"/>
</clipPath>
</defs>
</svg>
