<svg width="408" height="111" viewBox="0 0 408 111" fill="none" xmlns="http://www.w3.org/2000/svg">
  <path fill-rule="evenodd" clip-rule="evenodd" d="M148.129 36.0141L148.47 42.1135C152.364 37.396 157.477 35.0373 163.805 35.0373C174.771 35.0373 180.353 41.331 180.547 53.9184V88.7946H168.723V54.601C168.723 51.2516 168.002 48.7735 166.558 47.1612C165.115 45.5517 162.753 44.747 159.475 44.747C154.704 44.747 151.149 46.9115 148.817 51.2349V88.7946H136.988V36.0141H148.135H148.129ZM215.79 89.7714C208.296 89.7714 202.218 87.4071 197.564 82.6757C192.906 77.9443 190.578 71.6423 190.578 63.7724V62.31C190.578 57.043 191.591 52.3338 193.62 48.188C195.646 44.0421 198.496 40.8148 202.163 38.5032C205.829 36.1972 209.917 35.0428 214.43 35.0428C221.6 35.0428 227.142 37.335 231.05 41.9193C234.964 46.5063 236.918 52.9915 236.918 61.3831V66.1644H202.501C202.862 70.5212 204.311 73.9677 206.859 76.5041C209.407 79.0404 212.612 80.3086 216.473 80.3086C221.891 80.3086 226.304 78.1164 229.712 73.7235L236.088 79.823C233.978 82.9754 231.164 85.4229 227.645 87.1629C224.122 88.9028 220.173 89.7714 215.793 89.7714H215.79ZM214.38 44.5555C211.133 44.5555 208.516 45.6933 206.52 47.9688C204.522 50.2443 203.251 53.4161 202.698 57.4815H225.235V56.6018C224.975 52.6335 223.92 49.6365 222.071 47.6025C220.22 45.5712 217.658 44.5555 214.38 44.5555V44.5555ZM260.912 23.188V36.0168H270.21V44.7969H260.912V74.2591C260.912 76.2738 261.311 77.7279 262.105 78.6242C262.899 79.5177 264.32 79.9645 266.366 79.9645C267.758 79.9606 269.146 79.7967 270.501 79.4761V88.6475C267.809 89.3967 265.214 89.7686 262.713 89.7686C253.629 89.7686 249.085 84.7458 249.085 74.6976V44.7942H240.415V36.0141H249.08V23.1852H260.906L260.912 23.188ZM291.823 88.7973H279.993V13.8723H291.823V88.7973ZM317.28 88.7973H305.45V36.0168H317.28V88.7973ZM304.72 22.3083C304.72 20.4907 305.295 18.9783 306.447 17.774C307.601 16.5724 309.247 15.9702 311.387 15.9702C313.53 15.9702 315.184 16.5724 316.355 17.774C317.521 18.9783 318.104 20.4907 318.104 22.3111C318.104 24.0982 317.521 25.5856 316.355 26.7733C315.184 27.961 313.53 28.5549 311.387 28.5549C309.247 28.5549 307.601 27.961 306.447 26.7733C305.295 25.5884 304.72 24.0982 304.72 22.3111V22.3083ZM334.316 88.7973V44.7942H326.283V36.0141H334.316V31.1856C334.316 25.3303 335.937 20.8126 339.181 17.6241C342.429 14.4384 346.969 12.8456 352.809 12.8456C354.888 12.8456 357.094 13.137 359.431 13.7225L359.14 22.991C357.647 22.714 356.131 22.5839 354.613 22.6025C348.965 22.6025 346.142 25.5107 346.142 31.3326V36.0141H356.85V44.7942H346.142V88.7946H334.316V88.7973ZM383.914 71.8227L394.622 36.0168H407.228L386.301 96.7977C383.087 105.675 377.636 110.115 369.945 110.115C368.224 110.115 366.326 109.821 364.25 109.235V100.064L366.489 100.211C369.473 100.211 371.721 99.667 373.231 98.5764C374.738 97.4886 375.932 95.6599 376.809 93.0903L378.51 88.5531L360.014 36.0168H372.768L383.914 71.8227Z" fill="#0E1E25"/>
  <path d="M77.4006 39.2248L77.3618 39.2081C77.3396 39.1998 77.3174 39.1915 77.2979 39.172C77.2661 39.1378 77.2425 39.0968 77.2291 39.052C77.2156 39.0073 77.2126 38.96 77.2202 38.914L79.3657 25.7993L89.4269 35.8615L78.9633 40.3126C78.9342 40.3243 78.903 40.3299 78.8717 40.3292H78.83C78.8162 40.3209 78.8023 40.3098 78.7745 40.282C78.3851 39.8485 77.9194 39.4902 77.4006 39.2248V39.2248ZM91.9943 38.4256L102.752 49.1815C104.986 51.4181 106.105 52.5337 106.513 53.8268C106.574 54.0183 106.624 54.2098 106.663 54.4068L80.9533 43.5205C80.9395 43.5147 80.9256 43.5092 80.9117 43.5038C80.809 43.4622 80.6896 43.415 80.6896 43.3096C80.6896 43.2041 80.8117 43.1542 80.9144 43.1125L80.9477 43.0987L91.9943 38.4256ZM106.224 57.8589C105.669 58.9023 104.587 59.9845 102.755 61.8188L90.6259 73.9428L74.9388 70.6766L74.8555 70.66C74.7167 70.6378 74.5696 70.6128 74.5696 70.4879C74.51 69.8409 74.3179 69.2131 74.0051 68.6435C73.6924 68.074 73.2657 67.5749 72.7517 67.1773C72.6878 67.1135 72.7045 67.0136 72.7239 66.922C72.7239 66.9082 72.7239 66.8943 72.7295 66.8832L75.6798 48.7735L75.6909 48.7125C75.7076 48.5737 75.7326 48.4128 75.8575 48.4128C76.4897 48.3341 77.1 48.1305 77.6528 47.8137C78.2055 47.4968 78.6897 47.0732 79.0771 46.5674C79.102 46.5397 79.1187 46.5091 79.152 46.4925C79.2408 46.4509 79.3463 46.4925 79.4379 46.5313L106.222 57.8589H106.224ZM87.8366 76.7317L67.8917 96.6728L71.3056 75.6938L71.3112 75.6661C71.314 75.6383 71.3195 75.6106 71.3278 75.5856C71.3556 75.519 71.4277 75.4912 71.4971 75.4635L71.5304 75.4496C72.2779 75.1307 72.939 74.639 73.4594 74.0149C73.526 73.9372 73.6065 73.8623 73.7092 73.8484C73.7359 73.8441 73.7631 73.8441 73.7897 73.8484L87.8338 76.7344L87.8366 76.7317ZM63.6702 100.894L61.422 103.141L36.5673 67.2273C36.5584 67.2141 36.5491 67.2012 36.5396 67.1884C36.5007 67.1357 36.4591 67.083 36.4674 67.0219C36.4674 66.9775 36.498 66.9387 36.5285 66.9054L36.5562 66.8693C36.6312 66.7583 36.695 66.6473 36.7644 66.528L36.8199 66.4309L36.8282 66.4225C36.8671 66.3559 36.9032 66.2921 36.9698 66.256C37.0281 66.2283 37.1086 66.2394 37.1724 66.2533L64.7082 71.9309C64.7852 71.9429 64.8579 71.9744 64.9192 72.0225C64.9553 72.0586 64.9636 72.0974 64.9719 72.1418C65.164 72.8684 65.5215 73.5408 66.0164 74.1064C66.5113 74.672 67.1304 75.1156 67.8251 75.4024C67.9028 75.4413 67.8695 75.5273 67.8335 75.6189C67.8155 75.659 67.8015 75.7008 67.7918 75.7438C67.4449 77.8528 64.4695 95.9957 63.6702 100.894ZM58.974 105.586C57.3171 107.226 56.3401 108.095 55.2354 108.444C54.1462 108.789 52.9773 108.789 51.8882 108.444C50.5948 108.034 49.4762 106.918 47.242 104.681L22.2818 79.7259L28.8015 69.6166C28.832 69.5666 28.8625 69.5222 28.9125 69.4861C28.9819 69.4362 29.0818 69.4584 29.1651 69.4861C30.6615 69.9375 32.2682 69.8561 33.7113 69.2558C33.7863 69.2281 33.8612 69.2086 33.9195 69.2614C33.9487 69.288 33.9747 69.3177 33.9972 69.3502L58.974 105.589V105.586ZM19.8754 77.32L14.1495 71.5951L25.457 66.7722C25.4859 66.7596 25.517 66.753 25.5486 66.7528C25.6429 66.7528 25.6984 66.8471 25.7484 66.9331C25.862 67.1079 25.9824 67.2783 26.1092 67.4437L26.1453 67.4881C26.1786 67.5353 26.1564 67.5825 26.1231 67.6269L19.8782 77.32H19.8754ZM11.6155 69.0616L4.37143 61.8188C3.1391 60.5867 2.24539 59.6932 1.62367 58.9245L23.6501 63.4921C23.6778 63.4973 23.7055 63.5019 23.7334 63.506C23.8694 63.5282 24.0193 63.5532 24.0193 63.6808C24.0193 63.8196 23.8555 63.8834 23.7167 63.9361L23.6529 63.9639L11.6155 69.0616ZM0.35804 55.2004C0.383142 54.7339 0.467071 54.2723 0.607836 53.8268C1.01861 52.5337 2.13437 51.4181 4.37143 49.1815L13.6416 39.913C17.9099 46.1064 22.1897 52.2919 26.4811 58.4694C26.5561 58.5693 26.6393 58.6803 26.5533 58.7635C26.1481 59.2103 25.7429 59.6987 25.457 60.2287C25.426 60.2969 25.3782 60.356 25.3182 60.4008C25.2821 60.423 25.2433 60.4147 25.2016 60.4063H25.1961L0.35804 55.1977V55.2004ZM16.1229 37.4321L28.5822 24.9696C29.7562 25.483 34.0222 27.2839 37.833 28.8934C40.7195 30.1144 43.3507 31.2244 44.1778 31.5852C44.2611 31.6185 44.336 31.6518 44.3721 31.735C44.3943 31.785 44.3832 31.8488 44.3721 31.9015C44.1748 32.8011 44.2041 33.7356 44.4575 34.6211C44.7109 35.5065 45.1803 36.3151 45.8237 36.9742C45.9069 37.0575 45.8237 37.1768 45.7515 37.2795L45.7127 37.3378L33.0563 56.9376C33.023 56.9931 32.9925 57.0403 32.937 57.0763C32.8704 57.118 32.776 57.0985 32.6983 57.0791C32.206 56.9502 31.7 56.8812 31.1912 56.8738C30.736 56.8738 30.242 56.957 29.7424 57.0486H29.7396C29.6841 57.0569 29.6341 57.068 29.5897 57.0347C29.5407 56.9946 29.4985 56.9468 29.4648 56.8932L16.1202 37.4321H16.1229ZM31.1051 22.4527L47.242 6.3188C49.4762 4.08493 50.5948 2.9666 51.8882 2.55868C52.9773 2.21433 54.1462 2.21433 55.2354 2.55868C56.5288 2.9666 57.6473 4.08493 59.8816 6.3188L63.3788 9.8153L51.902 27.5864C51.8736 27.6381 51.8349 27.6835 51.7882 27.7196C51.7189 27.7668 51.6217 27.7474 51.5384 27.7196C50.6336 27.4451 49.6755 27.3951 48.7469 27.574C47.8184 27.7529 46.9475 28.1553 46.2095 28.7464C46.1345 28.8241 46.0235 28.7797 45.9291 28.738C44.4304 28.0859 32.7732 23.1603 31.1051 22.4527V22.4527ZM65.8157 12.2518L76.4126 22.8467L73.8591 38.6587V38.7003C73.8568 38.7363 73.8493 38.7718 73.8369 38.8057C73.8091 38.8612 73.7536 38.8723 73.6981 38.889C73.1522 39.0543 72.638 39.3104 72.1771 39.6466C72.1573 39.6607 72.1388 39.6765 72.1216 39.6937C72.0911 39.727 72.0606 39.7576 72.0106 39.7631C71.9699 39.7644 71.9294 39.7578 71.8913 39.7437L55.7433 32.8839L55.7128 32.87C55.6101 32.8284 55.488 32.7784 55.488 32.673C55.3931 31.7733 55.0992 30.906 54.6276 30.1339C54.5499 30.0062 54.4638 29.873 54.5304 29.7426L65.8157 12.2518ZM54.9024 36.1334L70.04 42.5437C70.1233 42.5825 70.2148 42.6186 70.2509 42.7046C70.2654 42.7563 70.2654 42.811 70.2509 42.8628C70.2065 43.0848 70.1677 43.3373 70.1677 43.5926V44.0172C70.1677 44.1226 70.0594 44.167 69.9595 44.2087L69.929 44.2198C67.5309 45.2437 36.262 58.5748 36.2149 58.5748C36.1677 58.5748 36.1177 58.5748 36.0705 58.5277C35.9873 58.4444 36.0705 58.3279 36.1455 58.2224C36.1587 58.2041 36.1717 58.1856 36.1843 58.1669L48.6242 38.9084L48.6464 38.8751C48.7185 38.7586 48.8018 38.6281 48.935 38.6281L49.0599 38.6476C49.343 38.6864 49.5928 38.7225 49.8454 38.7225C51.7327 38.7225 53.4813 37.804 54.536 36.2333C54.5611 36.1914 54.593 36.1539 54.6304 36.1223C54.7053 36.0668 54.8163 36.0946 54.9024 36.1334V36.1334ZM37.5665 61.6218L71.6498 47.0891C71.6498 47.0891 71.6997 47.0891 71.7469 47.1363C71.9329 47.3222 72.0911 47.4471 72.2437 47.5636L72.3187 47.6108C72.3881 47.6497 72.4575 47.6941 72.463 47.7662C72.463 47.794 72.463 47.8106 72.4575 47.8356L69.5376 65.7676L69.5265 65.8398C69.5071 65.9785 69.4877 66.1367 69.3572 66.1367C68.5788 66.1892 67.8249 66.4307 67.1608 66.8403C66.4968 67.2499 65.9427 67.8151 65.5464 68.4871L65.5326 68.5093C65.4937 68.5732 65.4576 68.6342 65.3938 68.6675C65.3355 68.6953 65.2606 68.6842 65.1995 68.6703L38.0189 63.0648C37.9912 63.0592 37.5971 61.6246 37.5665 61.6218V61.6218Z" fill="url(#paint0_radial)"/>
  <defs>
    <radialGradient id="paint0_radial" cx="0" cy="0" r="1" gradientUnits="userSpaceOnUse" gradientTransform="translate(-3.21107 54.0003) rotate(90) scale(106.285 122.733)">
      <stop stop-color="#20C6B7"/>
      <stop offset="1" stop-color="#4D9ABF"/>
    </radialGradient>
  </defs>
</svg>
