<svg width="144" height="50" viewBox="0 0 144 50" fill="none" xmlns="http://www.w3.org/2000/svg">
<path d="M124.155 43.3928V49.8571C124.155 49.8571 132.537 49.8571 135.869 49.8571C138.269 49.8571 142.388 48.1071 142.531 43.2143C142.531 43 142.531 40.8928 142.531 40.7143C142.531 36.5357 139.093 34.0714 135.869 34.0714C134.364 34.0714 130.03 34.0714 130.03 34.0714V31.0714H141.6V24.5714C141.6 24.5714 133.648 24.5714 130.496 24.5714C127.63 24.5714 123.797 26.9286 123.797 31.3214C123.797 31.75 123.797 33.1786 123.797 33.5714C123.797 37.9643 127.594 40.2143 130.496 40.2143C138.555 40.25 128.561 40.2143 136.012 40.2143C136.012 43.3571 136.012 43.3571 136.012 43.3571"/>
<path d="M61.397 41.8214C61.397 41.8214 67.6657 41.2857 67.6657 33.2142C67.6657 25.1428 60.0716 24.3928 60.0716 24.3928H46.3881V49.8571H53.2657V43.7142L59.2119 49.8571H69.3851L61.397 41.8214ZM58.7463 36.6071H53.2657V30.7857H58.7821C58.7821 30.7857 60.3224 31.3571 60.3224 33.6785C60.3224 36 58.7463 36.6071 58.7463 36.6071Z"/>
<path d="M84.6448 24.5714C82.8896 24.5714 82.6389 24.5714 77.6598 24.5714C72.6807 24.5714 70.9971 29.0714 70.9971 31.2143C70.9971 35.8571 70.9971 49.8571 70.9971 49.8571H77.9821V45.3928H84.5374V49.8571H91.3075C91.3075 49.8571 91.3075 36.1071 91.3075 31.2143C91.3075 25.7857 86.3642 24.5714 84.6448 24.5714ZM84.5374 38.1785H77.9463V32C77.9463 32 77.9463 30.6071 80.1314 30.6071C82.1374 30.6071 80.4896 30.6071 82.5314 30.6071C84.4657 30.6071 84.5015 32 84.5015 32V38.1785H84.5374Z"/>
<path d="M101.767 24.5714H94.4956V49.8571H101.767V24.5714Z"/>
<path d="M111.976 43.3214V24.5714H104.74V43.3214V49.8571H111.976H121.755V43.3214H111.976Z"/>
<path d="M3.22388 49.8571H31.5224C31.5224 49.8571 26.1134 25.25 44.0239 15.2857C47.9284 13.3929 60.3582 6.32142 80.7045 21.3214C81.3492 20.7857 81.9582 20.3571 81.9582 20.3571C81.9582 20.3571 63.3313 1.82142 42.591 3.89285C32.1672 4.82142 19.3433 14.2857 11.8209 26.7857C4.2985 39.2857 3.22388 49.8571 3.22388 49.8571Z"/>
<path d="M3.22388 49.8571H31.5224C31.5224 49.8571 26.1134 25.25 44.0239 15.2857C47.9284 13.3929 60.3582 6.32142 80.7045 21.3214C81.3492 20.7857 81.9582 20.3571 81.9582 20.3571C81.9582 20.3571 63.3313 1.82142 42.591 3.89285C32.1672 4.82142 19.3433 14.2857 11.8209 26.7857C4.2985 39.2857 3.22388 49.8571 3.22388 49.8571Z"/>
<path d="M3.22388 49.8571H31.5224C31.5224 49.8571 26.1134 25.25 44.0239 15.2857C47.9284 13.3929 60.3582 6.32142 80.7045 21.3214C81.3492 20.7857 81.9582 20.3571 81.9582 20.3571C81.9582 20.3571 63.3313 1.82142 42.591 3.89285C32.1313 4.82142 19.3075 14.2857 11.7851 26.7857C4.26268 39.2857 3.22388 49.8571 3.22388 49.8571Z"/>
<path d="M62.1851 5.89286L62.3284 3.5C62.006 3.32143 61.1104 2.89286 58.8537 2.25L58.7104 4.60714C59.8925 5 61.0388 5.42857 62.1851 5.89286Z"/>
<path d="M58.7821 13.4642L58.6388 15.7142C59.8209 15.7499 61.003 15.8928 62.1851 16.1428L62.3283 13.9285C61.1104 13.6785 59.9283 13.5357 58.7821 13.4642Z"/>
<path d="M45.5283 2.32139C45.6358 2.32139 45.7791 2.32139 45.8865 2.32139L45.1701 0.142822C44.0597 0.142822 42.9134 0.214251 41.7313 0.357108L42.4119 2.46425C43.4507 2.35711 44.4895 2.32139 45.5283 2.32139Z"/>
<path d="M47.2478 15.4643L48.0717 17.9286C49.1105 17.4286 50.1493 17 51.1881 16.6786L50.4 14.3214C49.1821 14.6786 48.1433 15.0714 47.2478 15.4643Z"/>
<path d="M30.9851 6.07134L29.3731 3.60706C28.4776 4.07134 27.5463 4.57134 26.5791 5.14277L28.2269 7.64277C29.1582 7.07134 30.0537 6.53563 30.9851 6.07134Z"/>
<path d="M38.3284 22.1429L40.0478 24.7143C40.6567 23.8214 41.3731 23 42.1612 22.1786L40.5493 19.75C39.7254 20.5 38.9731 21.3214 38.3284 22.1429Z"/>
<path d="M33.1344 33.6428L36.0359 35.9285C36.1792 34.5357 36.4299 33.1428 36.7881 31.7499L34.209 29.7142C33.7434 31.0357 33.421 32.3571 33.1344 33.6428Z"/>
<path d="M17.4448 16.6785L14.9015 14.4642C13.9701 15.3571 13.0746 16.2499 12.2507 17.1428L15.0089 19.4999C15.7612 18.5357 16.5851 17.5714 17.4448 16.6785Z"/>
<path d="M6.62688 32.6428L2.50748 31.1428C1.82688 32.6785 1.07464 34.4643 0.716431 35.4285L4.83583 36.9285C5.30151 35.7143 6.05374 33.9643 6.62688 32.6428Z"/>
<path d="M32.597 42.7142C32.6687 44.6071 32.8478 46.1428 33.0269 47.2142L37.3254 48.7499C37.003 47.3571 36.6806 45.7857 36.4657 44.1071L32.597 42.7142Z"/>
</svg>
