<svg width="343" height="120" viewBox="0 0 343 120" fill="none" xmlns="http://www.w3.org/2000/svg">
<path d="M297.086 104.143V119.657C297.086 119.657 317.143 119.657 325.114 119.657C330.857 119.657 340.714 115.457 341.057 103.714C341.057 103.2 341.057 98.1429 341.057 97.7143C341.057 87.6857 332.829 81.7714 325.114 81.7714C321.514 81.7714 311.143 81.7714 311.143 81.7714V74.5714H338.829V58.9714C338.829 58.9714 319.8 58.9714 312.257 58.9714C305.4 58.9714 296.229 64.6286 296.229 75.1714C296.229 76.2 296.229 79.6286 296.229 80.5714C296.229 91.1143 305.314 96.5143 312.257 96.5143C331.543 96.6 307.629 96.5143 325.457 96.5143C325.457 104.057 325.457 104.057 325.457 104.057" fill="#CC0202"/>
<path d="M146.914 100.371C146.914 100.371 161.914 99.0857 161.914 79.7143C161.914 60.3428 143.743 58.5428 143.743 58.5428H111V119.657H127.457V104.914L141.686 119.657H166.029L146.914 100.371ZM140.571 87.8571H127.457V73.8857H140.657C140.657 73.8857 144.343 75.2571 144.343 80.8286C144.343 86.4 140.571 87.8571 140.571 87.8571Z" fill="#CC0202"/>
<path d="M202.543 58.9714C198.343 58.9714 197.743 58.9714 185.829 58.9714C173.914 58.9714 169.886 69.7714 169.886 74.9143C169.886 86.0571 169.886 119.657 169.886 119.657H186.6V108.943H202.286V119.657H218.486C218.486 119.657 218.486 86.6571 218.486 74.9143C218.486 61.8857 206.657 58.9714 202.543 58.9714ZM202.286 91.6286H186.514V76.8C186.514 76.8 186.514 73.4571 191.743 73.4571C196.543 73.4571 192.6 73.4571 197.486 73.4571C202.114 73.4571 202.2 76.8 202.2 76.8V91.6286H202.286Z" fill="#CC0202"/>
<path d="M243.514 58.9714H226.114V119.657H243.514V58.9714Z" fill="#CC0202"/>
<path d="M267.943 103.971V58.9714H250.629V103.971V119.657H267.943H291.343V103.971H267.943Z" fill="#CC0202"/>
<path d="M7.71429 119.657H75.4286C75.4286 119.657 62.4857 60.6 105.343 36.6857C114.686 32.1429 144.429 15.1714 193.114 51.1714C194.657 49.8857 196.114 48.8572 196.114 48.8572C196.114 48.8572 151.543 4.37144 101.914 9.34287C76.9714 11.5714 46.2857 34.2857 28.2857 64.2857C10.2857 94.2857 7.71429 119.657 7.71429 119.657Z" fill="#CC0202"/>
<path d="M7.71429 119.657H75.4286C75.4286 119.657 62.4857 60.6 105.343 36.6857C114.686 32.1429 144.429 15.1714 193.114 51.1714C194.657 49.8857 196.114 48.8572 196.114 48.8572C196.114 48.8572 151.543 4.37144 101.914 9.34287C76.9714 11.5714 46.2857 34.2857 28.2857 64.2857C10.2857 94.2857 7.71429 119.657 7.71429 119.657Z" fill="#CC0202"/>
<path d="M7.71429 119.657H75.4286C75.4286 119.657 62.4857 60.6 105.343 36.6857C114.686 32.1429 144.429 15.1714 193.114 51.1714C194.657 49.8857 196.114 48.8572 196.114 48.8572C196.114 48.8572 151.543 4.37144 101.914 9.34287C76.8857 11.5714 46.2 34.2857 28.2 64.2857C10.2 94.2857 7.71429 119.657 7.71429 119.657Z" fill="#CC0202"/>
<path d="M148.8 14.1429L149.143 8.40002C148.371 7.97145 146.229 6.94288 140.829 5.40002L140.486 11.0572C143.314 12 146.057 13.0286 148.8 14.1429Z" fill="#CC0202"/>
<path d="M140.657 32.3143L140.314 37.7143C143.143 37.8 145.971 38.1429 148.8 38.7429L149.143 33.4286C146.229 32.8286 143.4 32.4858 140.657 32.3143Z" fill="#CC0202"/>
<path d="M108.943 5.57147C109.2 5.57147 109.543 5.57147 109.8 5.57147L108.086 0.342896C105.429 0.342896 102.686 0.514324 99.8572 0.857181L101.486 5.91432C103.971 5.65718 106.457 5.57147 108.943 5.57147Z" fill="#CC0202"/>
<path d="M113.057 37.1143L115.029 43.0286C117.514 41.8286 120 40.8 122.486 40.0286L120.6 34.3715C117.686 35.2286 115.2 36.1715 113.057 37.1143Z" fill="#CC0202"/>
<path d="M74.1429 14.5715L70.2857 8.65723C68.1429 9.77151 65.9143 10.9715 63.6 12.3429L67.5429 18.3429C69.7715 16.9715 71.9143 15.6858 74.1429 14.5715Z" fill="#CC0202"/>
<path d="M91.7143 53.1429L95.8286 59.3143C97.2857 57.1715 99 55.2 100.886 53.2286L97.0286 47.4C95.0572 49.2 93.2572 51.1715 91.7143 53.1429Z" fill="#CC0202"/>
<path d="M79.2857 80.7429L86.2286 86.2286C86.5714 82.8858 87.1714 79.5429 88.0286 76.2L81.8571 71.3143C80.7428 74.4858 79.9714 77.6572 79.2857 80.7429Z" fill="#CC0202"/>
<path d="M41.7428 40.0286L35.6571 34.7144C33.4286 36.8572 31.2857 39.0001 29.3143 41.1429L35.9143 46.8001C37.7143 44.4858 39.6857 42.1715 41.7428 40.0286Z" fill="#CC0202"/>
<path d="M15.8572 78.3429L6.00001 74.7429C4.37144 78.4286 2.57144 82.7143 1.71429 85.0286L11.5714 88.6286C12.6857 85.7144 14.4857 81.5144 15.8572 78.3429Z" fill="#CC0202"/>
<path d="M78 102.514C78.1714 107.057 78.6 110.743 79.0286 113.314L89.3143 117C88.5428 113.657 87.7714 109.886 87.2571 105.857L78 102.514Z" fill="#CC0202"/>
</svg>
