<svg width="189" height="80" viewBox="0 0 189 80" fill="none" xmlns="http://www.w3.org/2000/svg">
<path fill-rule="evenodd" clip-rule="evenodd" d="M71.2575 25.1311C72.2474 25.4165 73.2088 25.7182 74.1366 26.0371C83.7965 29.3577 90.0389 34.5591 90.0389 39.9376C90.0389 45.5465 83.3678 51.0306 73.1144 54.4229C72.5726 54.6022 72.017 54.7747 71.4511 54.9418C71.6531 55.7525 71.833 56.5491 71.9876 57.3289C74.0117 67.5387 72.4526 75.9304 67.6554 78.7035C63.0107 81.3885 55.5033 78.751 47.902 72.2193C47.0993 71.5294 46.2924 70.7938 45.4841 70.0166C44.8605 70.6185 44.238 71.1927 43.6178 71.7341C35.7703 78.5839 27.7112 81.4262 22.9092 78.661C18.2602 75.9835 16.7994 68.1717 18.67 58.3337C18.8672 57.2958 19.1022 56.2317 19.3724 55.1457C18.5401 54.9073 17.7324 54.6561 16.9541 54.3904C7.09127 51.0242 0.599365 45.4726 0.599365 39.9376C0.599365 34.5785 6.64678 29.4119 16.1159 26.1153C17.1743 25.747 18.2804 25.4008 19.4262 25.076C19.1758 24.0719 18.9543 23.0844 18.7649 22.1173C16.803 12.1056 18.1835 4.10485 22.8449 1.41027C27.7061 -1.39988 35.8018 1.61789 43.8785 8.77895C44.3714 9.21596 44.8656 9.67285 45.3605 10.1456C46.1034 9.43105 46.8465 8.74922 47.5876 8.10522C55.2942 1.40804 62.9249 -1.39336 67.5908 1.29343C72.4567 4.09547 73.8818 12.606 71.7023 23.1702C71.5695 23.8136 71.4202 24.4681 71.2575 25.1311ZM70.4105 51.2708C70.9219 51.1193 71.4237 50.9631 71.9127 50.8014C80.7657 47.8722 86.2181 43.3903 86.2181 39.9377C86.2181 36.6964 81.1695 32.4898 72.8929 29.6447C72.0372 29.3505 71.1492 29.0716 70.2343 28.8073C69.134 32.3624 67.6654 36.1187 65.8814 39.9563C67.7509 43.8875 69.2786 47.6925 70.4105 51.2708ZM68.6693 69.8572C69.2622 66.6663 69.1343 62.5846 68.2393 58.0699C68.0997 57.3652 67.9376 56.6444 67.7552 55.9095C64.0507 56.7646 59.9658 57.3909 55.642 57.7741C53.1838 61.3276 50.6651 64.5272 48.1449 67.2795C48.8979 68.0031 49.6486 68.6869 50.3938 69.3272C56.8945 74.9132 62.9221 77.0308 65.7408 75.4017C67.0654 74.6361 68.1366 72.7244 68.6693 69.8572ZM24.8183 75.3557C26.1441 76.1191 28.3374 76.0913 31.0913 75.1201C34.1559 74.0393 37.6334 71.8903 41.1035 68.8614C41.6686 68.368 42.237 67.8443 42.8075 67.2943C40.196 64.4957 37.6045 61.2996 35.1297 57.8224C30.7957 57.4715 26.7406 56.8894 23.0768 56.0804C22.8254 57.0921 22.6073 58.0818 22.4241 59.0454C20.8242 67.4588 21.9971 73.7309 24.8183 75.3557ZM7.75828 45.2463C10.227 47.3572 13.8286 49.2918 18.1898 50.7802C18.8992 51.0222 19.6364 51.2521 20.3974 51.4705C21.5276 47.7925 23.0166 43.9311 24.8113 40.0305C23.0395 36.1871 21.5714 32.3862 20.4522 28.7508C19.3847 29.0537 18.3561 29.3761 17.3736 29.7182C9.27547 32.5375 4.41999 36.6856 4.41999 39.9377C4.41999 41.4659 5.53997 43.3492 7.75828 45.2463ZM24.7591 4.71232C21.95 6.33606 20.8336 12.8069 22.5145 21.3847C22.6904 22.2827 22.8966 23.2013 23.1293 24.1362C26.8314 23.2987 30.8579 22.6733 35.0643 22.284C37.5171 18.8273 40.0849 15.6552 42.6835 12.8689C42.2347 12.4409 41.7872 12.0273 41.3415 11.6321C34.3678 5.44884 27.7513 2.98254 24.7591 4.71232ZM58.3749 26.4309C59.3011 27.8806 60.2097 29.371 61.0947 30.8974C61.9983 32.4561 62.8564 34.0069 63.6677 35.545C64.7987 32.9008 65.7594 30.3215 66.5303 27.8545C63.9627 27.2694 61.2286 26.7912 58.3749 26.4309ZM50.625 21.9403C48.889 19.6307 47.1241 17.5021 45.3618 15.5956C43.5719 17.524 41.7917 19.6498 40.054 21.9379C41.7925 21.8568 43.5504 21.8149 45.3191 21.8149C47.1047 21.8149 48.8757 21.8578 50.625 21.9403ZM27.0033 35.5421C27.8019 33.9969 28.6441 32.4546 29.5281 30.9238V30.9235C30.4145 29.3886 31.3306 27.8873 32.2699 26.4243C29.4343 26.7777 26.7131 27.2439 24.1613 27.8142C24.9388 30.3161 25.8907 32.9071 27.0033 35.5421ZM24.1086 52.4002C26.6598 52.9547 29.4219 53.3969 32.3515 53.7233C31.388 52.2304 30.4494 50.6995 29.5434 49.1366H29.5432C28.6538 47.6025 27.8082 46.0596 27.0076 44.5155C25.8714 47.2072 24.8985 49.8536 24.1086 52.4002ZM40.0862 58.1181C41.8503 60.4395 43.6566 62.5977 45.4675 64.5488C47.2179 62.6245 48.9764 60.4629 50.7181 58.0996C48.9443 58.1785 47.1421 58.2195 45.3191 58.2195C43.5446 58.2195 41.7987 58.1852 40.0862 58.1181ZM66.7075 52.2348C65.9073 49.7317 64.8996 47.0991 63.7041 44.3783C62.8862 45.9527 62.0211 47.5327 61.11 49.1104C60.2094 50.6697 59.2928 52.1857 58.3644 53.6549C61.3144 53.3014 64.1142 52.8256 66.7075 52.2348ZM53.5097 54.1171C54.9669 51.9358 56.4022 49.625 57.8003 47.2043C59.1965 44.7865 60.4819 42.3658 61.6434 39.9751C60.4784 37.6246 59.1902 35.2281 57.7878 32.8092C56.4011 30.4172 54.9573 28.1183 53.4783 25.9383C50.8192 25.7358 48.0881 25.6302 45.3191 25.6302H45.3189C42.5624 25.6302 39.8348 25.735 37.1749 25.9357C35.6729 28.1318 34.2193 30.4382 32.838 32.8299L32.8384 32.8294C31.4608 35.2148 30.1889 37.6273 29.0338 40.0293C30.1893 42.4256 31.4645 44.8355 32.85 47.2251H32.8497C34.2389 49.6213 35.7054 51.939 37.2213 54.1488C39.8284 54.3178 42.5358 54.4042 45.3191 54.4042C48.1137 54.4042 50.8556 54.3066 53.5097 54.1171ZM67.9602 22.4002C69.842 13.2792 68.6773 6.3235 65.6822 4.59881C62.8704 2.97968 56.699 5.2452 50.0959 10.9833C49.4125 11.5774 48.7262 12.2069 48.0389 12.8671C50.5952 15.6177 53.1419 18.7947 55.5995 22.2894C59.8182 22.6846 63.8476 23.3208 67.5583 24.1758C67.705 23.575 67.8402 22.9822 67.9602 22.4002Z"/>
<path d="M108.441 42.2692H102.391V52.7273H98.9768V26.875H107.503C110.404 26.875 112.633 27.5379 114.19 28.8636C115.758 30.1894 116.543 32.1188 116.543 34.652C116.543 36.2618 116.106 37.6645 115.234 38.8601C114.373 40.0556 113.17 40.9493 111.625 41.5412L117.675 52.5142V52.7273H114.031L108.441 42.2692ZM102.391 39.4815H107.609C109.296 39.4815 110.634 39.0436 111.625 38.1676C112.627 37.2917 113.128 36.1198 113.128 34.652C113.128 33.054 112.651 31.8288 111.696 30.9766C110.752 30.1243 109.384 29.6922 107.592 29.6804H102.391V39.4815Z"/>
<path d="M128.748 53.0824C126.154 53.0824 124.043 52.2301 122.416 50.5256C120.788 48.8092 119.974 46.5187 119.974 43.6541V43.0504C119.974 41.1446 120.334 39.446 121.053 37.9545C121.785 36.4512 122.799 35.2794 124.096 34.4389C125.405 33.5866 126.82 33.1605 128.342 33.1605C130.83 33.1605 132.764 33.9832 134.144 35.6286C135.523 37.2739 136.213 39.6295 136.213 42.6953V44.0625H123.247C123.294 45.9564 123.842 47.4893 124.892 48.6612C125.953 49.8213 127.298 50.4013 128.925 50.4013C130.081 50.4013 131.06 50.1645 131.862 49.6911C132.664 49.2176 133.365 48.5902 133.967 47.8089L135.966 49.3714C134.362 51.8454 131.956 53.0824 128.748 53.0824ZM128.342 35.8594C127.021 35.8594 125.912 36.3447 125.016 37.3153C124.12 38.2741 123.565 39.6236 123.353 41.3636H132.941V41.1151C132.846 39.446 132.398 38.1558 131.596 37.2443C130.794 36.321 129.71 35.8594 128.342 35.8594Z"/>
<path d="M151.833 52.7273C151.645 52.3485 151.491 51.6738 151.373 50.7031C149.852 52.2893 148.036 53.0824 145.925 53.0824C144.038 53.0824 142.487 52.5497 141.273 51.4844C140.07 50.4072 139.468 49.0459 139.468 47.4006C139.468 45.4001 140.223 43.8494 141.733 42.7486C143.254 41.6359 145.388 41.0795 148.136 41.0795H151.32V39.5703C151.32 38.4221 150.978 37.5107 150.294 36.8359C149.61 36.1494 148.602 35.8061 147.269 35.8061C146.102 35.8061 145.123 36.102 144.333 36.6939C143.543 37.2857 143.148 38.0019 143.148 38.8423H139.857C139.857 37.8835 140.194 36.9602 140.866 36.0724C141.55 35.1728 142.47 34.4626 143.625 33.9418C144.793 33.4209 146.072 33.1605 147.464 33.1605C149.669 33.1605 151.397 33.7169 152.647 34.8295C153.897 35.9304 154.546 37.4515 154.593 39.3928V48.2351C154.593 49.9988 154.817 51.4015 155.265 52.4432V52.7273H151.833ZM146.403 50.2237C147.429 50.2237 148.402 49.9574 149.321 49.4247C150.241 48.892 150.908 48.1996 151.32 47.3473V43.4055H148.755C144.746 43.4055 142.741 44.5833 142.741 46.9389C142.741 47.9687 143.083 48.7737 143.767 49.3537C144.451 49.9337 145.329 50.2237 146.403 50.2237Z"/>
<path d="M167.4 50.4013C168.568 50.4013 169.588 50.0462 170.46 49.3359C171.333 48.6257 171.817 47.7379 171.911 46.6726H175.007C174.948 47.7734 174.57 48.821 173.875 49.8153C173.179 50.8097 172.247 51.6027 171.08 52.1946C169.924 52.7865 168.697 53.0824 167.4 53.0824C164.794 53.0824 162.718 52.2124 161.173 50.4723C159.64 48.7204 158.874 46.3293 158.874 43.299V42.7486C158.874 40.8783 159.216 39.2152 159.9 37.7592C160.584 36.3033 161.563 35.1728 162.836 34.3679C164.122 33.563 165.637 33.1605 167.382 33.1605C169.529 33.1605 171.31 33.8056 172.725 35.0959C174.152 36.3861 174.912 38.0611 175.007 40.1207H171.911C171.817 38.8778 171.345 37.8598 170.496 37.0668C169.659 36.2618 168.621 35.8594 167.382 35.8594C165.72 35.8594 164.428 36.4631 163.508 37.6705C162.6 38.866 162.146 40.6001 162.146 42.8729V43.4943C162.146 45.7079 162.6 47.4124 163.508 48.608C164.416 49.8035 165.714 50.4013 167.4 50.4013Z"/>
<path d="M183.126 28.8636V33.5156H186.699V36.0547H183.126V47.9687C183.126 48.7382 183.285 49.3182 183.604 49.7088C183.922 50.0876 184.465 50.277 185.231 50.277C185.609 50.277 186.128 50.206 186.788 50.0639V52.7273C185.927 52.964 185.09 53.0824 184.276 53.0824C182.814 53.0824 181.711 52.6385 180.968 51.7507C180.225 50.8629 179.854 49.6023 179.854 47.9687V36.0547H176.369V33.5156H179.854V28.8636H183.126Z"/>
<path d="M45.3192 31.9625C49.73 31.9625 53.3058 35.533 53.3058 39.9377C53.3058 44.3422 49.73 47.9128 45.3192 47.9128C40.9083 47.9128 37.3325 44.3422 37.3325 39.9377C37.3325 35.533 40.9083 31.9625 45.3192 31.9625Z"/>
</svg>
