<svg width="200" height="180" viewBox="0 0 200 180" xmlns="http://www.w3.org/2000/svg">
<path clip-rule="evenodd" d="M151.368 60.4547C153.322 61.0187 155.219 61.6151 157.05 62.2454C176.116 68.8088 188.437 79.0897 188.437 89.7206C188.437 100.807 175.27 111.646 155.033 118.352C153.964 118.706 152.867 119.047 151.75 119.377C152.149 120.98 152.504 122.554 152.809 124.096C156.804 144.276 153.727 160.863 144.258 166.344C135.091 171.651 120.273 166.438 105.271 153.527C103.686 152.164 102.094 150.71 100.498 149.174C99.2675 150.363 98.039 151.498 96.8148 152.568C81.326 166.107 65.4196 171.725 55.9419 166.26C46.7661 160.967 43.8828 145.527 47.5749 126.082C47.9642 124.03 48.428 121.927 48.9612 119.78C47.3185 119.309 45.7244 118.813 44.1882 118.287C24.7218 111.634 11.9086 100.661 11.9086 89.7206C11.9086 79.128 23.8445 68.9159 42.5339 62.4C44.6228 61.672 46.806 60.9876 49.0674 60.3456C48.5731 58.361 48.1361 56.4091 47.7621 54.4977C43.89 34.7089 46.6146 18.8949 55.8149 13.5689C65.4096 8.01444 81.3882 13.9792 97.3294 28.1335C98.3023 28.9973 99.2776 29.9004 100.255 30.8349C101.721 29.4225 103.187 28.0748 104.65 26.8019C119.861 13.5645 134.922 8.02733 144.131 13.3379C153.735 18.8763 156.547 35.698 152.246 56.5788C151.984 57.8504 151.689 59.1441 151.368 60.4547ZM149.696 112.121C150.705 111.822 151.696 111.513 152.661 111.193C170.134 105.404 180.896 96.5449 180.896 89.7207C180.896 83.3141 170.931 74.9996 154.596 69.376C152.907 68.7944 151.154 68.2432 149.348 67.7207C147.177 74.7476 144.278 82.1722 140.757 89.7575C144.447 97.5278 147.462 105.049 149.696 112.121ZM146.26 148.858C147.43 142.551 147.177 134.484 145.411 125.56C145.135 124.167 144.815 122.743 144.455 121.29C137.144 122.98 129.081 124.218 120.547 124.975C115.695 131.999 110.724 138.323 105.75 143.763C107.236 145.194 108.718 146.545 110.189 147.811C123.019 158.852 134.916 163.038 140.479 159.817C143.094 158.304 145.208 154.526 146.26 148.858ZM59.7099 159.727C62.3268 161.236 66.6557 161.181 72.0911 159.261C78.1398 157.125 85.0033 152.877 91.8523 146.89C92.9678 145.915 94.0895 144.88 95.2157 143.793C90.0612 138.261 84.9464 131.944 80.0619 125.071C71.5076 124.377 63.5041 123.227 56.2727 121.628C55.7766 123.627 55.3461 125.584 54.9844 127.488C51.8268 144.118 54.1417 156.515 59.7099 159.727ZM26.0383 100.213C30.9109 104.386 38.0195 108.21 46.6272 111.152C48.0273 111.63 49.4825 112.084 50.9844 112.516C53.2151 105.246 56.1539 97.6139 59.6961 89.9042C56.1992 82.3073 53.3015 74.7947 51.0925 67.6091C48.9857 68.2077 46.9555 68.845 45.0162 69.5212C29.0328 75.0938 19.4495 83.2927 19.4495 89.7207C19.4495 92.7413 21.66 96.4638 26.0383 100.213ZM59.5931 20.0956C54.0487 23.305 51.8454 36.0949 55.1629 53.0495C55.5101 54.8245 55.917 56.6401 56.3764 58.488C63.6832 56.8327 71.6304 55.5966 79.9327 54.8271C84.7739 47.9947 89.8419 41.7248 94.9709 36.2175C94.0851 35.3716 93.2019 34.554 92.322 33.7729C78.558 21.5513 65.4988 16.6765 59.5931 20.0956ZM125.941 63.0238C127.769 65.8891 129.563 68.8349 131.309 71.852C133.093 74.9329 134.786 77.9981 136.388 81.0382C138.62 75.8118 140.516 70.7136 142.038 65.8376C136.97 64.6809 131.574 63.7358 125.941 63.0238ZM110.645 54.1477C107.219 49.5828 103.735 45.3754 100.257 41.6069C96.7242 45.4187 93.2107 49.6205 89.781 54.143C93.2122 53.9827 96.6818 53.8998 100.173 53.8998C103.697 53.8998 107.192 53.9846 110.645 54.1477ZM64.0226 81.0326C65.5987 77.9783 67.2609 74.9298 69.0058 71.9042V71.9036C70.7553 68.8698 72.5634 65.9023 74.4173 63.0106C68.8207 63.7091 63.4498 64.6307 58.4132 65.7578C59.9478 70.7029 61.8265 75.8244 64.0226 81.0326ZM58.3092 114.354C63.3445 115.45 68.7962 116.324 74.5784 116.969C72.6768 114.018 70.8242 110.992 69.0359 107.903H69.0356C67.2801 104.871 65.6113 101.821 64.0311 98.7689C61.7885 104.089 59.8683 109.32 58.3092 114.354ZM89.8444 125.655C93.3263 130.244 96.8914 134.51 100.466 138.366C103.92 134.562 107.391 130.29 110.829 125.619C107.328 125.775 103.771 125.856 100.173 125.856C96.6705 125.856 93.2245 125.788 89.8444 125.655ZM142.387 114.027C140.808 109.079 138.819 103.876 136.46 98.4978C134.845 101.61 133.138 104.733 131.339 107.851C129.562 110.933 127.753 113.93 125.92 116.834C131.743 116.135 137.269 115.194 142.387 114.027ZM116.339 117.747C119.215 113.436 122.048 108.868 124.807 104.084C127.563 99.3047 130.1 94.5201 132.392 89.7945C130.093 85.1488 127.55 80.412 124.782 75.6308C122.046 70.9028 119.196 66.3589 116.277 62.05C111.028 61.6497 105.638 61.441 100.173 61.441H100.172C94.7318 61.441 89.3483 61.6481 84.0983 62.045C81.134 66.3856 78.2649 70.9443 75.5387 75.6717L75.5393 75.6707C72.8204 80.3856 70.3101 85.1542 68.0301 89.9017C70.3107 94.6382 72.8276 99.4015 75.5623 104.125H75.5616C78.3035 108.861 81.1981 113.442 84.1901 117.81C89.3357 118.144 94.6793 118.315 100.173 118.315C105.689 118.315 111.1 118.122 116.339 117.747ZM144.86 55.0567C148.574 37.0285 146.275 23.2802 140.364 19.8712C134.814 16.6709 122.633 21.1488 109.601 32.4905C108.252 33.6648 106.897 34.9091 105.541 36.214C110.586 41.6506 115.613 47.9303 120.463 54.8377C128.79 55.6189 136.743 56.8764 144.067 58.5662C144.356 57.3788 144.623 56.2071 144.86 55.0567Z"/>
<path d="M100.173 73.9573C108.879 73.9573 115.936 81.0146 115.936 89.7207C115.936 98.4264 108.879 105.484 100.173 105.484C91.4671 105.484 84.4094 98.4264 84.4094 89.7207C84.4094 81.0146 91.4671 73.9573 100.173 73.9573Z"/>
</svg>
