<svg width="100" height="100" viewBox="0 0 100 100" fill="none" xmlns="http://www.w3.org/2000/svg">
<path d="M88.0001 17.5L90.25 15.25C91.75 13.75 91.75 11.5 90.25 10C88.75 8.5 86.5 8.5 85 10L82.5 12C73.75 4.5 62.5 0 50 0C40.75 0 32.25 2.5 24.75 6.75C23.5 5.75 21.75 5 20 5C15.75 5 12.5 8.25 12.5 12.5C12.5 13.75 12.75 15 13.5 16C4.99996 25 0 36.75 0 50C0 77.5 22.5 100 50 100C77.5 100 100 77.5 100 50C100 37.5 95.5001 26.25 88.0001 17.5ZM50 95C25.25 95 5 74.75 5 50C5 38.25 9.49992 27.5 16.9999 19.5C17.9999 20 19 20 20 20C24.25 20 27.5 16.75 27.5 12.5C27.5 12 27.5 11.5 27.25 11.25C34 7.25 41.75 5 50 5C61 5 71.25 9 79 15.75L71.9999 22.75C65.9999 18 58.25 15 50 15C30.75 15 15 30.75 15 50C15 59.75 19.0001 68.5 25.5001 75C25.2501 75.75 25 76.75 25 77.5C25 81.75 28.25 85 32.5 85C34.5 85 36.5 84.25 37.75 82.75C41.5 84.25 45.75 85 50 85C69.25 85 85 69.25 85 50C85 41.75 82 34 77.25 28L84.2501 21C91.0001 28.75 95 39 95 50C95 74.75 74.75 95 50 95ZM32.5 70C31 70 29.75 70.5 28.75 71C23.25 65.75 20 58.25 20 50C20 33.5 33.5 20 50 20C57 20 63.2499 22.5 68.2499 26.25L61 33.5C58.25 31.75 55.2501 30.5 51.7501 30.25C50.7501 27.25 48 25.25 44.75 25.25C40.5 25.25 37.25 28.5 37.25 32.75C37.25 33.25 37.25 34 37.5 34.5C33 38 30 43.5 30 50C30 61 39 70 50 70C61 70 70 61 70 50C70 45.75 68.75 42 66.5 38.75L73.75 31.5C77.75 36.5 80 43 80 49.75C80 66.25 66.5 79.75 50 79.75C46.5 79.75 43 79 40 78C40 77.75 40 77.5 40 77.25C40 73.25 36.75 70 32.5 70ZM65 50C65 58.25 58.25 65 50 65C41.75 65 35 58.25 35 50C35 45.25 37.2501 41.25 40.5001 38.5C41.7501 39.5 43.25 40 45 40C48.25 40 50.9999 38 51.9999 35.25C53.9999 35.5 56 36.25 57.5 37.25L47.25 47.5C45.75 49 45.75 51.25 47.25 52.75C48 53.5 49 53.75 50 53.75C51 53.75 52 53.5 52.75 52.75L63.0001 42.5C64.2501 44.75 65 47.25 65 50Z" fill="white"/>
</svg>
