<svg width="100" height="100" viewBox="0 0 100 100" fill="none" xmlns="http://www.w3.org/2000/svg">
<path fill-rule="evenodd" clip-rule="evenodd" d="M59.2448 38L71.42 71H60.62L57.98 63.26H42.08L39.44 71H38H4.61053H4.61057C12.5461 88.1232 29.8861 100 50 100C77.6142 100 100 77.6142 100 50C100 45.8635 99.4977 41.8442 98.5507 38H59.2448ZM55.9243 29H95.3895C87.4539 11.8768 70.1139 0 50 0C22.3858 0 0 22.3858 0 50C0 54.1365 0.502309 58.1558 1.44928 62H31.8405L44.06 28.88H55.88L55.9243 29ZM44.72 55.46H55.34L50 39.86L44.72 55.46Z"/>
</svg>
