<svg width="56" height="100" viewBox="0 0 56 100" fill="none" xmlns="http://www.w3.org/2000/svg">
<path d="M55.5556 33.6283C55.5556 32.7434 55.5556 31.8584 54.6595 30.9734C52.8674 25.6637 50.1792 20.354 47.4911 14.1593C43.9068 8.84956 40.3226 3.53982 35.8423 0C34.9462 0.884956 34.0502 1.76991 33.1541 3.53982C32.2581 5.30973 31.362 6.19467 30.4659 7.96461C30.4659 8.84956 30.4659 9.7345 30.4659 9.7345C30.4659 9.7345 28.6738 10.6194 25.9857 13.2743C24.1936 15.9292 20.6093 19.469 17.9212 23.0088C14.3369 27.4336 11.6487 30.9734 8.0645 36.2832C5.37634 40.7079 2.68817 45.1327 1.79212 48.6726C1.79212 49.5575 0.896056 50.4425 0.896056 52.2124C0 53.9823 0 54.8673 0 55.7522C0 57.5222 0.896056 60.1772 1.79212 62.8317C2.68817 66.3717 3.58423 69.0267 5.37634 72.5661C7.16844 75.2211 8.96055 78.7611 11.6487 82.3011C13.4408 85.8406 16.1291 88.4956 17.9212 91.1506C20.6093 93.8056 23.2975 95.575 25.0896 97.345C27.7778 99.115 30.4659 100 32.2581 100C34.9462 100 36.7383 99.115 37.6344 97.345C39.4265 95.575 41.2186 92.9206 43.0108 90.2656C43.9068 87.6106 45.6989 85.8406 46.595 82.3011C48.3871 79.6461 50.1792 77.8761 51.0753 76.1061L51.9713 74.3361C51.0753 75.2211 50.1792 76.1061 49.2832 76.9911C48.3871 78.7611 47.4911 79.6461 46.595 80.5311C45.6989 81.4161 43.9068 82.3011 43.0108 83.1861C42.1147 84.0706 40.3226 84.0706 38.5304 84.0706C35.8423 84.0706 32.2581 83.1861 28.6738 80.5311C25.9857 77.8761 23.2975 74.3361 20.6093 70.7967C17.9212 67.2567 16.1291 63.7167 14.3369 59.2922C13.4408 55.7522 12.5448 52.2124 12.5448 48.6726C12.5448 46.0177 12.5448 42.4779 13.4408 38.9381C14.3369 35.3982 16.1291 32.7434 17.9212 29.2036C18.8172 25.6637 21.5054 23.0088 23.2975 20.354C25.0896 17.6991 27.7778 15.0442 30.4659 13.2743L29.5699 14.1593C31.362 15.0442 34.0502 15.9292 35.8423 17.6991C38.5304 19.469 40.3226 21.2389 42.1147 23.8938C43.9068 25.6637 45.6989 27.4336 46.595 30.0885C48.3871 32.7434 48.3871 35.3982 48.3871 37.1682C48.3871 38.9381 48.3871 40.7079 47.4911 41.5929C46.595 43.3628 45.6989 44.2478 44.8029 45.1327C44.8029 46.9027 43.9068 47.7876 43.0108 49.5575C42.1147 50.4425 41.2186 52.2124 41.2186 53.9823V55.7522L43.0108 57.5222L44.8029 59.2922C45.6989 59.2922 45.6989 59.2922 46.595 59.2922C47.4911 59.2922 48.3871 59.2922 48.3871 58.4072C49.2832 58.4072 50.1792 57.5222 51.0753 56.6372C51.9713 56.6372 51.9713 55.7522 52.8674 54.8673L50.1792 53.9823C49.2832 54.8673 48.3871 55.7522 46.595 55.7522L44.8029 54.8673V53.0973C44.8029 51.3274 45.6989 49.5575 46.595 47.7876C47.4911 46.0177 48.3871 44.2478 50.1792 43.3628C51.0753 41.5929 52.8674 39.823 53.7634 38.0531C54.6595 37.1682 55.5556 35.3982 55.5556 33.6283ZM38.5304 32.7434V31.8584H37.6344C34.9462 30.9734 32.2581 31.8584 29.5699 33.6283C27.7778 35.3982 25.9857 37.1682 24.1936 39.823C22.4014 42.4779 21.5054 45.1327 20.6093 48.6726C19.7133 51.3274 19.7133 53.9823 19.7133 56.6372C19.7133 61.9467 21.5054 67.2567 24.1936 71.6817C27.7778 76.1061 31.362 79.6461 35.8423 82.3011L37.6344 80.5311C33.1541 77.8761 30.4659 75.2211 27.7778 70.7967C25.0896 66.3717 24.1936 62.8317 24.1936 57.5222C24.1936 55.7522 24.1936 53.9823 24.1936 51.3274C25.0896 48.6726 25.9857 46.9027 26.8817 44.2478C27.7778 42.4779 28.6738 40.7079 30.4659 38.9381C32.2581 38.0531 34.0502 37.1682 36.7383 36.2832L38.5304 34.5133V32.7434Z" fill="white"/>
</svg>
