<svg width="100" height="100" viewBox="0 0 100 100" fill="none" xmlns="http://www.w3.org/2000/svg">
<path d="M93.7609 23.6443C98.0647 31.5377 100.217 40.4901 99.9828 49.4905C100.17 58.6835 97.9712 67.7321 93.7141 75.7699C89.6441 83.3265 83.5157 89.5354 76.0775 93.5783C59.6105 101.953 40.2898 102.001 23.776 93.6746C16.4313 89.6798 10.3497 83.519 6.27973 76.0106C2.02263 67.9728 -0.176098 58.876 0.0110272 49.7312C-0.129317 40.5863 2.02262 31.5859 6.37329 23.6443C10.4433 16.2321 16.5248 10.2158 23.8695 6.22092C31.9159 1.93728 40.8979 -0.18048 49.9735 0.0120432C59.0491 -0.18048 68.0311 1.98541 76.1243 6.22092C83.5157 10.1676 89.6441 16.2321 93.7609 23.6443ZM83.0947 64.0742C88.1939 60.4643 91.2814 54.448 91.3282 48.0466C91.375 43.8111 90.0183 39.72 87.5389 36.3508C87.305 36.0139 87.1647 35.6288 87.1647 35.2438C87.0243 27.591 81.8316 20.9971 74.5805 19.2644C74.1127 19.1681 73.6449 18.8312 73.411 18.398C71.3526 14.7882 67.5633 12.5742 63.4933 12.5742C57.1778 12.5742 52.0319 17.8686 52.0319 24.3662V24.4625C52.0319 24.5106 52.0319 24.7031 52.0319 24.7031C52.0319 24.8475 52.0319 24.9438 52.0319 25.0401V79.2354C52.3126 80.3424 52.7336 81.3531 53.3418 82.2676C55.5405 85.6368 59.704 86.9844 63.4933 86.9844C67.9376 86.9363 71.914 84.3372 73.832 80.198C74.0659 79.7648 74.4402 79.3798 74.908 79.2354C80.241 77.3583 83.4222 71.727 82.3462 65.9994C82.2059 65.2293 82.4866 64.5073 83.0947 64.0742ZM36.7344 87.2732L36.594 87.3695C40.4769 87.3695 44.8276 85.9256 47.0263 82.2676C47.5409 81.4013 47.9151 80.4868 48.149 79.5241V25.3289C48.149 25.1845 48.149 25.0882 48.149 24.9919C48.149 24.9438 48.149 24.7513 48.149 24.7513V24.655C48.149 22.1522 47.3538 19.6975 45.9035 17.6761C45.0147 16.3765 43.8452 15.3176 42.4885 14.4994C37.0619 11.2265 30.0447 13.1036 26.8635 18.6868C26.6296 19.12 26.2086 19.4569 25.694 19.5532C18.4429 21.2859 13.2501 27.8798 13.1098 35.5326C13.1098 35.9176 12.9695 36.3027 12.7356 36.6396C10.2561 40.0087 8.94627 44.0999 8.94627 48.3354C8.94627 54.7368 12.0338 60.705 17.133 64.3629C17.7412 64.7961 18.0218 65.5662 17.8815 66.2882C16.8055 71.9676 19.9867 77.647 25.3197 79.5241C25.7876 79.6685 26.1618 80.0536 26.3957 80.4868C28.3137 84.5779 32.2902 87.2251 36.7344 87.2732ZM28.3137 39.1905C28.4541 37.6503 28.8751 36.1583 29.5301 34.8588C27.612 35.7251 25.5536 36.1583 23.4953 36.1583H23.4017C22.7935 36.1583 22.1386 36.1583 21.5304 36.062C20.548 35.9176 19.7995 35.0031 19.9399 33.9443C20.0802 32.9335 20.9691 32.1634 21.9983 32.3078C28.6412 33.0779 34.6292 28.2167 35.4713 21.3821C35.4713 21.1896 35.5649 21.0452 35.6116 20.9008C35.9391 20.0826 36.6876 19.6013 37.5297 19.6975C37.6232 19.6975 37.7168 19.7457 37.8104 19.7938C38.6524 20.0826 39.2138 20.9008 39.1202 21.8153C38.8395 24.4144 37.9507 26.869 36.5005 29.0349C38.091 28.5055 39.7284 28.3611 41.3657 28.5536C42.3481 28.698 43.0967 29.6125 42.9563 30.6714C42.816 31.6821 41.9271 32.4522 40.8979 32.3078C36.4537 31.7784 32.3837 35.0513 31.8691 39.6237C31.7756 40.5863 30.9803 41.3083 30.0447 41.3083H29.9511H29.9043C28.9219 41.1639 28.1734 40.2494 28.3137 39.1905ZM44.2662 69.898H44.3597C45.2486 70.4274 45.5761 71.5826 45.0615 72.4971C44.5469 73.4115 43.4241 73.7485 42.5353 73.219C38.746 71.005 34.0211 72.0157 31.3545 75.5293C31.0738 75.8662 30.8399 76.2031 30.606 76.5882C30.0914 77.5027 28.9687 77.8396 28.0798 77.3101C27.191 76.7807 26.8635 75.6256 27.3781 74.7111C27.7991 73.9891 28.267 73.3153 28.7816 72.6896C29.9979 71.1975 31.5884 70.0424 33.3193 69.2723C33.7404 68.6947 33.9275 68.0209 33.8807 67.2989C33.8339 66.5288 33.4597 65.855 32.8983 65.3737C32.103 64.6999 32.0095 63.5447 32.6644 62.7265C33.3193 61.9083 34.4421 61.812 35.2374 62.4858C36.5473 63.5929 37.3425 65.2293 37.4829 66.962C37.5297 67.3952 37.5297 67.8284 37.4829 68.2615C39.8687 68.1653 42.2078 68.6947 44.2662 69.898ZM19.2382 54.833C20.127 55.3625 20.4545 56.5176 19.8931 57.4321C19.3785 58.3466 18.2558 58.6835 17.3669 58.1541C12.9695 55.555 11.4257 49.8274 13.9051 45.3031C14.4197 44.3887 15.5424 44.0517 16.4313 44.5812C17.3201 45.1106 17.6476 46.2658 17.133 47.1802C15.6828 49.8756 16.6184 53.2929 19.2382 54.833ZM77.8552 31.9709C78.8376 31.8265 79.7732 32.5485 79.8668 33.7036C80.0071 34.7625 79.3054 35.677 78.2762 35.8214C77.6213 35.8695 77.0131 35.9176 76.405 35.9176C74.3466 35.9176 72.2414 35.4363 70.3234 34.6181C71.0251 35.9176 71.4929 37.4097 71.6801 38.9017V38.9499C71.7736 40.0087 71.0719 40.9232 70.0427 41.0195H69.8088C68.8732 41.0195 68.0779 40.2975 67.9843 39.3349C67.4697 34.7625 63.3998 31.4896 58.9555 32.019C57.9263 32.1634 57.0375 31.4415 56.8972 30.3826C56.7568 29.3237 57.4585 28.4092 58.4877 28.2648C60.0783 28.0723 61.7624 28.2167 63.3062 28.698C61.856 26.5321 60.9671 24.0775 60.6864 21.4784C60.6397 20.7564 60.9671 20.0345 61.5753 19.6494C61.8092 19.505 62.0431 19.4088 62.3238 19.3606H62.3706C63.3998 19.2644 64.2886 19.9863 64.3822 21.0452C64.7564 24.3181 66.3938 27.3503 68.92 29.3718C71.4462 31.4415 74.6741 32.356 77.8552 31.9709ZM71.3994 72.6414C71.8672 73.219 72.2414 73.8447 72.6157 74.4223C73.1303 75.3368 72.8028 76.4919 71.914 77.0213C71.0251 77.5508 69.9024 77.2139 69.3878 76.2994C69.2006 76.0106 69.0135 75.7699 68.8264 75.4812C67.7504 73.8447 66.2066 72.6414 64.3822 72.0639C63.8208 72.2564 63.2126 72.112 62.7448 71.727C60.9203 71.5344 59.0959 71.9195 57.5053 72.834C56.6165 73.3634 55.4937 73.0265 54.9791 72.112C54.4645 71.1975 54.792 70.0424 55.6808 69.5129C57.3182 68.5985 59.0959 68.0209 60.9671 67.9246C60.9204 67.4914 60.9204 67.0583 60.9671 66.6251C61.1075 64.8924 61.9028 63.2559 63.2126 62.1489C63.9611 61.4751 65.1307 61.5714 65.7856 62.3896C66.4405 63.1597 66.347 64.3629 65.5517 65.0368C64.9903 65.5181 64.6161 66.1919 64.5693 66.962C64.5693 67.4433 64.6161 67.8765 64.8032 68.3097C67.3762 68.9835 69.7152 70.5237 71.3994 72.6414ZM83.469 44.3405C84.311 43.8111 85.4338 44.148 85.9484 45.0144C88.4278 49.5868 86.884 55.3144 82.4866 57.8653C81.5977 58.3947 80.475 58.0578 79.9604 57.1433C79.4458 56.2288 79.7732 55.0737 80.6621 54.5443C83.3286 53.0522 84.2642 49.5868 82.7672 46.8915C82.2994 46.0251 82.5801 44.87 83.469 44.3405Z" fill="white"/>
</svg>
