<svg width="72" height="100" viewBox="0 0 72 100" fill="none" xmlns="http://www.w3.org/2000/svg">
<path fill-rule="evenodd" clip-rule="evenodd" d="M65.2051 0H4.94067V32.4744C9.76029 29.8175 18.2027 26.0255 25.1245 24.5079C25.225 24.4862 25.3269 24.4643 25.4301 24.442C29.3431 23.5975 35.2074 22.3318 40.2492 25.7286C43.3643 22.2448 47.3354 20.5172 49.0708 19.9713C50.6811 19.4632 51.911 19.7147 52.6693 20.6475C55.4026 24.0232 51.9058 24.6486 50.6134 23.3952C50.13 22.9353 49.02 23.4252 48.5314 23.8043C48.4674 23.8516 48.4015 23.9001 48.3339 23.9499C46.8787 25.0216 44.6314 26.6767 43.1598 28.7447C44.1343 30.6716 47.4956 37.3513 38.3067 46.3826C39.6655 55.2655 45.8918 54.3613 47.5764 53.8141C52.1477 52.3575 58.5699 47.3846 65.2051 40.8513V0ZM71.121 40.0981C70.9708 40.3792 70.7626 40.67 70.4883 40.9641C62.167 49.8665 53.1239 55.7618 47.8487 57.0243C42.5787 58.2737 37.7282 57.32 35.288 49.3675C35.2919 49.3662 34.0737 50.5947 32.5038 51.7608C32.0022 52.123 31.9292 52.3588 32.6289 53.0506C38.4769 58.9284 40.1226 64.8569 40.7134 66.9852C40.7432 67.0925 40.7703 67.1902 40.7951 67.2777C41.5208 69.813 41.8608 71.9562 41.9169 73.3346C42.1058 77.3122 39.7137 77.4894 37.1224 75.4804C36.3342 74.8837 33.804 72.2702 32.1989 68.7577C31.4589 67.1214 29.1099 60.4026 28.3516 57.1663C28.062 55.8624 27.7993 55.7797 27.4652 55.6746C27.365 55.6431 27.2583 55.6095 27.1426 55.5404C26.3205 55.0544 25.4984 53.8558 26.043 52.7418C26.1255 52.5736 26.2224 52.447 26.3044 52.3397C26.5669 51.9966 26.6784 51.8508 25.6899 51.1719C21.1457 47.9855 15.4027 45.9055 12.9921 45.0324C12.5276 44.8642 12.1868 44.7408 12.0022 44.6629C11.8141 44.5875 11.4658 44.4623 11.0056 44.2969C8.65155 43.4509 3.36897 41.5523 1.6133 39.8762C0.969165 39.2701 0.522231 38.7052 0.264789 38.1678C-0.337347 39.3325 0.0772659 40.5428 1.6133 41.9881C2.30578 42.6484 3.54694 43.3436 4.94067 43.9954V100H65.2051V48.2594C66.9703 46.6729 68.7452 44.9393 70.4883 43.0734C71.5883 41.8967 71.6251 40.7736 71.121 40.0981ZM25.3069 27.7558C28.4819 26.9285 35.129 25.5097 38.2741 28.2561C38.2741 28.2561 32.5728 35.0153 34.4086 44.7619C33.9041 45.5172 32.7109 46.5111 31.7412 47.3189C31.4212 47.5854 31.1255 47.8317 30.887 48.0425C30.8676 48.0611 30.8478 48.0805 30.8276 48.1003C30.5294 48.3923 30.1432 48.7706 29.8186 47.9799C29.2584 46.5794 28.1588 45.5423 25.5766 47.0549C25.0377 46.7608 23.278 45.7719 21.7368 44.9058C20.6287 44.2831 19.6335 43.7238 19.2864 43.532C18.4669 43.0969 13.7337 41.3563 11.3143 40.5224C9.19984 39.7785 7.92658 39.2467 6.08052 38.4756C5.83477 38.3729 5.57887 38.2661 5.30948 38.1539C3.0838 37.2108 4.87298 36.3221 6.08914 35.718C6.35658 35.5851 6.59632 35.466 6.75955 35.3632C7.95296 34.6258 11.343 33.0076 12.3501 32.6337C12.438 32.598 12.6377 32.5124 12.9285 32.3877C14.9523 31.5199 21.3905 28.7594 25.3069 27.7558ZM40.812 31.5276C38.7614 34.1476 37.5979 39.0724 37.766 41.1647C42.3103 35.8543 40.812 31.5276 40.812 31.5276ZM36.5517 69.6176C35.5238 67.9799 32.6784 61.4058 32.096 57.6093C32.096 57.6093 35.6736 60.6475 37.2058 65.528C39.7984 73.7164 36.8696 70.1387 36.5517 69.6176Z"/>
</svg>
