<svg width="100" height="100" viewBox="0 0 100 100" fill="none" xmlns="http://www.w3.org/2000/svg">
<path d="M50 0C77.6146 0 100 22.3854 100 50C100 77.6146 77.6146 100 50 100C22.3854 100 2.38419e-06 77.6146 2.38419e-06 50C2.38419e-06 22.3854 22.3854 0 50 0ZM23.076 66.8771C22.6156 66.1448 21.65 65.9281 20.9218 66.3844C20.1916 66.8437 19.9707 67.8083 20.4291 68.5385C26.8645 78.7812 37.9188 84.8958 50 84.8958C50.8625 84.8958 51.5625 84.1958 51.5625 83.3333C51.5625 82.4708 50.8625 81.7708 50 81.7708C39 81.7708 28.9343 76.2031 23.076 66.8771ZM85.4708 29.6875C85.752 29.6875 86.0355 29.6125 86.2917 29.4542C87.025 29 87.2531 28.0375 86.7989 27.3031C78.8531 14.4469 65.0958 6.77083 50 6.77083C49.1375 6.77083 48.4375 7.47083 48.4375 8.33333C48.4375 9.19583 49.1375 9.89583 50 9.89583C64.0052 9.89583 76.7677 17.0177 84.1396 28.9469C84.4365 29.425 84.9479 29.6875 85.4708 29.6875ZM76.924 33.1229C77.2209 33.5958 77.7291 33.8542 78.2479 33.8542C78.5323 33.8542 78.8198 33.7771 79.0782 33.6156C79.8084 33.1562 80.0293 32.1917 79.5709 31.4615C73.1355 21.2187 62.0813 15.1042 50 15.1042C49.1375 15.1042 48.4375 15.8042 48.4375 16.6667C48.4375 17.5292 49.1375 18.2292 50 18.2292C61 18.2292 71.0657 23.7969 76.924 33.1229ZM69.7917 50C69.7917 39.0698 60.9302 30.2083 50 30.2083C39.0708 30.2083 30.2083 39.0698 30.2083 50C30.2083 60.9292 39.0708 69.7917 50 69.7917C60.9302 69.7917 69.7917 60.9292 69.7917 50ZM50 93.2292C50.8625 93.2292 51.5625 92.5292 51.5625 91.6667C51.5625 90.8042 50.8625 90.1042 50 90.1042C35.9948 90.1042 23.2323 82.9823 15.8604 71.0531C15.4052 70.3177 14.4437 70.0948 13.7093 70.5458C12.976 71 12.7479 71.9625 13.2021 72.6969C21.1469 85.5531 34.9042 93.2292 50 93.2292ZM45.8333 50C45.8333 47.699 47.699 45.8333 50 45.8333C52.301 45.8333 54.1667 47.699 54.1667 50C54.1667 52.301 52.301 54.1667 50 54.1667C47.699 54.1667 45.8333 52.301 45.8333 50Z" fill="white"/>
</svg>
