<svg width="100" height="100" viewBox="0 0 100 100" fill="none" xmlns="http://www.w3.org/2000/svg">
<path d="M50 0C22.5 0 0 22.5 0 50C0 77.5 22.5 100 50 100C77.5 100 100 77.5 100 50C100 22.5 77.5 0 50 0ZM22.1429 77.8571C14.6429 70.3571 10.7143 60.3571 10.7143 50.7143L49.6429 89.2857C39.6429 88.9286 29.6429 85.3571 22.1429 77.8571ZM58.5714 88.2143L11.7857 41.4286C15.7143 23.9286 31.4286 10.7143 50 10.7143C63.2143 10.7143 74.6428 17.1429 81.7857 26.7857L76.4286 31.4286C70.3572 23.2143 60.7143 17.8571 50 17.8571C36.0714 17.8571 24.2858 26.7857 19.6429 39.2857L60.7143 80.3571C71.0715 76.7857 78.9286 67.8571 81.4286 57.1429H64.2857V50H89.2857C89.2857 68.5714 76.0714 84.2857 58.5714 88.2143Z"/>
</svg>
