<svg width="100" height="100" viewBox="0 0 100 100" fill="none" xmlns="http://www.w3.org/2000/svg">
<path fill-rule="evenodd" clip-rule="evenodd" d="M50 100C22.3858 100 0 77.6142 0 50C0 22.3858 22.3858 0 50 0C77.6142 0 100 22.3858 100 50C100 77.6142 77.6142 100 50 100ZM39.95 63.05C39.65 63.05 39.4667 63.0333 39.4 63L38.9 62.5C38.4333 62.6 37.55 62.65 36.25 62.65H35.05C31.7833 62.65 28.55 62.525 25.35 62.275C22.15 62.025 20.3333 61.65 19.9 61.15C19.6333 60.85 19.4417 60.4833 19.325 60.05C19.2083 59.6167 19.15 59.1833 19.15 58.75C19.15 57.05 19.4667 54.4833 20.1 51.05C20.6333 48.25 21.1833 45.3833 21.75 42.45C22.3167 39.5167 22.6 37.0167 22.6 34.95C22.6 34.6833 22.6167 34.4 22.65 34.1V33.7C22.65 33.5667 22.4667 33.3167 22.1 32.95H21.65C20.5167 36.8167 19.5417 41.375 18.725 46.625C17.9083 51.875 17.5 56.35 17.5 60.05C17.5 62.75 18.8 64.1 21.4 64.1C22.7667 64.1 24.8167 64.1667 27.55 64.3C30.2833 64.4333 32.3333 64.5 33.7 64.5C34.9333 64.5 36.0583 64.3917 37.075 64.175C38.0917 63.9583 39.05 63.5833 39.95 63.05ZM83.35 62.2C83.35 60.7 82.6583 57.6834 81.275 53.15C79.8917 48.6166 78.3667 44.3834 76.7 40.45C74.8 36.0166 73.2333 33.3667 72 32.5C70.8667 34.1 69.6 36.3 68.2 39.1C66.2333 43.1 65.0833 45.3833 64.75 45.95C63.35 48.4167 61.8667 50.4333 60.3 52C58.9333 45.2333 58.0667 41.35 57.7 40.35C56.8 37.85 55.6333 35.8833 54.2 34.45C52.5333 38.2834 51.35 41.0167 50.65 42.65C48.8167 46.9834 47.2333 50.85 45.9 54.25C44.3 58.3834 43.5 60.8333 43.5 61.6C43.5 62.9333 43.85 64.05 44.55 64.95C45.15 63.2833 46.1 60.4 47.4 56.3C48.7 52.2 49.7333 49.1833 50.5 47.25C51.7667 44.1167 53.1667 41.35 54.7 38.95C56.2333 45.15 57.7667 51.3333 59.3 57.5C61.1333 56.0667 62.7333 53.7667 64.1 50.6C65.2 47.8333 66.3 45.05 67.4 42.25C68.8 39.15 70.5 36.9 72.5 35.5C73.2 36.9333 74.2667 40.0666 75.7 44.9C77.5333 51.1 78.7667 55.15 79.4 57.05C80.8 61.1834 81.9 63.5 82.7 64C82.8667 63.7 83.0167 63.3917 83.15 63.075C83.2833 62.7583 83.35 62.4667 83.35 62.2Z"/>
</svg>
