<?xml version="1.0" encoding="UTF-8"?>
<svg width="100px" height="100px" viewBox="0 0 100 100" version="1.1" xmlns="http://www.w3.org/2000/svg" xmlns:xlink="http://www.w3.org/1999/xlink">
    <!-- Generator: Sketch 52.6 (67491) - http://www.bohemiancoding.com/sketch -->
    <title>favicon</title>
    <desc>Created with Sketch.</desc>
    <g id="Logo-and-icons" stroke="none" stroke-width="1" fill-rule="evenodd">
        <g id="Material" transform="translate(-320.000000, -99.000000)">
            <path d="M370,199 C342.385763,199 320,176.614237 320,149 C320,121.385763 342.385763,99 370,99 C397.614237,99 420,121.385763 420,149 C420,176.614237 397.614237,199 370,199 Z M373.157885,165.813916 L375.154598,165.813916 L368.122693,132 L356.055596,161.777081 L344.031906,132 L337,165.813916 L338.996714,165.813916 L344.596194,138.728058 L344.683008,138.728058 L356.055596,166.899087 L367.471591,138.728058 L367.558404,138.728058 L373.157885,165.813916 Z M396.640976,155.049024 L401.025066,165.813916 L403.152,165.813916 L389.47885,132 L375.762294,165.813916 L377.889228,165.813916 L382.273318,155.049024 L396.640976,155.049024 Z M395.859654,153.095717 L383.05464,153.095717 L389.47885,137.295633 L395.859654,153.095717 Z" id="favicon"></path>
        </g>
    </g>
</svg>