<svg width="100" height="100" viewBox="0 0 100 100" fill="none" xmlns="http://www.w3.org/2000/svg">
<path fill-rule="evenodd" clip-rule="evenodd" d="M50 100C22.3858 100 0 77.6142 0 50C0 22.3858 22.3858 0 50 0C77.6142 0 100 22.3858 100 50C100 77.6142 77.6142 100 50 100ZM53.1579 66.8139H55.1546L48.1227 33L36.0556 62.7771L24.0319 33L17 66.8139H18.9967L24.5962 39.7281H24.683L36.0556 67.8991L47.4716 39.7281H47.5584L53.1579 66.8139ZM76.641 56.049L81.0251 66.8139H83.152L69.4789 33L55.7623 66.8139H57.8892L62.2733 56.049H76.641ZM75.8596 54.0957H63.0546L69.4789 38.2956L75.8596 54.0957Z" fill="white"/>
</svg>
