<svg width="100" height="100" viewBox="0 0 100 100" fill="none" xmlns="http://www.w3.org/2000/svg">
<path fill-rule="evenodd" clip-rule="evenodd" d="M100 0H0V100H100V0ZM43.8178 19L49.6532 47.7284L49.2225 48.1539L19.7086 19H43.8178ZM78.7362 19H55.6197L49.8172 47.5664L78.7362 19ZM80.1147 19L49.9116 48.8348L64.2533 63.0016L67.6406 47.6595V66.3475L82.4739 81H89.4374V19H80.1147ZM67.6406 67.7092L81.0955 81H67.6406V67.7092ZM49.2224 49.5156L36.06 62.5175L40.6206 81H60.2797L64.0066 64.1195L49.2224 49.5156ZM32.2812 66.2502L17.3493 81H32.2812V66.2502ZM18.3301 19L48.5332 48.8348L35.7899 61.4227L32.2812 47.2036V64.8885L15.9708 81H10V19H18.3301Z" fill="white"/>
</svg>
