<svg width="100" height="79" viewBox="0 0 100 79" fill="none" xmlns="http://www.w3.org/2000/svg">
<path d="M49.9175 36.1648L42.5715 0H12.2216L49.3752 36.7005L49.9175 36.1648Z"/>
<path d="M86.5288 0H57.4285L50.124 35.9609L86.5288 0Z"/>
<path d="M50.2428 37.5576L88.2641 0H100V78.0488H91.234L72.561 59.6035V36.078L68.2969 55.3915L50.2428 37.5576Z"/>
<path d="M72.561 61.3177L89.4987 78.0488H72.561V61.3177Z"/>
<path d="M32.8057 54.7821L49.3752 38.4146L67.9863 56.7988L63.2947 78.0488H38.5468L32.8057 54.7821Z"/>
<path d="M28.0488 59.481L9.25174 78.0488H28.0488V59.481Z"/>
<path d="M48.5075 37.5576L10.4863 0H0V78.0488H7.5164L28.0488 57.7668V35.5042L32.4656 53.4039L48.5075 37.5576Z"/>
</svg>
