<?xml version="1.0" encoding="UTF-8"?>
<svg width="30px" height="30px" viewBox="0 0 30 30" version="1.1" xmlns="http://www.w3.org/2000/svg" xmlns:xlink="http://www.w3.org/1999/xlink">
    <!-- Generator: Sketch 52.6 (67491) - http://www.bohemiancoding.com/sketch -->
    <title>approximity-logo</title>
    <desc>Created with Sketch.</desc>
    <g id="Prototype" stroke="none" stroke-width="1" fill="none" fill-rule="evenodd">
        <g id="Home" transform="translate(-1270.000000, -1208.000000)" fill="#000000" fill-rule="nonzero">
            <g id="card" transform="translate(140.000000, 1168.000000)">
                <g id="card-top" transform="translate(600.000000, 40.000000)">
                    <path d="M556.4,5.25 L557.075,4.575 C557.525,4.125 557.525,3.45 557.075,3 C556.625,2.55 555.95,2.55 555.5,3 L554.75,3.6 C552.125,1.35 548.75,0 545,0 C542.225,0 539.675,0.75 537.425,2.025 C537.05,1.725 536.525,1.5 536,1.5 C534.725,1.5 533.75,2.475 533.75,3.75 C533.75,4.125 533.825,4.5 534.05,4.8 C531.5,7.5 530,11.025 530,15 C530,23.25 536.75,30 545,30 C553.25,30 560,23.25 560,15 C560,11.25 558.65,7.875 556.4,5.25 Z M545,28.5 C537.575,28.5 531.5,22.425 531.5,15 C531.5,11.475 532.85,8.25 535.1,5.85 C535.4,6 535.7,6 536,6 C537.275,6 538.25,5.025 538.25,3.75 C538.25,3.6 538.25,3.45 538.175,3.375 C540.2,2.175 542.525,1.5 545,1.5 C548.3,1.5 551.375,2.7 553.7,4.725 L551.6,6.825 C549.8,5.4 547.475,4.5 545,4.5 C539.225,4.5 534.5,9.225 534.5,15 C534.5,17.925 535.7,20.55 537.65,22.5 C537.575,22.725 537.5,23.025 537.5,23.25 C537.5,24.525 538.475,25.5 539.75,25.5 C540.35,25.5 540.95,25.275 541.325,24.825 C542.45,25.275 543.725,25.5 545,25.5 C550.775,25.5 555.5,20.775 555.5,15 C555.5,12.525 554.6,10.2 553.175,8.4 L555.275,6.3 C557.3,8.625 558.5,11.7 558.5,15 C558.5,22.425 552.425,28.5 545,28.5 Z M539.75,21 C539.3,21 538.925,21.15 538.625,21.3 C536.975,19.725 536,17.475 536,15 C536,10.05 540.05,6 545,6 C547.1,6 548.975,6.75 550.475,7.875 L548.3,10.05 C547.475,9.525 546.575,9.15 545.525,9.075 C545.225,8.175 544.4,7.575 543.425,7.575 C542.15,7.575 541.175,8.55 541.175,9.825 C541.175,9.975 541.175,10.2 541.25,10.35 C539.9,11.4 539,13.05 539,15 C539,18.3 541.7,21 545,21 C548.3,21 551,18.3 551,15 C551,13.725 550.625,12.6 549.95,11.625 L552.125,9.45 C553.325,10.95 554,12.9 554,14.925 C554,19.875 549.95,23.925 545,23.925 C543.95,23.925 542.9,23.7 542,23.4 C542,23.325 542,23.25 542,23.175 C542,21.975 541.025,21 539.75,21 Z M549.5,15 C549.5,17.475 547.475,19.5 545,19.5 C542.525,19.5 540.5,17.475 540.5,15 C540.5,13.575 541.175,12.375 542.15,11.55 C542.525,11.85 542.975,12 543.5,12 C544.475,12 545.3,11.4 545.6,10.575 C546.2,10.65 546.8,10.875 547.25,11.175 L544.175,14.25 C543.725,14.7 543.725,15.375 544.175,15.825 C544.4,16.05 544.7,16.125 545,16.125 C545.3,16.125 545.6,16.05 545.825,15.825 L548.9,12.75 C549.275,13.425 549.5,14.175 549.5,15 Z" id="approximity-logo"></path>
                </g>
            </g>
        </g>
    </g>
</svg>