<?xml version="1.0" encoding="UTF-8"?>
<svg width="100px" height="100px" viewBox="0 0 100 100" version="1.1" xmlns="http://www.w3.org/2000/svg" xmlns:xlink="http://www.w3.org/1999/xlink">
    <!-- Generator: Sketch 52.6 (67491) - http://www.bohemiancoding.com/sketch -->
    <title>aurei_logo_2.1</title>
    <desc>Created with Sketch.</desc>
    <g id="Page-1" stroke="none" stroke-width="1" fill="none" fill-rule="evenodd">
        <g id="Logo-doodles" transform="translate(-171.000000, -330.000000)" fill="#CFAD68">
            <path d="M211.755214,368 L199.58,401 L210.38,401 L213.02,393.26 L228.92,393.26 L231.56,401 L233,401 L266.389459,401 L266.389447,401.000002 C258.453876,418.123199 241.113926,430 221,430 C193.385763,430 171,407.614237 171,380 C171,375.863453 171.502322,371.844229 172.449293,368 L211.755214,368 Z M215.075726,359 L175.610552,359 C183.546122,341.876802 200.886073,330 221,330 C248.614237,330 271,352.385763 271,380 C271,384.136547 270.497678,388.155771 269.550707,392 L239.159487,392 L226.94,358.88 L215.12,358.88 L215.075726,359 Z M226.28,385.46 L215.66,385.46 L221,369.86 L226.28,385.46 Z" id="aurei_logo_2.1" transform="translate(221.000000, 380.000000) scale(-1, 1) translate(-221.000000, -380.000000) "></path>
        </g>
    </g>
</svg>