<svg width="100" height="66" viewBox="0 0 100 66" fill="none" xmlns="http://www.w3.org/2000/svg">
  <style>
    path {
      fill: #000000;
    }
    @media (prefers-color-scheme: dark) {
      path {
        fill: #ffffff;
      }
    }
  </style>
  <path fill-rule="evenodd" clip-rule="evenodd" d="M79.2829 35.1048L88.8979 32.5496C89.6799 32.8825 90.4062 33.2132 91.0768 33.5417C93.558 34.7569 95.6655 36.5798 97.3993 39.0104C99.1331 41.441 100 44.6614 100 48.6719C100 51.5886 99.3274 54.3381 97.9822 56.9206C96.637 59.5031 94.5594 61.5994 91.7494 63.2096C88.9395 64.8199 85.442 65.625 81.2569 65.625C77.1914 65.625 73.5743 64.8655 70.4056 63.3464C67.2369 61.8272 64.711 59.7461 62.8277 57.1029C60.9444 54.4596 59.8533 51.4974 59.5544 48.2161H66.1907C66.4298 50.0998 67.1174 51.9835 68.2533 53.8672C69.3893 55.7509 71.0334 57.3155 73.1857 58.5612C75.338 59.8069 77.9387 60.4297 80.9879 60.4297C84.9936 60.4297 88.0576 59.3359 90.18 57.1484C92.3025 54.9609 93.3637 52.1962 93.3637 48.8542C93.3637 45.9982 92.6612 43.6741 91.2562 41.8815C89.8512 40.089 88.1174 38.7066 86.0548 37.7344C84.3303 36.9215 82.073 36.045 79.2829 35.1048ZM71.6274 32.4273C70.2833 31.8938 69.0839 31.369 68.0291 30.8529C65.6077 29.668 63.5601 27.921 61.886 25.612C60.212 23.3029 59.375 20.2344 59.375 16.4062C59.375 11.5451 61.049 7.5955 64.3971 4.55729C67.7451 1.51908 72.3487 0 78.2078 0C84.1865 0 88.9245 1.4887 92.422 4.46615C95.9196 7.44359 97.9971 11.1502 98.6548 15.5859H91.9288C91.3907 12.8515 89.9708 10.421 87.669 8.29427C85.3672 6.16752 82.2135 5.10417 78.2078 5.10417C74.501 5.10417 71.5416 6.07638 69.3295 8.02083C67.1174 9.96529 66.0113 12.6693 66.0113 16.1328C66.0113 18.8672 66.6988 21.0851 68.0739 22.7865C69.449 24.4879 71.138 25.7943 73.1409 26.7057C75.1437 27.6172 77.8789 28.6502 81.3466 29.8047C81.3692 29.8119 81.3918 29.8191 81.4145 29.8263L71.6274 32.4273ZM27.1745 8.33357L6.65171 64.5833H0L23.0593 2.08333H30.0657L53.125 64.5833H46.3846L27.1745 8.33357Z"/>
</svg>
