<svg width="93" height="60" viewBox="0 0 93 60" fill="none" xmlns="http://www.w3.org/2000/svg">
  <path d="M24.6 8.61L6.15 58.466H0L21.32 1.968H27.798L49.118 58.466H42.886L24.6 8.61Z"/>
  <path d="M92.3775 43.788C92.3775 46.412 91.7488 48.8993 90.4915 51.25C89.2888 53.546 87.4028 55.432 84.8335 56.908C82.2642 58.3293 79.0662 59.04 75.2395 59.04C71.5222 59.04 68.2148 58.3567 65.3175 56.99C62.4201 55.6233 60.0968 53.7647 58.3475 51.414C56.6528 49.0087 55.6688 46.33 55.3955 43.378H61.4635C61.6821 45.0727 62.3108 46.7673 63.3495 48.462C64.3882 50.1567 65.8915 51.578 67.8595 52.726C69.8275 53.8193 72.2055 54.366 74.9935 54.366C78.6562 54.366 81.4441 53.382 83.3575 51.414C85.3255 49.446 86.3095 46.9587 86.3095 43.952C86.3095 41.3827 85.6535 39.3053 84.3415 37.72C83.0842 36.08 81.4988 34.8227 79.5855 33.948C77.7268 33.0733 75.1575 32.1167 71.8775 31.078C68.2695 29.93 65.3448 28.8367 63.1035 27.798C60.9168 26.7047 59.0581 25.1193 57.5275 23.042C55.9968 20.9647 55.2315 18.204 55.2315 14.76C55.2315 10.3867 56.7621 6.83333 59.8235 4.1C62.8848 1.36667 67.0942 0 72.4515 0C77.9182 0 82.2368 1.33934 85.4075 4.018C88.6328 6.69667 90.5462 10.0313 91.1475 14.022H84.9975C84.5055 11.562 83.1935 9.37534 81.0615 7.462C78.9842 5.54867 76.1142 4.592 72.4515 4.592C69.0622 4.592 66.3561 5.46667 64.3335 7.21601C62.3108 8.96534 61.2995 11.398 61.2995 14.514C61.2995 16.974 61.9282 18.9693 63.1855 20.5C64.4428 22.0307 65.9735 23.206 67.7775 24.026C69.6361 24.846 72.1508 25.7753 75.3215 26.814C78.9841 27.962 81.9361 29.0827 84.1775 30.176C86.4735 31.2693 88.4142 32.9093 89.9995 35.096C91.5848 37.2827 92.3775 40.18 92.3775 43.788Z"/>
</svg>
