<?xml version="1.0" encoding="UTF-8"?>
<svg width="96px" height="96px" viewBox="0 0 96 96" version="1.1" xmlns="http://www.w3.org/2000/svg" xmlns:xlink="http://www.w3.org/1999/xlink">
    <!-- Generator: Sketch 52.6 (67491) - http://www.bohemiancoding.com/sketch -->
    <title>carla</title>
    <desc>Created with Sketch.</desc>
    <g id="carla" stroke="none" stroke-width="1" fill="none" fill-rule="evenodd">
        <path d="M38.2043206,54.1642114 L45.4182823,53.0343138 L55.1681643,77.3447099 L49.0064185,77.3447099 C48.294391,77.3447099 47.7193004,77.1672373 47.2811297,76.8122867 C46.8429589,76.4573361 46.5143357,76.0068287 46.2952503,75.4607509 L38.2043206,54.1642114 Z M35.4168502,46.8271715 L27.5840822,26.2101521 L18.7601547,49.4360515 L10.6857926,50.7007107 L23.5378691,18.6552901 L31.6302953,18.6552901 L42.4848703,45.7201322 L35.4168502,46.8271715 Z M15.6199575,57.7015213 L8.87291399,75.4607509 C8.68121427,75.9522209 8.35259112,76.3890766 7.88703466,76.7713311 C7.4214782,77.1535855 6.84638768,77.3447099 6.16174583,77.3447099 L0,77.3447099 L7.35914669,58.9953832 L15.6199575,57.7015213 Z M72.9035372,40.9557627 L62.6369719,42.563779 C62.2531086,41.9752486 61.9064249,41.3436371 61.5969191,40.668942 C60.7890417,38.907841 60.3851091,36.7303884 60.3851091,34.1365188 C60.3851091,32.0614231 60.7890417,30.0546172 61.5969191,28.116041 C62.4047965,26.1774647 63.5755165,24.4573454 65.1091142,22.9556314 C66.642712,21.4539174 68.5391415,20.2525642 70.7984596,19.3515358 C73.0577777,18.4505074 75.6525313,18 78.5827985,18 C81.8690793,18 84.8677656,18.5187661 87.5789474,19.556314 C90.2901291,20.5938618 92.6589544,22.0955533 94.6854942,24.0614334 L92.7548139,27.8293515 C92.5083428,28.2389099 92.2481828,28.5460741 91.9743261,28.7508532 C91.7004693,28.9556324 91.3444609,29.0580205 90.9062901,29.0580205 C90.4407337,29.0580205 89.8998747,28.8259409 89.283697,28.3617747 C88.6675194,27.8976086 87.8870394,27.3856683 86.9422336,26.8259386 C85.9974279,26.2662088 84.8609395,25.7542685 83.5327343,25.2901024 C82.2045291,24.8259362 80.5956449,24.5938567 78.7060334,24.5938567 C76.9259646,24.5938567 75.3513119,24.8327621 73.9820282,25.3105802 C72.6127445,25.7883983 71.4694098,26.436856 70.5519897,27.2559727 C69.6345697,28.0750894 68.9430918,29.0375371 68.4775353,30.1433447 C68.0119788,31.2491523 67.7792041,32.4436796 67.7792041,33.7269625 C67.7792041,35.3651959 68.1831367,36.7235441 68.9910141,37.8020478 C69.7988915,38.8805515 70.8669168,39.802044 72.195122,40.5665529 C72.4258876,40.6993806 72.6620259,40.8291171 72.9035372,40.9557627 Z M87.3762876,46.462578 C88.9355353,47.1899364 90.3381211,48.0914811 91.5840822,49.1672355 C92.9122873,50.3139989 93.9803126,51.7201282 94.78819,53.3856655 C95.5960674,55.0512029 96,57.098964 96,59.5290102 C96,62.095576 95.5618358,64.5051082 94.6854942,66.7576792 C93.8091527,69.0102502 92.5288916,70.9692749 90.8446727,72.6348123 C89.1604537,74.3003496 87.0928663,75.6109167 84.6418485,76.5665529 C82.1908307,77.5221891 79.4043802,78 76.2824134,78 C72.4758047,78 69.0047226,77.3105871 65.8690629,75.9317406 C62.7334032,74.5528941 60.0564938,72.6894315 57.8382542,70.3412969 L60.1386393,66.5733788 C60.3577247,66.273036 60.624731,66.0204788 60.9396662,65.8156997 C61.2546015,65.6109205 61.6037636,65.5085324 61.987163,65.5085324 C62.5622622,65.5085324 63.2195085,65.8156966 63.9589217,66.4300341 C64.6983349,67.0443717 65.6225875,67.7201328 66.7317073,68.4573379 C67.8408271,69.1945429 69.182705,69.8703041 70.7573813,70.4846416 C72.3320575,71.0989792 74.2558722,71.4061433 76.5288832,71.4061433 C78.4184947,71.4061433 80.1026884,71.1467603 81.5815148,70.6279863 C83.0603412,70.1092124 84.3132169,69.3788443 85.3401797,68.4368601 C86.3671425,67.4948758 87.1544688,66.3686072 87.7021823,65.0580205 C88.2498958,63.7474337 88.5237484,62.2866975 88.5237484,60.6757679 C88.5237484,58.901015 88.1198158,57.4471046 87.3119384,56.3139932 C86.504061,55.1808817 85.4428821,54.2320857 84.1283697,53.4675768 C82.8138574,52.7030678 81.3145142,52.0546102 79.6302953,51.5221843 C77.9460763,50.9897584 76.2208047,50.4436888 74.4544288,49.883959 C73.5193563,49.587653 72.5958027,49.2664822 71.6837605,48.9204437 L87.3762985,46.4625763 Z" fill="#000000"></path>
    </g>
</svg>