<?xml version="1.0" encoding="UTF-8"?>
<svg width="40px" height="26px" viewBox="0 0 40 26" version="1.1" xmlns="http://www.w3.org/2000/svg" xmlns:xlink="http://www.w3.org/1999/xlink">
    <!-- Generator: Sketch 52.6 (67491) - http://www.bohemiancoding.com/sketch -->
    <title>logo</title>
    <desc>Created with Sketch.</desc>
    <g id="Prototype" stroke="none" stroke-width="1" fill="none" fill-rule="evenodd">
        <g id="Home" transform="translate(-1303.000000, -72.000000)" fill="#000000">
            <g id="header" transform="translate(80.000000, 65.000000)">
                <g id="carla-/-black" transform="translate(1223.000000, 0.000000)">
                    <path d="M7.71785709,21.5580346 L3.57766354,22.2064987 L8.66666667,8.75 L13.0333333,8.75 L17.2934565,20.0582419 L13.6151817,20.6343573 L10.8333333,12.9325729 L7.71785709,21.5580346 Z M6.47778654,24.9912757 L4.06666667,31.6666667 L0,31.6666667 L2.27560227,25.6494491 L6.47778654,24.9912757 Z M18.4456928,23.1167843 L21.6666667,31.6666667 L17.6,31.6666667 L14.7224564,23.6999418 L18.4456928,23.1167843 Z M30.58514,21.2154251 L37.1903835,20.1808689 C37.8889883,20.6320093 38.4974089,21.2188384 39.0156571,21.9413666 C39.671889,22.856268 40,24.0612421 40,25.556325 C40,26.7166879 39.7219398,27.7933545 39.1658111,28.7863573 C38.6096824,29.7793602 37.7643794,30.5770976 36.6298768,31.1795937 C35.4953742,31.7820898 34.1050733,32.0833333 32.4589322,32.0833333 C30.8572815,32.0833333 29.4224909,31.7988256 28.1545175,31.2298015 C26.886544,30.6607774 25.8744049,29.8630399 25.1180698,28.8365651 C24.3617348,27.8100903 23.9279609,26.6274305 23.8167351,25.2885503 L27.887577,25.2885503 C27.9988027,26.3150251 28.4381378,27.1964414 29.2055955,27.9328255 C29.9730531,28.6692096 31.0018758,29.0373961 32.2920945,29.0373961 C33.4488422,29.0373961 34.344196,28.7249954 34.9781828,28.1001847 C35.6121695,27.4753739 35.9291581,26.6720578 35.9291581,25.6902124 C35.9291581,24.8422549 35.6955876,24.1449319 35.2284394,23.5982225 C34.7612913,23.0515131 34.1829261,22.6219622 33.4933265,22.3095568 C32.8037269,21.9971514 31.8583222,21.640122 30.6570842,21.238458 C30.6330297,21.2307804 30.6090483,21.2231027 30.5851401,21.2154251 Z M25.5616777,18.7632193 C25.257939,18.4732544 24.9766,18.1491347 24.7176591,17.7908587 C24.0725498,16.8982719 23.75,15.7267693 23.75,14.2763158 C23.75,13.0043796 24.0614274,11.8886628 24.6842916,10.929132 C25.3071557,9.96960123 26.1969484,9.22764959 27.3536961,8.70325485 C28.5104438,8.17886011 29.8451328,7.91666667 31.3578029,7.91666667 C33.760279,7.91666667 35.6677719,8.49683938 37.0803388,9.65720222 C38.4929058,10.8175651 39.2992803,12.3349398 39.4994867,14.2093721 L35.3952772,14.2093721 C35.2395612,13.3167853 34.8224709,12.5525193 34.1439938,11.9165512 C33.4655168,11.2805832 32.5367958,10.9626039 31.3578029,10.9626039 C30.2900357,10.9626039 29.4336103,11.2359545 28.788501,11.7826639 C28.1433917,12.3293733 27.8208419,13.1159536 27.8208419,14.1424284 C27.8208419,14.9457566 28.04329,15.609608 28.488193,16.1340028 C28.933096,16.6583975 29.4947776,17.0712127 30.1732546,17.3724608 C30.5080003,17.5210899 30.9036608,17.6819395 31.3602395,17.8550108 L25.5616777,18.7632193 Z" id="Combined-Shape"></path>
                </g>
            </g>
        </g>
    </g>
</svg>