<?xml version="1.0" encoding="UTF-8"?>
<svg width="117px" height="74px" viewBox="0 0 117 74" version="1.1" xmlns="http://www.w3.org/2000/svg" xmlns:xlink="http://www.w3.org/1999/xlink">
    <!-- Generator: Sketch 52.6 (67491) - http://www.bohemiancoding.com/sketch -->
    <title>carla</title>
    <desc>Created with Sketch.</desc>
    <g id="UI-kit" stroke="none" stroke-width="1" fill="none" fill-rule="evenodd">
        <g id="Logos" transform="translate(-2749.000000, -73.000000)" fill="#000000">
            <path d="M2794.23165,113.797173 L2802.53484,111.40022 L2816.15,145.45 L2808.65,145.45 C2807.78333,145.45 2807.08334,145.233336 2806.55,144.8 C2806.01666,144.366665 2805.61667,143.81667 2805.35,143.15 L2794.23165,113.797173 Z M2792.09931,108.167729 L2782.575,83.0232274 L2770.71207,114.341763 L2760.22887,117.368038 L2777.65,73.8 L2787.5,73.8 L2800.29613,105.801485 L2792.09931,108.167729 Z M2768.05615,121.353472 L2759.8,143.15 C2759.56667,143.750003 2759.16667,144.283331 2758.6,144.75 C2758.03333,145.216669 2757.33334,145.45 2756.5,145.45 L2749,145.45 L2757.40587,124.427978 L2768.05615,121.353472 Z M2832.52909,96.4965265 L2823.38282,99.1368558 C2822.79427,97.2954872 2822.5,95.1498809 2822.5,92.7 C2822.5,90.166654 2822.99166,87.7166785 2823.975,85.35 C2824.95834,82.9833215 2826.38332,80.8833425 2828.25,79.05 C2830.11668,77.2166575 2832.42499,75.7500055 2835.175,74.65 C2837.92501,73.5499945 2841.08332,73 2844.65,73 C2848.65002,73 2852.29998,73.633327 2855.6,74.9 C2858.90002,76.166673 2861.78332,77.999988 2864.25,80.4 L2861.9,85 C2861.6,85.5000025 2861.28334,85.8749987 2860.95,86.125 C2860.61667,86.3750012 2860.18334,86.5 2859.65,86.5 C2859.08333,86.5 2858.425,86.2166695 2857.675,85.65 C2856.925,85.0833305 2855.97501,84.4583367 2854.825,83.775 C2853.67499,83.0916632 2852.29167,82.4666695 2850.675,81.9 C2849.05833,81.3333305 2847.10001,81.05 2844.8,81.05 C2842.63332,81.05 2840.71668,81.3416637 2839.05,81.925 C2837.38332,82.5083362 2835.99167,83.299995 2834.875,84.3 C2833.75833,85.300005 2832.91667,86.4749932 2832.35,87.825 C2831.78333,89.1750067 2831.5,90.6333255 2831.5,92.2 C2831.5,93.8705604 2831.84303,95.3027263 2832.52909,96.4965265 Z M2838.00093,101.161925 C2839.32894,101.841295 2840.78695,102.44565 2842.375,102.975 C2844.42501,103.658337 2846.52499,104.366663 2848.675,105.1 C2850.82501,105.833337 2852.92499,106.658329 2854.975,107.575 C2857.02501,108.491671 2858.85833,109.649993 2860.475,111.05 C2862.09167,112.450007 2863.39166,114.166656 2864.375,116.2 C2865.35834,118.233343 2865.85,120.733318 2865.85,123.7 C2865.85,126.833349 2865.31667,129.774986 2864.25,132.525 C2863.18333,135.275014 2861.62501,137.666656 2859.575,139.7 C2857.52499,141.733343 2855.00835,143.333327 2852.025,144.5 C2849.04165,145.666673 2845.65002,146.25 2841.85,146.25 C2837.21664,146.25 2832.99169,145.408342 2829.175,143.725 C2825.35831,142.041658 2822.10001,139.766681 2819.4,136.9 L2822.2,132.3 C2822.46667,131.933331 2822.79166,131.625001 2823.175,131.375 C2823.55834,131.124999 2823.98333,131 2824.45,131 C2825.15,131 2825.95,131.374996 2826.85,132.125 C2827.75,132.875004 2828.87499,133.699995 2830.225,134.6 C2831.57501,135.500004 2833.20832,136.324996 2835.125,137.075 C2837.04168,137.825004 2839.38332,138.2 2842.15,138.2 C2844.45001,138.2 2846.49999,137.883336 2848.3,137.25 C2850.10001,136.616663 2851.62499,135.725006 2852.875,134.575 C2854.12501,133.424994 2855.08333,132.050008 2855.75,130.45 C2856.41667,128.849992 2856.75,127.066676 2856.75,125.1 C2856.75,122.933322 2856.25834,121.15834 2855.275,119.775 C2854.29166,118.39166 2853.00001,117.233338 2851.4,116.3 C2849.79999,115.366662 2847.97501,114.575003 2845.925,113.925 C2843.87499,113.274997 2841.77501,112.608337 2839.625,111.925 C2837.47499,111.241663 2835.37501,110.450004 2833.325,109.55 C2831.27499,108.649995 2829.45001,107.48334 2827.85,106.05 C2827.32368,105.578505 2826.83073,105.068237 2826.37114,104.519197 L2838.00093,101.161925 Z" id="carla"></path>
        </g>
    </g>
</svg>