<?xml version="1.0" encoding="UTF-8"?>
<svg width="96px" height="96px" viewBox="0 0 96 96" version="1.1" xmlns="http://www.w3.org/2000/svg" xmlns:xlink="http://www.w3.org/1999/xlink">
    <!-- Generator: Sketch 52.6 (67491) - http://www.bohemiancoding.com/sketch -->
    <title>carla-black</title>
    <desc>Created with Sketch.</desc>
    <g id="carla-black" stroke="none" stroke-width="1">
        <path d="M15.6130666,52.7090375 L8.93730262,53.7762703 L22.1368948,18 L28.8631052,18 L40.2176995,48.7755746 L34.8421305,49.6349494 L26.0874939,24.0002289 L15.6130666,52.7090375 Z M13.3127345,59.0138973 L6.38564274,78 L0,78 L6.60951636,60.085519 L13.3127345,59.0138973 Z M42.2861825,54.382006 L51,78 L44.5292154,78 L36.7647724,55.264696 L42.2861825,54.382006 Z M74.6287729,49.2115009 L85.7671192,47.4308496 C86.3576269,47.6886258 86.9131785,47.9450091 87.4337748,48.2 C89.8156852,49.3666725 91.8388438,51.116655 93.5033113,53.45 C95.1677787,55.783345 96,58.8749808 96,62.725 C96,65.525014 95.3543111,68.1645709 94.0629139,70.64375 C92.7715167,73.1229291 90.7770554,75.1354089 88.0794702,76.68125 C85.381885,78.2270911 82.0243026,79 78.0066225,79 C74.1037332,79 70.6313618,78.2708406 67.589404,76.8125 C64.5474462,75.3541594 62.1225256,73.3562627 60.3145695,70.81875 C58.5066135,68.2812373 57.4591626,65.4375158 57.1721854,62.2875 L63.5430464,62.2875 C63.7726281,64.0958424 64.4326656,65.9041576 65.5231788,67.7125 C66.613692,69.5208424 68.1920426,71.0229107 70.2582781,72.21875 C72.3245136,73.4145893 74.8211774,74.0125 77.7483444,74.0125 C81.5938382,74.0125 84.5353099,72.9625105 86.5728477,70.8625 C88.6103855,68.7624895 89.6291391,66.1083494 89.6291391,62.9 C89.6291391,60.1583196 88.9547529,57.9270919 87.6059603,56.20625 C86.2571676,54.4854081 84.5927251,53.158338 82.6125828,52.225 C80.661656,51.3054327 78.0004118,50.3009428 74.6287723,49.2115011 Z M64.0974007,44.9580042 C62.2930484,43.865306 60.7307911,42.4084806 59.410596,40.5875 C57.803524,38.3708222 57,35.4250184 57,31.75 C57,27.08331 58.6070479,23.2916813 61.8211921,20.375 C65.0353362,17.4583188 69.454718,16 75.0794702,16 C80.8190132,16 85.3675329,17.4291524 88.7251656,20.2875 C92.0827982,23.1458476 94.0772595,26.7041454 94.7086093,30.9625 L88.2516556,30.9625 C87.7350968,28.3374869 86.3719757,26.0041769 84.1622517,23.9625 C81.9525276,21.9208231 78.924964,20.9 75.0794702,20.9 C71.5209535,20.9 68.6799223,21.833324 66.5562914,23.7 C64.4326605,25.566676 63.3708609,28.1624834 63.3708609,31.4875 C63.3708609,34.1125131 64.0308985,36.2416585 65.3509934,37.875 C66.6710883,39.5083415 68.2924849,40.7624956 70.2152318,41.6375 C71.3542556,42.1558474 72.7400028,42.7151316 74.3724899,43.315359 L64.0974007,44.9580042 Z" id="Combined-Shape"></path>
    </g>
</svg>