<svg width="100" height="180" viewBox="0 0 100 180" fill="none" xmlns="http://www.w3.org/2000/svg">
<path d="M100 60.531C100 58.9381 100 57.3451 98.3871 55.7522C95.1613 46.1947 90.3226 36.6372 85.4839 25.4867C79.0323 15.9292 72.5806 6.37168 64.5161 0C62.9032 1.59292 61.2903 3.18584 59.6774 6.37168C58.0645 9.55752 56.4516 11.1504 54.8387 14.3363C54.8387 15.9292 54.8387 17.5221 54.8387 17.5221C54.8387 17.5221 51.6129 19.115 46.7742 23.8938C43.5484 28.6726 37.0968 35.0442 32.2581 41.4159C25.8065 49.3805 20.9677 55.7522 14.5161 65.3097C9.67742 73.2743 4.83871 81.2389 3.22581 87.6106C3.22581 89.2035 1.6129 90.7965 1.6129 93.9823C0 97.1681 0 98.7611 0 100.354C0 103.54 1.6129 108.319 3.22581 113.097C4.83871 119.469 6.45161 124.248 9.67742 130.619C12.9032 135.398 16.129 141.77 20.9677 148.142C24.1935 154.513 29.0323 159.292 32.2581 164.071C37.0968 168.85 41.9355 172.035 45.1613 175.221C50 178.407 54.8387 180 58.0645 180C62.9032 180 66.129 178.407 67.7419 175.221C70.9677 172.035 74.1935 167.257 77.4194 162.478C79.0323 157.699 82.2581 154.513 83.871 148.142C87.0968 143.363 90.3226 140.177 91.9355 136.991L93.5484 133.805C91.9355 135.398 90.3226 136.991 88.7097 138.584C87.0968 141.77 85.4839 143.363 83.871 144.956C82.2581 146.549 79.0323 148.142 77.4194 149.735C75.8065 151.327 72.5806 151.327 69.3548 151.327C64.5161 151.327 58.0645 149.735 51.6129 144.956C46.7742 140.177 41.9355 133.805 37.0968 127.434C32.2581 121.062 29.0323 114.69 25.8065 106.726C24.1935 100.354 22.5806 93.9823 22.5806 87.6106C22.5806 82.8319 22.5806 76.4602 24.1935 70.0885C25.8065 63.7168 29.0323 58.9381 32.2581 52.5664C33.871 46.1947 38.7097 41.4159 41.9355 36.6372C45.1613 31.8584 50 27.0796 54.8387 23.8938L53.2258 25.4867C56.4516 27.0796 61.2903 28.6726 64.5161 31.8584C69.3548 35.0442 72.5806 38.2301 75.8065 43.0088C79.0323 46.1947 82.2581 49.3805 83.871 54.1593C87.0968 58.9381 87.0968 63.7168 87.0968 66.9027C87.0968 70.0885 87.0968 73.2743 85.4839 74.8673C83.871 78.0531 82.2581 79.646 80.6452 81.2389C80.6452 84.4248 79.0323 86.0177 77.4194 89.2035C75.8065 90.7965 74.1935 93.9823 74.1935 97.1681V100.354L77.4194 103.54L80.6452 106.726C82.2581 106.726 82.2581 106.726 83.871 106.726C85.4839 106.726 87.0968 106.726 87.0968 105.133C88.7097 105.133 90.3226 103.54 91.9355 101.947C93.5484 101.947 93.5484 100.354 95.1613 98.7611L90.3226 97.1681C88.7097 98.7611 87.0968 100.354 83.871 100.354L80.6452 98.7611V95.5752C80.6452 92.3894 82.2581 89.2035 83.871 86.0177C85.4839 82.8319 87.0968 79.646 90.3226 78.0531C91.9355 74.8673 95.1613 71.6814 96.7742 68.4956C98.3871 66.9027 100 63.7168 100 60.531ZM69.3548 58.9381V57.3451H67.7419C62.9032 55.7522 58.0645 57.3451 53.2258 60.531C50 63.7168 46.7742 66.9027 43.5484 71.6814C40.3226 76.4602 38.7097 81.2389 37.0968 87.6106C35.4839 92.3894 35.4839 97.1681 35.4839 101.947C35.4839 111.504 38.7097 121.062 43.5484 129.027C50 136.991 56.4516 143.363 64.5161 148.142L67.7419 144.956C59.6774 140.177 54.8387 135.398 50 127.434C45.1613 119.469 43.5484 113.097 43.5484 103.54C43.5484 100.354 43.5484 97.1681 43.5484 92.3894C45.1613 87.6106 46.7742 84.4248 48.3871 79.646C50 76.4602 51.6129 73.2743 54.8387 70.0885C58.0645 68.4956 61.2903 66.9027 66.129 65.3097L69.3548 62.1239V58.9381Z"/>
</svg>
