<?xml version="1.0" encoding="UTF-8"?>
<svg width="30px" height="30px" viewBox="0 0 30 30" version="1.1" xmlns="http://www.w3.org/2000/svg" xmlns:xlink="http://www.w3.org/1999/xlink">
    <!-- Generator: Sketch 52.6 (67491) - http://www.bohemiancoding.com/sketch -->
    <title>cerbo-logo</title>
    <desc>Created with Sketch.</desc>
    <g id="Page-1" stroke="none" stroke-width="1">
        <g id="cerbo">
            <path d="M28.1074766,7.125 C29.3971963,9.49038462 30.0420561,12.1730769 29.9719626,14.8701923 C30.0280374,17.625 29.3691589,20.3365385 28.0934579,22.7451923 C26.8738318,25.0096154 25.0373832,26.8701923 22.8084112,28.0817308 C17.8738318,30.5913462 12.0841121,30.6057692 7.13551402,28.1105769 C4.93457944,26.9134615 3.11214953,25.0673077 1.89252336,22.8173077 C0.61682243,20.4086538 -0.0420560748,17.6826923 0.0140186916,14.9423077 C-0.0280373832,12.2019231 0.61682243,9.50480769 1.92056075,7.125 C3.14018692,4.90384615 4.96261682,3.10096154 7.1635514,1.90384615 C9.57476636,0.620192308 12.2663551,-0.0144230769 14.9859813,0.0432692308 C17.7056075,-0.0144230769 20.3971963,0.634615385 22.8224299,1.90384615 C25.0373832,3.08653846 26.8738318,4.90384615 28.1074766,7.125 Z M24.911215,19.2403846 C26.4392523,18.1586538 27.364486,16.3557692 27.3785047,14.4375 C27.3925234,13.1682692 26.9859813,11.9423077 26.2429907,10.9326923 C26.1728972,10.8317308 26.1308411,10.7163462 26.1308411,10.6009615 C26.088785,8.30769231 24.5327103,6.33173077 22.3598131,5.8125 C22.2196262,5.78365385 22.0794393,5.68269231 22.0093458,5.55288462 C21.3925234,4.47115385 20.2570093,3.80769231 19.0373832,3.80769231 C17.1448598,3.80769231 15.6028037,5.39423077 15.6028037,7.34134615 L15.6028037,7.37019231 C15.6028037,7.38461538 15.6028037,7.44230769 15.6028037,7.44230769 C15.6028037,7.48557692 15.6028037,7.51442308 15.6028037,7.54326923 L15.6028037,23.7836538 C15.6869159,24.1153846 15.8130841,24.4182692 15.9953271,24.6923077 C16.6542056,25.7019231 17.9018692,26.1057692 19.0373832,26.1057692 C20.3691589,26.0913462 21.5607477,25.3125 22.135514,24.0721154 C22.2056075,23.9423077 22.317757,23.8269231 22.4579439,23.7836538 C24.0560748,23.2211538 25.0093458,21.5336538 24.6869159,19.8173077 C24.6448598,19.5865385 24.728972,19.3701923 24.911215,19.2403846 Z M11.0186916,26.1923077 L10.9766355,26.2211538 C12.1401869,26.2211538 13.4439252,25.7884615 14.1028037,24.6923077 C14.2570093,24.4326923 14.3691589,24.1586538 14.4392523,23.8701923 L14.4392523,7.62980769 C14.4392523,7.58653846 14.4392523,7.55769231 14.4392523,7.52884615 C14.4392523,7.51442308 14.4392523,7.45673077 14.4392523,7.45673077 L14.4392523,7.42788462 C14.4392523,6.67788462 14.2009346,5.94230769 13.7663551,5.33653846 C13.5,4.94711538 13.1495327,4.62980769 12.7429907,4.38461538 C11.1168224,3.40384615 9.01401869,3.96634615 8.06074766,5.63942308 C7.99065421,5.76923077 7.86448598,5.87019231 7.71028037,5.89903846 C5.53738318,6.41826923 3.98130841,8.39423077 3.93925234,10.6875 C3.93925234,10.8028846 3.89719626,10.9182692 3.8271028,11.0192308 C3.08411215,12.0288462 2.69158879,13.2548077 2.69158879,14.5240385 C2.69158879,16.4423077 3.61682243,18.2307692 5.14485981,19.3269231 C5.3271028,19.4567308 5.41121495,19.6875 5.36915888,19.9038462 C5.04672897,21.6057692 6,23.3076923 7.59813084,23.8701923 C7.73831776,23.9134615 7.85046729,24.0288462 7.92056075,24.1586538 C8.4953271,25.3846154 9.68691589,26.1778846 11.0186916,26.1923077 Z M8.4953271,11.7836538 C8.53738318,11.3221154 8.6635514,10.875 8.85981308,10.4855769 C8.28504673,10.7451923 7.6682243,10.875 7.05140187,10.875 L7.02336449,10.875 C6.8411215,10.875 6.64485981,10.875 6.46261682,10.8461538 C6.1682243,10.8028846 5.94392523,10.5288462 5.98598131,10.2115385 C6.02803738,9.90865385 6.29439252,9.67788462 6.60280374,9.72115385 C8.59345794,9.95192308 10.3878505,8.49519231 10.6401869,6.44711538 C10.6401869,6.38942308 10.6682243,6.34615385 10.682243,6.30288462 C10.7803738,6.05769231 11.0046729,5.91346154 11.2570093,5.94230769 C11.2850467,5.94230769 11.3130841,5.95673077 11.3411215,5.97115385 C11.5934579,6.05769231 11.7616822,6.30288462 11.7336449,6.57692308 C11.6495327,7.35576923 11.3831776,8.09134615 10.9485981,8.74038462 C11.4252336,8.58173077 11.9158879,8.53846154 12.4065421,8.59615385 C12.7009346,8.63942308 12.9252336,8.91346154 12.8831776,9.23076923 C12.8411215,9.53365385 12.5747664,9.76442308 12.2663551,9.72115385 C10.9345794,9.5625 9.71495327,10.5432692 9.56074766,11.9134615 C9.53271028,12.2019231 9.29439252,12.4182692 9.01401869,12.4182692 L8.98598131,12.4182692 L8.97196262,12.4182692 C8.67757009,12.375 8.45327103,12.1009615 8.4953271,11.7836538 Z M13.2757009,20.9855769 L13.3037383,20.9855769 C13.5700935,21.1442308 13.6682243,21.4903846 13.5140187,21.7644231 C13.3598131,22.0384615 13.0233645,22.1394231 12.7570093,21.9807692 C11.6214953,21.3173077 10.2056075,21.6201923 9.40654206,22.6730769 C9.32242991,22.7740385 9.25233645,22.875 9.18224299,22.9903846 C9.02803738,23.2644231 8.69158879,23.3653846 8.42523364,23.2067308 C8.1588785,23.0480769 8.06074766,22.7019231 8.21495327,22.4278846 C8.3411215,22.2115385 8.48130841,22.0096154 8.63551402,21.8221154 C9,21.375 9.47663551,21.0288462 9.9953271,20.7980769 C10.1214953,20.625 10.1775701,20.4230769 10.1635514,20.2067308 C10.1495327,19.9759615 10.0373832,19.7740385 9.86915888,19.6298077 C9.63084112,19.4278846 9.60280374,19.0817308 9.79906542,18.8365385 C9.9953271,18.5913462 10.3317757,18.5625 10.5700935,18.7644231 C10.9626168,19.0961538 11.2009346,19.5865385 11.2429907,20.1057692 C11.2570093,20.2355769 11.2570093,20.3653846 11.2429907,20.4951923 C11.9579439,20.4663462 12.6588785,20.625 13.2757009,20.9855769 Z M5.77570093,16.4711538 C6.04205607,16.6298077 6.14018692,16.9759615 5.97196262,17.25 C5.81775701,17.5240385 5.48130841,17.625 5.21495327,17.4663462 C3.89719626,16.6875 3.43457944,14.9711538 4.17757009,13.6153846 C4.3317757,13.3413462 4.6682243,13.2403846 4.93457944,13.3990385 C5.20093458,13.5576923 5.29906542,13.9038462 5.14485981,14.1778846 C4.71028037,14.9855769 4.99065421,16.0096154 5.77570093,16.4711538 Z M23.3411215,9.62019231 C23.635514,9.57692308 23.9158879,9.79326923 23.9439252,10.1394231 C23.9859813,10.4567308 23.7757009,10.7307692 23.4672897,10.7740385 C23.271028,10.7884615 23.088785,10.8028846 22.9065421,10.8028846 C22.2897196,10.8028846 21.6588785,10.6586538 21.0841121,10.4134615 C21.2943925,10.8028846 21.4345794,11.25 21.4906542,11.6971154 L21.4906542,11.7115385 C21.5186916,12.0288462 21.3084112,12.3028846 21,12.3317308 L20.9299065,12.3317308 C20.6495327,12.3317308 20.411215,12.1153846 20.3831776,11.8269231 C20.228972,10.4567308 19.0093458,9.47596154 17.6775701,9.63461538 C17.3691589,9.67788462 17.1028037,9.46153846 17.0607477,9.14423077 C17.0186916,8.82692308 17.228972,8.55288462 17.5373832,8.50961538 C18.0140187,8.45192308 18.5186916,8.49519231 18.9813084,8.63942308 C18.546729,7.99038462 18.2803738,7.25480769 18.1962617,6.47596154 C18.182243,6.25961538 18.2803738,6.04326923 18.4626168,5.92788462 C18.5327103,5.88461538 18.6028037,5.85576923 18.6869159,5.84134615 L18.7009346,5.84134615 C19.0093458,5.8125 19.2757009,6.02884615 19.3037383,6.34615385 C19.4158879,7.32692308 19.9065421,8.23557692 20.6635514,8.84134615 C21.4205607,9.46153846 22.3878505,9.73557692 23.3411215,9.62019231 Z M21.4065421,21.8076923 C21.546729,21.9807692 21.6588785,22.1682692 21.771028,22.3413462 C21.9252336,22.6153846 21.8271028,22.9615385 21.5607477,23.1201923 C21.2943925,23.2788462 20.9579439,23.1778846 20.8037383,22.9038462 C20.7476636,22.8173077 20.6915888,22.7451923 20.635514,22.6586538 C20.3130841,22.1682692 19.8504673,21.8076923 19.3037383,21.6346154 C19.135514,21.6923077 18.953271,21.6490385 18.8130841,21.5336538 C18.2663551,21.4759615 17.7196262,21.5913462 17.2429907,21.8653846 C16.9766355,22.0240385 16.6401869,21.9230769 16.4859813,21.6490385 C16.3317757,21.375 16.4299065,21.0288462 16.6962617,20.8701923 C17.1869159,20.5961538 17.7196262,20.4230769 18.2803738,20.3942308 C18.2663551,20.2644231 18.2663551,20.1346154 18.2803738,20.0048077 C18.3224299,19.4855769 18.5607477,18.9951923 18.953271,18.6634615 C19.1775701,18.4615385 19.5280374,18.4903846 19.7242991,18.7355769 C19.9205607,18.9663462 19.8925234,19.3269231 19.6542056,19.5288462 C19.4859813,19.6730769 19.3738318,19.875 19.3598131,20.1057692 C19.3598131,20.25 19.3738318,20.3798077 19.4299065,20.5096154 C20.2009346,20.7115385 20.9018692,21.1730769 21.4065421,21.8076923 Z M25.0233645,13.3269231 C25.2757009,13.1682692 25.6121495,13.2692308 25.7663551,13.5288462 C26.5093458,14.8990385 26.046729,16.6153846 24.728972,17.3798077 C24.4626168,17.5384615 24.1261682,17.4375 23.9719626,17.1634615 C23.817757,16.8894231 23.9158879,16.5432692 24.182243,16.3846154 C24.9813084,15.9375 25.2616822,14.8990385 24.8130841,14.0913462 C24.6728972,13.8317308 24.7570093,13.4855769 25.0233645,13.3269231 Z" id="cerbo-logo"></path>
        </g>
    </g>
</svg>