<?xml version="1.0" encoding="utf-8"?>
<!-- Generator: Adobe Illustrator 19.0.0, SVG Export Plug-In . SVG Version: 6.00 Build 0)  -->
<svg version="1.1" id="Calque_1" xmlns="http://www.w3.org/2000/svg" xmlns:xlink="http://www.w3.org/1999/xlink" x="0px" y="0px"
	 viewBox="-589 221 260 260" style="enable-background:new -589 221 260 260;" xml:space="preserve">
<style type="text/css">
	.st0{fill:#338DEC;}
</style>
<g>
	<path class="st0" d="M-365.5,296.4c-8.8-15.4-21.9-28-37.7-36.2c-17.3-8.8-36.5-13.3-55.9-12.9c-19.4-0.4-38.6,4-55.8,12.9
		c-15.7,8.3-28.7,20.8-37.4,36.2c-9.3,16.5-13.9,35.2-13.6,54.2c-0.4,19,4.3,37.9,13.4,54.6c8.7,15.6,21.7,28.4,37.4,36.7
		c35.3,17.3,76.6,17.2,111.8-0.2c15.9-8.4,29-21.3,37.7-37c9.1-16.7,13.8-35.5,13.4-54.6C-351.7,331.4-356.3,312.8-365.5,296.4z
		 M-388.3,380.4c-1.3,0.9-1.9,2.4-1.6,4c2.3,11.9-4.5,23.6-15.9,27.5c-1,0.3-1.8,1.1-2.3,2c-4.1,8.6-12.6,14-22.1,14.1
		c-8.1,0-17-2.8-21.7-9.8c-1.3-1.9-2.2-4-2.8-6.3V299.3c0-0.2,0-0.4,0-0.7c0,0,0-0.4,0-0.5v-0.2c0-13.5,11-24.5,24.5-24.5
		c8.7,0,16.8,4.6,21.2,12.1c0.5,0.9,1.5,1.6,2.5,1.8c15.5,3.6,26.6,17.3,26.9,33.2c0,0.8,0.3,1.6,0.8,2.3c5.3,7,8.2,15.5,8.1,24.3
		C-370.8,360.4-377.4,372.9-388.3,380.4z M-487.4,428.6c-9.5-0.1-18-5.6-22.1-14.1c-0.5-0.9-1.3-1.7-2.3-2
		c-11.4-3.9-18.2-15.7-15.9-27.5c0.3-1.5-0.3-3.1-1.6-4c-10.9-7.6-17.5-20-17.5-33.3c0-8.8,2.8-17.3,8.1-24.3
		c0.5-0.7,0.8-1.5,0.8-2.3c0.3-15.9,11.4-29.6,26.9-33.2c1.1-0.2,2-0.9,2.5-1.8c6.8-11.6,21.8-15.5,33.4-8.7
		c2.9,1.7,5.4,3.9,7.3,6.6c3.1,4.2,4.8,9.3,4.8,14.5v0.2c0,0,0,0.4,0,0.5c0,0.2,0,0.4,0,0.7v112.6c-0.5,2-1.3,3.9-2.4,5.7
		c-4.7,7.6-14,10.6-22.3,10.6L-487.4,428.6L-487.4,428.6L-487.4,428.6z"/>
	<path class="st0" d="M-505.4,328.7c-0.3,2.2,1.3,4.1,3.4,4.4h0.1h0.2c2,0,3.7-1.5,3.9-3.5c1.1-9.5,9.8-16.3,19.3-15.2
		c2.2,0.3,4.1-1.3,4.4-3.4c0.3-2.2-1.3-4.1-3.4-4.4c-3.5-0.4-7-0.1-10.4,1c3.1-4.5,5-9.6,5.6-15c0.2-1.9-1-3.6-2.8-4.2
		c-0.2-0.1-0.4-0.2-0.6-0.2c-1.8-0.2-3.4,0.8-4.1,2.5c-0.1,0.3-0.3,0.6-0.3,1c-1.8,14.2-14.6,24.3-28.8,22.7
		c-2.2-0.3-4.1,1.3-4.4,3.4c-0.3,2.2,1.3,4.1,3.4,4.4c1.3,0.2,2.7,0.2,4,0.2h0.2c4.4,0,8.8-0.9,12.9-2.7
		C-504.2,322.4-505.1,325.5-505.4,328.7z"/>
	<path class="st0" d="M-471.3,392.5c-4.4-2.5-9.4-3.6-14.5-3.4c0.1-0.9,0.1-1.8,0-2.7c-0.3-3.6-2-7-4.8-9.3
		c-1.7-1.4-4.1-1.2-5.5,0.5s-1.2,4.1,0.5,5.5c1.2,1,2,2.4,2.1,4c0.1,1.5-0.3,2.9-1.2,4.1c-3.7,1.6-7.1,4-9.7,7.1
		c-1.1,1.3-2.1,2.7-3,4.2c-1.1,1.9-0.4,4.3,1.5,5.4s4.3,0.4,5.4-1.5c0.5-0.8,1-1.5,1.6-2.2c5.7-7.3,15.8-9.4,23.9-4.8
		c1.9,1.1,4.3,0.4,5.4-1.5s0.4-4.3-1.5-5.4L-471.3,392.5z"/>
	<path class="st0" d="M-524.8,361.2c-5.6-3.2-7.6-10.3-4.5-15.9c1.1-1.9,0.4-4.3-1.5-5.4c-1.9-1.1-4.3-0.4-5.4,1.5l0,0
		c-5.3,9.4-2,21.3,7.4,26.7c1.9,1.1,4.3,0.4,5.4-1.5C-522.2,364.7-522.9,362.3-524.8,361.2L-524.8,361.2L-524.8,361.2z"/>
	<path class="st0" d="M-399.5,313.7c-6.8,0.8-13.7-1.1-19.1-5.4c-5.4-4.2-8.9-10.5-9.7-17.3l0,0c-0.2-2.2-2.1-3.7-4.3-3.5h-0.1
		c-0.6,0.1-1.1,0.3-1.6,0.6c-1.3,0.8-2,2.3-1.9,3.8c0.6,5.4,2.5,10.5,5.6,15c-3.3-1-6.9-1.3-10.3-0.9c-2.2,0.3-3.7,2.2-3.4,4.4
		c0.3,2.2,2.2,3.7,4.4,3.4l0,0c9.5-1.1,18.2,5.7,19.3,15.2c0.2,2,1.9,3.5,3.9,3.5h0.5c2.2-0.2,3.7-2.1,3.5-4.3v-0.1
		c-0.4-3.1-1.4-6.2-2.9-8.9c4.1,1.7,8.6,2.7,13,2.7l0,0c1.3,0,2.6-0.1,4-0.2c2.2-0.3,3.7-2.2,3.4-4.4
		C-395.4,314.9-397.4,313.4-399.5,313.7L-399.5,313.7L-399.5,313.7z"/>
	<path class="st0" d="M-413.3,398.2c-3.6-4.4-8.6-7.6-14.1-9c-0.4-0.9-0.5-1.8-0.5-2.8c0.1-1.6,0.9-3,2.1-4c1.7-1.4,1.9-3.9,0.5-5.5
		c-1.4-1.7-3.9-1.9-5.5-0.5c-2.8,2.3-4.5,5.7-4.8,9.3c-0.1,0.9-0.1,1.8,0,2.7c-4,0.2-7.8,1.4-11.3,3.3c-1.9,1.1-2.6,3.5-1.5,5.4
		s3.5,2.6,5.4,1.5l0,0c3.4-1.9,7.3-2.7,11.2-2.3c1,0.8,2.3,1.1,3.5,0.7c3.9,1.2,7.2,3.7,9.5,7.1c0.4,0.6,0.8,1.1,1.2,1.7
		c1.1,1.9,3.5,2.6,5.4,1.5s2.6-3.5,1.5-5.4C-411.5,400.7-412.3,399.4-413.3,398.2z"/>
	<path class="st0" d="M-387.5,339.4c-1.9,1.1-2.5,3.5-1.5,5.3c3.2,5.6,1.2,12.8-4.5,15.9c-1.9,1.1-2.6,3.5-1.5,5.4s3.5,2.6,5.4,1.5
		c9.4-5.3,12.7-17.2,7.4-26.7C-383.3,339-385.7,338.3-387.5,339.4z"/>
</g>
</svg>
