<svg width="56" height="78" viewBox="0 0 56 78" fill="none" xmlns="http://www.w3.org/2000/svg">
<path fill-rule="evenodd" clip-rule="evenodd" d="M50.797 0.604004H4.54102V25.5297C8.24032 23.4903 14.7202 20.5798 20.033 19.415C20.1101 19.3984 20.1884 19.3815 20.2676 19.3644C23.271 18.7162 27.7721 17.7448 31.642 20.352C34.033 17.678 37.081 16.352 38.413 15.933C39.649 15.543 40.593 15.736 41.175 16.452C43.273 19.043 40.589 19.523 39.597 18.561C39.226 18.208 38.374 18.584 37.999 18.875C37.9499 18.9113 37.8993 18.9485 37.8474 18.9867C36.7305 19.8094 35.0055 21.0797 33.876 22.667C34.624 24.146 37.204 29.273 30.151 36.205C31.194 43.023 35.973 42.329 37.266 41.909C40.7747 40.791 45.7041 36.974 50.797 31.9593V0.604004ZM55.3376 31.3813C55.2224 31.5971 55.0626 31.8202 54.852 32.046C48.465 38.879 41.524 43.404 37.475 44.373C33.43 45.332 29.707 44.6 27.834 38.496C27.837 38.495 26.902 39.438 25.697 40.333C25.312 40.611 25.256 40.792 25.793 41.323C30.2816 45.8345 31.5448 50.3849 31.9983 52.0185C32.0211 52.1009 32.042 52.1758 32.061 52.243C32.618 54.189 32.879 55.834 32.922 56.892C33.067 59.945 31.231 60.081 29.242 58.539C28.637 58.081 26.695 56.075 25.463 53.379C24.895 52.123 23.092 46.966 22.51 44.482C22.2877 43.4812 22.0861 43.4177 21.8296 43.337C21.7527 43.3128 21.6708 43.2871 21.582 43.234C20.951 42.861 20.32 41.941 20.738 41.086C20.8014 40.9569 20.8757 40.8597 20.9387 40.7774C21.1401 40.514 21.2257 40.4021 20.467 39.881C16.9791 37.4353 12.5711 35.8388 10.7208 35.1686C10.3643 35.0395 10.1027 34.9448 9.96101 34.885C9.81662 34.8271 9.5493 34.731 9.19608 34.6041C7.38924 33.9547 3.33458 32.4975 1.98701 31.211C1.4926 30.7458 1.14956 30.3122 0.95196 29.8997C0.489786 30.7936 0.808022 31.7226 1.98701 32.832C2.51854 33.3388 3.47122 33.8724 4.54102 34.3727V77.359H50.797V37.6454C52.1519 36.4278 53.5141 35.0972 54.852 33.665C55.6963 32.7618 55.7246 31.8998 55.3376 31.3813ZM20.173 21.908C22.61 21.273 27.712 20.184 30.126 22.292C30.126 22.292 25.75 27.48 27.159 34.961C26.7718 35.5407 25.856 36.3036 25.1117 36.9236C24.8661 37.1282 24.6391 37.3172 24.456 37.479C24.4412 37.4933 24.426 37.5082 24.4104 37.5234C24.1816 37.7475 23.8851 38.0378 23.636 37.431C23.206 36.356 22.362 35.56 20.38 36.721C19.9665 36.4953 18.6161 35.7364 17.4332 35.0717C16.5825 34.5936 15.8185 34.1642 15.552 34.017C14.923 33.683 11.29 32.347 9.433 31.707C7.81008 31.136 6.8328 30.7278 5.4159 30.136C5.22725 30.0572 5.03081 29.9751 4.82401 29.889C3.1157 29.1652 4.48898 28.483 5.42244 28.0193C5.62772 27.9174 5.81173 27.8259 5.93701 27.747C6.85301 27.181 9.455 25.939 10.228 25.652C10.2955 25.6246 10.4487 25.5589 10.672 25.4632C12.2253 24.7971 17.167 22.6783 20.173 21.908ZM32.074 24.803C30.5 26.814 29.607 30.594 29.736 32.2C33.224 28.124 32.074 24.803 32.074 24.803ZM28.804 54.039C28.015 52.782 25.831 47.736 25.384 44.822C25.384 44.822 28.13 47.154 29.306 50.9C31.296 57.185 29.048 54.439 28.804 54.039Z"/>
</svg>
