<?xml version="1.0" encoding="UTF-8"?>
<svg width="56px" height="78px" viewBox="0 0 56 78" version="1.1" xmlns="http://www.w3.org/2000/svg" xmlns:xlink="http://www.w3.org/1999/xlink">
    <!-- Generator: Sketch 52.6 (67491) - http://www.bohemiancoding.com/sketch -->
    <title>favicon</title>
    <desc>Created with Sketch.</desc>
    <g id="favicon" stroke="none" stroke-width="1" fill="none" fill-rule="evenodd">
        <path d="M25.697,41.956 C25.312,42.23 25.256,42.412 25.793,42.945 C30.508,47.679 31.664,52.465 32.061,53.866 C32.618,55.806 32.879,57.452 32.922,58.513 C33.067,61.564 31.231,61.704 29.242,60.162 C28.637,59.703 26.695,57.698 25.463,54.997 C24.895,53.746 23.092,48.586 22.51,46.101 C22.221,44.801 21.967,45.081 21.582,44.851 C20.951,44.482 20.32,43.562 20.738,42.705 C21.004,42.163 21.463,42.184 20.467,41.5 C16.307,38.585 10.838,36.876 9.961,36.503 C9.078,36.151 3.598,34.368 1.987,32.832 C0.056,31.015 0.434,29.682 2.768,28.194 C5.749,26.276 13.716,22.42 20.033,21.034 C23.033,20.392 27.67,19.297 31.642,21.973 C34.033,19.297 37.081,17.974 38.413,17.553 C39.649,17.162 40.593,17.358 41.175,18.074 C43.273,20.66 40.589,21.14 39.597,20.183 C39.226,19.827 38.374,20.202 37.999,20.497 C36.892,21.314 35.058,22.624 33.876,24.286 C34.624,25.764 37.204,30.892 30.151,37.82 C31.194,44.641 35.973,43.947 37.266,43.528 C41.211,42.268 46.952,37.603 52.702,31.659 C54.503,29.795 56.759,31.625 54.852,33.665 C48.465,40.502 41.524,45.024 37.475,45.993 C33.43,46.955 29.707,46.217 27.834,40.119 C27.837,40.118 26.902,41.057 25.697,41.956 Z M30.126,23.911 C27.712,21.803 22.61,22.896 20.173,23.528 C16.735,24.412 10.765,27.051 10.228,27.274 C9.455,27.56 6.853,28.804 5.937,29.37 C5.242,29.804 2.74,30.626 4.824,31.508 C6.584,32.244 7.594,32.679 9.433,33.33 C11.29,33.971 14.923,35.304 15.552,35.635 C16.189,35.986 19.669,37.956 20.38,38.344 C22.362,37.179 23.206,37.979 23.636,39.053 C23.902,39.702 24.222,39.325 24.456,39.099 C25.194,38.447 26.644,37.352 27.159,36.582 C25.75,29.102 30.126,23.911 30.126,23.911 Z M32.074,26.424 C30.5,28.431 29.607,32.214 29.736,33.821 C33.224,29.743 32.074,26.424 32.074,26.424 Z M25.384,46.441 C25.831,49.355 28.015,54.404 28.804,55.659 C29.048,56.06 31.296,58.806 29.306,52.523 C28.13,48.771 25.384,46.441 25.384,46.441 Z" id="Shape" fill="#BD002B" fill-rule="nonzero"></path>
        <rect id="Rectangle" fill="#BD002B" x="4.541" y="0.604" width="46.256" height="76.755"></rect>
        <rect id="Rectangle" fill="#B49F6B" x="4.541" y="69.441" width="46.256" height="7.918"></rect>
        <path d="M25.697,40.333 C25.312,40.611 25.256,40.792 25.793,41.323 C30.508,46.062 31.664,50.844 32.061,52.243 C32.618,54.189 32.879,55.834 32.922,56.892 C33.067,59.945 31.231,60.081 29.242,58.539 C28.637,58.081 26.695,56.075 25.463,53.379 C24.895,52.123 23.092,46.966 22.51,44.482 C22.221,43.181 21.967,43.464 21.582,43.234 C20.951,42.861 20.32,41.941 20.738,41.086 C21.004,40.544 21.463,40.565 20.467,39.881 C16.307,36.964 10.838,35.255 9.961,34.885 C9.078,34.531 3.598,32.749 1.987,31.211 C0.056,29.394 0.434,28.06 2.768,26.575 C5.749,24.653 13.716,20.8 20.033,19.415 C23.033,18.77 27.67,17.676 31.642,20.352 C34.033,17.678 37.081,16.352 38.413,15.933 C39.649,15.543 40.593,15.736 41.175,16.452 C43.273,19.043 40.589,19.523 39.597,18.561 C39.226,18.208 38.374,18.584 37.999,18.875 C36.892,19.692 35.058,21.006 33.876,22.667 C34.624,24.146 37.204,29.273 30.151,36.205 C31.194,43.023 35.973,42.329 37.266,41.909 C41.211,40.652 46.952,35.983 52.702,30.036 C54.503,28.173 56.759,30.001 54.852,32.046 C48.465,38.879 41.524,43.404 37.475,44.373 C33.43,45.332 29.707,44.6 27.834,38.496 C27.837,38.495 26.902,39.438 25.697,40.333 Z M30.126,22.292 C27.712,20.184 22.61,21.273 20.173,21.908 C16.735,22.789 10.765,25.434 10.228,25.652 C9.455,25.939 6.853,27.181 5.937,27.747 C5.242,28.185 2.74,29.006 4.824,29.889 C6.584,30.622 7.594,31.06 9.433,31.707 C11.29,32.347 14.923,33.683 15.552,34.017 C16.189,34.369 19.669,36.333 20.38,36.721 C22.362,35.56 23.206,36.356 23.636,37.431 C23.902,38.079 24.222,37.704 24.456,37.479 C25.194,36.827 26.644,35.732 27.159,34.961 C25.75,27.48 30.126,22.292 30.126,22.292 Z M32.074,24.803 C30.5,26.814 29.607,30.594 29.736,32.2 C33.224,28.124 32.074,24.803 32.074,24.803 Z M25.384,44.822 C25.831,47.736 28.015,52.782 28.804,54.039 C29.048,54.439 31.296,57.185 29.306,50.9 C28.13,47.154 25.384,44.822 25.384,44.822 Z" id="Shape" fill="#FFFFFF" fill-rule="nonzero"></path>
        <path d="M37.919,53.083 C38.478,53.083 39.013,53.223 39.526,53.502 C40.038,53.781 40.442,54.182 40.735,54.702 C41.028,55.222 41.173,55.769 41.173,56.339 C41.173,56.904 41.03,57.445 40.743,57.96 C40.454,58.475 40.054,58.875 39.54,59.163 C39.024,59.45 38.485,59.596 37.919,59.596 C37.351,59.596 36.812,59.45 36.296,59.163 C35.782,58.875 35.382,58.475 35.095,57.96 C34.806,57.445 34.663,56.904 34.663,56.339 C34.663,55.77 34.808,55.225 35.101,54.702 C35.396,54.181 35.798,53.781 36.31,53.502 C36.828,53.223 37.363,53.083 37.919,53.083 Z M37.923,53.721 C37.476,53.721 37.046,53.832 36.636,54.057 C36.226,54.28 35.902,54.602 35.665,55.022 C35.427,55.44 35.31,55.879 35.31,56.338 C35.31,56.794 35.425,57.229 35.658,57.643 C35.888,58.057 36.211,58.379 36.625,58.612 C37.039,58.845 37.473,58.962 37.926,58.962 C38.381,58.962 38.817,58.847 39.229,58.612 C39.641,58.38 39.963,58.057 40.196,57.643 C40.429,57.229 40.546,56.794 40.546,56.338 C40.546,55.879 40.427,55.44 40.191,55.022 C39.955,54.602 39.63,54.28 39.218,54.057 C38.804,53.832 38.373,53.721 37.923,53.721 Z M36.451,58.081 L36.451,54.626 L37.152,54.626 C37.808,54.626 38.175,54.629 38.256,54.635 C38.488,54.655 38.668,54.7 38.797,54.774 C38.926,54.846 39.035,54.957 39.121,55.106 C39.207,55.253 39.25,55.419 39.25,55.6 C39.25,55.85 39.168,56.063 39.006,56.241 C38.844,56.418 38.613,56.526 38.32,56.569 C38.424,56.61 38.506,56.653 38.56,56.7 C38.617,56.747 38.697,56.835 38.794,56.966 C38.819,56.999 38.903,57.14 39.048,57.387 L39.456,58.083 L38.589,58.083 L38.3,57.522 C38.107,57.145 37.945,56.908 37.818,56.809 C37.691,56.711 37.529,56.663 37.334,56.663 L37.15,56.663 L37.15,58.082 L36.451,58.081 Z M37.152,56.118 L37.435,56.118 C37.839,56.118 38.091,56.101 38.191,56.07 C38.289,56.04 38.365,55.984 38.421,55.907 C38.476,55.829 38.505,55.741 38.505,55.64 C38.505,55.544 38.478,55.458 38.423,55.383 C38.368,55.308 38.288,55.254 38.187,55.222 C38.085,55.189 37.835,55.172 37.435,55.172 L37.152,55.172 L37.152,56.118 Z" id="Shape" fill="#000000" fill-rule="nonzero"></path>
    </g>
</svg>