<svg width="56" height="78" viewBox="0 0 56 78" fill="none" xmlns="http://www.w3.org/2000/svg">
<path d="M25.697 41.956C25.312 42.23 25.256 42.412 25.793 42.945C30.508 47.679 31.664 52.465 32.061 53.866C32.618 55.806 32.879 57.452 32.922 58.513C33.067 61.564 31.231 61.704 29.242 60.162C28.637 59.703 26.695 57.698 25.463 54.997C24.895 53.746 23.092 48.586 22.51 46.101C22.221 44.801 21.967 45.081 21.582 44.851C20.951 44.482 20.32 43.562 20.738 42.705C21.004 42.163 21.463 42.184 20.467 41.5C16.307 38.585 10.838 36.876 9.961 36.503C9.078 36.151 3.598 34.368 1.987 32.832C0.0559953 31.015 0.433995 29.682 2.768 28.194C5.749 26.276 13.716 22.42 20.033 21.034C23.033 20.392 27.67 19.297 31.642 21.973C34.033 19.297 37.081 17.974 38.413 17.553C39.649 17.162 40.593 17.358 41.175 18.074C43.273 20.66 40.589 21.14 39.597 20.183C39.226 19.827 38.374 20.202 37.999 20.497C36.892 21.314 35.058 22.624 33.876 24.286C34.624 25.764 37.204 30.892 30.151 37.82C31.194 44.641 35.973 43.947 37.266 43.528C41.211 42.268 46.952 37.603 52.702 31.659C54.503 29.795 56.759 31.625 54.852 33.665C48.465 40.502 41.524 45.024 37.475 45.993C33.43 46.955 29.707 46.217 27.834 40.119C27.837 40.118 26.902 41.057 25.697 41.956ZM30.126 23.911C27.712 21.803 22.61 22.896 20.173 23.528C16.735 24.412 10.765 27.051 10.228 27.274C9.45499 27.56 6.853 28.804 5.937 29.37C5.242 29.804 2.74 30.626 4.824 31.508C6.584 32.244 7.59399 32.679 9.43299 33.33C11.29 33.971 14.923 35.304 15.552 35.635C16.189 35.986 19.669 37.956 20.38 38.344C22.362 37.179 23.206 37.979 23.636 39.053C23.902 39.702 24.222 39.325 24.456 39.099C25.194 38.447 26.644 37.352 27.159 36.582C25.75 29.102 30.126 23.911 30.126 23.911ZM32.074 26.424C30.5 28.431 29.607 32.214 29.736 33.821C33.224 29.743 32.074 26.424 32.074 26.424ZM25.384 46.441C25.831 49.355 28.015 54.404 28.804 55.659C29.048 56.06 31.296 58.806 29.306 52.523C28.13 48.771 25.384 46.441 25.384 46.441Z" fill="#EE3028"/>
<path d="M50.797 0.604004H4.541V77.359H50.797V0.604004Z" fill="#EE3028"/>
<path d="M25.697 40.333C25.312 40.611 25.256 40.792 25.793 41.323C30.508 46.062 31.664 50.844 32.061 52.243C32.618 54.189 32.879 55.834 32.922 56.892C33.067 59.945 31.231 60.081 29.242 58.539C28.637 58.081 26.695 56.075 25.463 53.379C24.895 52.123 23.092 46.966 22.51 44.482C22.221 43.181 21.967 43.464 21.582 43.234C20.951 42.861 20.32 41.941 20.738 41.086C21.004 40.544 21.463 40.565 20.467 39.881C16.307 36.964 10.838 35.255 9.961 34.885C9.078 34.531 3.598 32.749 1.987 31.211C0.0559953 29.394 0.433995 28.06 2.768 26.575C5.749 24.653 13.716 20.8 20.033 19.415C23.033 18.77 27.67 17.676 31.642 20.352C34.033 17.678 37.081 16.352 38.413 15.933C39.649 15.543 40.593 15.736 41.175 16.452C43.273 19.043 40.589 19.523 39.597 18.561C39.226 18.208 38.374 18.584 37.999 18.875C36.892 19.692 35.058 21.006 33.876 22.667C34.624 24.146 37.204 29.273 30.151 36.205C31.194 43.023 35.973 42.329 37.266 41.909C41.211 40.652 46.952 35.983 52.702 30.036C54.503 28.173 56.759 30.001 54.852 32.046C48.465 38.879 41.524 43.404 37.475 44.373C33.43 45.332 29.707 44.6 27.834 38.496C27.837 38.495 26.902 39.438 25.697 40.333ZM30.126 22.292C27.712 20.184 22.61 21.273 20.173 21.908C16.735 22.789 10.765 25.434 10.228 25.652C9.45499 25.939 6.853 27.181 5.937 27.747C5.242 28.185 2.74 29.006 4.824 29.889C6.584 30.622 7.59399 31.06 9.43299 31.707C11.29 32.347 14.923 33.683 15.552 34.017C16.189 34.369 19.669 36.333 20.38 36.721C22.362 35.56 23.206 36.356 23.636 37.431C23.902 38.079 24.222 37.704 24.456 37.479C25.194 36.827 26.644 35.732 27.159 34.961C25.75 27.48 30.126 22.292 30.126 22.292ZM32.074 24.803C30.5 26.814 29.607 30.594 29.736 32.2C33.224 28.124 32.074 24.803 32.074 24.803ZM25.384 44.822C25.831 47.736 28.015 52.782 28.804 54.039C29.048 54.439 31.296 57.185 29.306 50.9C28.13 47.154 25.384 44.822 25.384 44.822Z" fill="white"/>
</svg>
