<?xml version="1.0" encoding="UTF-8"?>
<svg width="30px" height="30px" viewBox="0 0 30 30" version="1.1" xmlns="http://www.w3.org/2000/svg" xmlns:xlink="http://www.w3.org/1999/xlink">
    <!-- Generator: Sketch 52.6 (67491) - http://www.bohemiancoding.com/sketch -->
    <title>funk-my-mood-logo</title>
    <desc>Created with Sketch.</desc>
    <g id="Prototype" stroke="none" stroke-width="1" fill-rule="evenodd">
        <g id="Home" transform="translate(-141.000000, -1598.000000)" fill-rule="nonzero">
            <g id="card-copy" transform="translate(140.000000, 1558.000000)">
                <g id="card-top" transform="translate(281.000000, 55.000000) scale(-1, 1) translate(-281.000000, -55.000000) translate(1.000000, 40.000000)">
                    <path d="M545,0 C536.715625,0 530,6.715625 530,15 C530,23.284375 536.715625,30 545,30 C553.284375,30 560,23.284375 560,15 C560,6.715625 553.284375,0 545,0 Z M553.077188,20.063125 C553.215312,19.8434375 553.505,19.7784375 553.723438,19.9153125 C553.9425,20.053125 554.00875,20.3425 553.87125,20.5615625 C551.940625,23.634375 548.624375,25.46875 545,25.46875 C544.74125,25.46875 544.53125,25.25875 544.53125,25 C544.53125,24.74125 544.74125,24.53125 545,24.53125 C548.3,24.53125 551.319687,22.8609375 553.077188,20.063125 Z M534.35875,8.90625 C534.274375,8.90625 534.189375,8.88375 534.1125,8.83625 C533.8925,8.7 533.824062,8.41125 533.960312,8.1909375 C536.344062,4.3340625 540.47125,2.03125 545,2.03125 C545.25875,2.03125 545.46875,2.24125 545.46875,2.5 C545.46875,2.75875 545.25875,2.96875 545,2.96875 C540.798437,2.96875 536.969687,5.1053125 534.758125,8.6840625 C534.669062,8.8275 534.515625,8.90625 534.35875,8.90625 Z M536.922812,9.936875 C536.83375,10.07875 536.68125,10.15625 536.525625,10.15625 C536.440313,10.15625 536.354063,10.133125 536.276562,10.0846875 C536.0575,9.946875 535.99125,9.6575 536.12875,9.4384375 C538.059375,6.365625 541.375625,4.53125 545,4.53125 C545.25875,4.53125 545.46875,4.74125 545.46875,5 C545.46875,5.25875 545.25875,5.46875 545,5.46875 C541.7,5.46875 538.680313,7.1390625 536.922812,9.936875 Z M539.0625,15 C539.0625,11.7209375 541.720937,9.0625 545,9.0625 C548.27875,9.0625 550.9375,11.7209375 550.9375,15 C550.9375,18.27875 548.27875,20.9375 545,20.9375 C541.720937,20.9375 539.0625,18.27875 539.0625,15 Z M545,27.96875 C544.74125,27.96875 544.53125,27.75875 544.53125,27.5 C544.53125,27.24125 544.74125,27.03125 545,27.03125 C549.201563,27.03125 553.030313,24.8946875 555.241875,21.3159375 C555.378438,21.0953125 555.666875,21.0284375 555.887187,21.16375 C556.107188,21.3 556.175625,21.58875 556.039375,21.8090625 C553.655938,25.6659375 549.52875,27.96875 545,27.96875 Z M546.25,15 C546.25,14.3096875 545.690313,13.75 545,13.75 C544.309687,13.75 543.75,14.3096875 543.75,15 C543.75,15.6903125 544.309687,16.25 545,16.25 C545.690313,16.25 546.25,15.6903125 546.25,15 Z" id="funk-my-mood-logo"></path>
                </g>
            </g>
        </g>
    </g>
</svg>