<?xml version="1.0" encoding="UTF-8"?>
<svg width="30px" height="30px" viewBox="0 0 30 30" version="1.1" xmlns="http://www.w3.org/2000/svg" xmlns:xlink="http://www.w3.org/1999/xlink">
    <!-- Generator: Sketch 52.6 (67491) - http://www.bohemiancoding.com/sketch -->
    <title>gatsby-logo</title>
    <desc>Created with Sketch.</desc>
    <g id="Prototype" stroke="none" stroke-width="1" fill="none" fill-rule="evenodd">
        <g id="Home" transform="translate(-141.000000, -818.000000)" fill="#663399" fill-rule="nonzero">
            <g id="card-copy" transform="translate(140.000000, 778.000000)">
                <g id="card-top" transform="translate(281.000000, 55.000000) scale(-1, 1) translate(-281.000000, -55.000000) translate(1.000000, 40.000000)">
                    <path d="M545,0 C536.75,0 530,6.75 530,15 C530,23.25 536.75,30 545,30 C553.25,30 560,23.25 560,15 C560,6.75 553.25,0 545,0 Z M536.642857,23.3571429 C534.392857,21.1071429 533.214286,18.1071429 533.214286,15.2142857 L544.892857,26.7857143 C541.892857,26.6785714 538.892857,25.6071429 536.642857,23.3571429 Z M547.571429,26.4642857 L533.535714,12.4285714 C534.714286,7.17857143 539.428571,3.21428571 545,3.21428571 C548.964286,3.21428571 552.392857,5.14285714 554.535714,8.03571429 L552.928571,9.42857143 C551.107143,6.96428571 548.214286,5.35714286 545,5.35714286 C540.821429,5.35714286 537.285714,8.03571429 535.892857,11.7857143 L548.214286,24.1071429 C551.321429,23.0357143 553.678571,20.3571429 554.428571,17.1428571 L549.285714,17.1428571 L549.285714,15 L556.785714,15 C556.785714,20.5714286 552.821429,25.2857143 547.571429,26.4642857 Z" id="gatsby-logo" transform="translate(545.000000, 15.000000) scale(-1, 1) translate(-545.000000, -15.000000) "></path>
                </g>
            </g>
        </g>
    </g>
</svg>