<?xml version="1.0" encoding="UTF-8"?>
<svg width="100px" height="100px" viewBox="0 0 100 100" version="1.1" xmlns="http://www.w3.org/2000/svg" xmlns:xlink="http://www.w3.org/1999/xlink">
    <!-- Generator: Sketch 52.6 (67491) - http://www.bohemiancoding.com/sketch -->
    <title>Combined Shape</title>
    <desc>Created with Sketch.</desc>
    <g id="Page-1" stroke="none" stroke-width="1" fill-rule="evenodd">
        <g id="favicon-copy" transform="translate(-10.000000, -10.000000)">
            <path d="M60,110 C32.3857625,110 10,87.6142375 10,60 C10,32.3857625 32.3857625,10 60,10 C87.6142375,10 110,32.3857625 110,60 C110,87.6142375 87.6142375,110 60,110 Z M49.95,73.05 C49.6499985,73.05 49.466667,73.0333335 49.4,73 L48.9,72.5 C48.433331,72.6000005 47.5500065,72.65 46.25,72.65 L45.05,72.65 C41.783317,72.65 38.550016,72.5250013 35.35,72.275 C32.149984,72.0249988 30.3333355,71.6500025 29.9,71.15 C29.633332,70.8499985 29.4416672,70.4833355 29.325,70.05 C29.2083327,69.6166645 29.15,69.1833355 29.15,68.75 C29.15,67.0499915 29.4666635,64.4833505 30.1,61.05 C30.633336,58.249986 31.1833305,55.383348 31.75,52.45 C32.3166695,49.516652 32.6,47.016677 32.6,44.95 C32.6,44.683332 32.6166665,44.4000015 32.65,44.1 L32.65,43.7 C32.65,43.566666 32.4666685,43.3166685 32.1,42.95 L31.65,42.95 C30.516661,46.816686 29.5416707,51.3749738 28.725,56.625 C27.9083292,61.8750263 27.5,66.3499815 27.5,70.05 C27.5,72.7500135 28.799987,74.1 31.4,74.1 C32.7666735,74.1 34.816653,74.166666 37.55,74.3 C40.283347,74.433334 42.3333265,74.5 43.7,74.5 C44.9333395,74.5 46.0583282,74.3916678 47.075,74.175 C48.0916717,73.9583323 49.0499955,73.583336 49.95,73.05 Z M93.35,72.2 C93.35,70.6999925 92.6583402,67.683356 91.275,63.15 C89.8916597,58.616644 88.366675,54.383353 86.7,50.45 C84.7999905,46.0166445 83.2333395,43.366671 82,42.5 C80.866661,44.100008 79.600007,46.299986 78.2,49.1 C76.2333235,53.10002 75.083335,55.3833305 74.75,55.95 C73.349993,58.416679 71.8666745,60.4333255 70.3,62 C68.9333265,55.2332995 68.0666685,51.350005 67.7,50.35 C66.7999955,47.8499875 65.6333405,45.8833405 64.2,44.45 C62.533325,48.2833525 61.3500035,51.0166585 60.65,52.65 C58.8166575,56.983355 57.23334,60.849983 55.9,64.25 C54.299992,68.383354 53.5,70.8333295 53.5,71.6 C53.5,72.93334 53.8499965,74.0499955 54.55,74.95 C55.150003,73.283325 56.0999935,70.4000205 57.4,66.3 C58.7000065,62.1999795 59.7333295,59.183343 60.5,57.25 C61.766673,54.116651 63.166659,51.350012 64.7,48.95 C66.233341,55.150031 67.766659,61.3333025 69.3,67.5 C71.1333425,66.0666595 72.7333265,63.7666825 74.1,60.6 C75.2000055,57.8333195 76.2999945,55.050014 77.4,52.25 C78.800007,49.1499845 80.49999,46.900007 82.5,45.5 C83.2000035,46.9333405 84.2666595,50.0666425 85.7,54.9 C87.5333425,61.100031 88.7666635,65.1499905 89.4,67.05 C90.800007,71.183354 91.899996,73.4999975 92.7,74 C92.8666675,73.6999985 93.016666,73.3916683 93.15,73.075 C93.283334,72.7583318 93.35,72.466668 93.35,72.2 Z" id="Combined-Shape"></path>
        </g>
    </g>
</svg>