<?xml version="1.0" encoding="UTF-8"?>
<svg width="100px" height="100px" viewBox="0 0 100 100" version="1.1" xmlns="http://www.w3.org/2000/svg" xmlns:xlink="http://www.w3.org/1999/xlink">
    <!-- Generator: Sketch 52.6 (67491) - http://www.bohemiancoding.com/sketch -->
    <title>Combined Shape Copy</title>
    <desc>Created with Sketch.</desc>
    <g id="UI-kit" stroke="none" stroke-width="1" fill="none" fill-rule="evenodd">
        <g id="Logos" transform="translate(-3049.000000, -602.000000)" fill="#000000" fill-rule="nonzero">
            <path d="M3099,702 C3071.38576,702 3049,679.614237 3049,652 C3049,624.385763 3071.38576,602 3099,602 C3126.61424,602 3149,624.385763 3149,652 C3149,679.614237 3126.61424,702 3099,702 Z M3099,697.924765 C3124.36355,697.924765 3144.92476,677.363547 3144.92476,652 C3144.92476,626.636453 3124.36355,606.075235 3099,606.075235 C3073.63645,606.075235 3053.07524,626.636453 3053.07524,652 C3053.07524,677.363547 3073.63645,697.924765 3099,697.924765 Z M3099,696.984326 C3074.32897,696.984326 3054.32915,676.984507 3054.32915,652.31348 C3054.32915,627.642452 3074.32897,607.642633 3099,607.642633 C3123.67103,607.642633 3143.67085,627.642452 3143.67085,652.31348 C3143.67085,676.984507 3123.67103,696.984326 3099,696.984326 Z M3099,696.043887 C3123.15164,696.043887 3142.73041,676.465117 3142.73041,652.31348 C3142.73041,628.161842 3123.15164,608.583072 3099,608.583072 C3074.84836,608.583072 3055.26959,628.161842 3055.26959,652.31348 C3055.26959,676.465117 3074.84836,696.043887 3099,696.043887 Z M3073.87836,668.364282 L3069.82445,675.354232 L3069.82445,643.119885 C3069.82445,632.581464 3073.71424,626.76489 3081.4232,626.76489 C3086.51925,626.76489 3089.85255,628.654446 3091.54936,632.25892 C3092.75474,634.819488 3093.01841,637.393821 3093.02184,642.651993 C3093.02193,642.782204 3093.02184,655.379437 3093.02184,655.61312 L3088.96804,647.119885 C3088.96804,646.887098 3088.96802,646.783697 3088.96793,646.654679 C3088.96491,642.022141 3088.73944,635.82073 3087.88644,634.008732 C3086.89813,631.909277 3085.02713,630.848661 3081.4232,630.848661 C3076.36976,630.848661 3073.87836,634.57416 3073.87836,643.119885 L3073.87836,668.364282 Z M3125.7711,640.52704 C3125.61424,633.74717 3124.09203,631.149154 3118.83944,631.149154 C3114.20721,631.149154 3111.88875,634.728531 3111.88875,643.000007 L3111.88875,661.245603 C3111.88875,671.750512 3107.96662,677.548589 3100.19359,677.548589 C3095.05518,677.548589 3091.69417,675.665042 3089.98326,672.072031 C3088.76785,669.519605 3088.502,666.953459 3088.49854,661.712008 C3088.49845,661.58221 3088.49854,653.601568 3088.49854,653.368628 L3092.58604,661.245603 C3092.58604,661.477651 3092.58605,661.580723 3092.58614,661.70933 C3092.58919,666.327137 3092.81653,668.521547 3093.67662,670.327783 C3094.67315,672.420562 3096.5597,673.477805 3100.19359,673.477805 C3105.28903,673.477805 3107.80114,669.764153 3107.80114,661.245603 L3107.80114,643.000007 C3107.80114,632.756489 3111.47901,627.07837 3118.83944,627.07837 C3123.18741,627.07837 3126.23125,628.65758 3127.97867,631.639967 C3129.29237,633.882118 3125.78691,641.21036 3125.7711,640.52704 Z" id="Combined-Shape-Copy"></path>
        </g>
    </g>
</svg>