<?xml version="1.0" encoding="UTF-8"?>
<svg width="80px" height="80px" viewBox="0 0 80 80" version="1.1" xmlns="http://www.w3.org/2000/svg" xmlns:xlink="http://www.w3.org/1999/xlink">
    <!-- Generator: Sketch 52.6 (67491) - http://www.bohemiancoding.com/sketch -->
    <title>favicon</title>
    <desc>Created with Sketch.</desc>
    <g id="Page-1" stroke="none" stroke-width="1" fill="none" fill-rule="evenodd">
        <g id="favicon" fill="#000000" fill-rule="nonzero">
            <path d="M2.38285714,79.89 L78.7571429,79.89 L78.7571429,29.427 L2.38285714,29.427 L2.38285714,79.89 Z M6.17047619,42.141 L74.9695238,42.141 L74.9695238,54.66 L6.17047619,54.66 L6.17047619,42.141 Z" id="Shape"></path>
            <path d="M19.2752381,17.969 L78.9904762,10.469 L77.8104762,0.11 L0.497142857,9.821 L1.63809524,19.836 L1.63809524,28.401 L79.5038095,28.401 L79.5038095,17.969 L19.2752381,17.969 Z M73.1057143,2.277 L76.867619,9.16 L69.6180952,10.071 L65.8561905,3.189 L73.1057143,2.277 Z M60.4390476,3.869 L64.1990476,10.751 L56.9495238,11.661 L53.187619,4.779 L60.4390476,3.869 Z M47.7704762,5.459 L51.5314286,12.341 L44.2809524,13.252 L40.5209524,6.37 L47.7704762,5.459 Z M35.1019048,7.051 L38.8638095,13.933 L31.612381,14.844 L27.8514286,7.962 L35.1019048,7.051 Z M22.4352381,8.642 L26.1971429,15.524 L18.9466667,16.435 L15.1857143,9.553 L22.4352381,8.642 Z M9.76666667,10.232 L13.527619,17.115 L6.72571429,17.968 L6.24666667,17.968 L2.51619048,11.142 L9.76666667,10.232 Z M10.7952381,26.836 L3.49333333,26.836 L6.42952381,19.582 L6.81809524,19.534 L13.7514286,19.534 L10.7952381,26.836 Z M23.5533333,26.836 L16.2514286,26.836 L19.207619,19.534 L26.5095238,19.534 L23.5533333,26.836 Z M36.312381,26.836 L29.0095238,26.836 L31.9657143,19.534 L39.267619,19.534 L36.312381,26.836 Z M49.0704762,26.836 L41.7685714,26.836 L44.7247619,19.534 L52.0266667,19.534 L49.0704762,26.836 Z M61.8285714,26.836 L54.5257143,26.836 L57.4828571,19.534 L64.7847619,19.534 L61.8285714,26.836 Z M74.5866667,26.836 L67.2847619,26.836 L70.2409524,19.534 L77.5428571,19.534 L74.5866667,26.836 Z" id="Shape"></path>
        </g>
    </g>
</svg>